ISO-10303-21;
HEADER;
/* Generated by software containing ST-Developer
 * from STEP Tools, Inc. (www.steptools.com) 
 */
/* OPTION: using custom renumber hook */

FILE_DESCRIPTION(
/* description */ ('STEP AP242',
'CAx-IF Rec.Pracs.---Representation and Presentation of Product Manufa
cturing Information (PMI)---4.0---2014-10-13',
'CAx-IF Rec.Pracs.---3D Tessellated Geometry---0.4---2014-09-14','2;1'),

/* implementation_level */ '2;1');

FILE_NAME(
/* name */ '680ab03c1b6950071c5615ad',
/* time_stamp */ '2025-04-24T21:42:20Z',
/* author */ (''),
/* organization */ (''),
/* preprocessor_version */ 'ST-DEVELOPER v20',
/* originating_system */ 'ONSHAPE BY PTC INC, 1.196',
/* authorisation */ '  ');

FILE_SCHEMA (('AP242_MANAGED_MODEL_BASED_3D_ENGINEERING_MIM_LF { 1 0 10303 442 1 1 4 }'));
ENDSEC;

DATA;
#10=ELLIPSE('',#1124,0.00718420489685532,0.00508);
#11=ELLIPSE('',#1125,0.00718420489685532,0.00508);
#12=ELLIPSE('',#1127,0.00718420489685533,0.00508);
#13=ELLIPSE('',#1129,0.00718420489685532,0.00508);
#14=ELLIPSE('',#1132,0.00718420489685532,0.00508);
#15=ELLIPSE('',#1133,0.00718420489685532,0.00508);
#16=ELLIPSE('',#1135,0.00718420489685533,0.00508);
#17=ELLIPSE('',#1137,0.00718420489685532,0.00508);
#18=B_SPLINE_CURVE_WITH_KNOTS('',3,(#1674,#1675,#1676,#1677,#1678,#1679,
#1680,#1681,#1682,#1683,#1684,#1685,#1686),.UNSPECIFIED.,.F.,.F.,(4,1,1,
1,1,1,1,1,1,1,4),(0.,0.001386428832318,0.00277285766463601,0.00415928649695401,
0.00485250091311301,0.00554571532927201,0.00623892974543101,0.00693214416159002,
0.00831857299390802,0.00970500182622602,0.011091430658544),
 .UNSPECIFIED.);
#19=B_SPLINE_CURVE_WITH_KNOTS('',3,(#1687,#1688,#1689,#1690,#1691,#1692,
#1693,#1694,#1695,#1696,#1697,#1698,#1699),.UNSPECIFIED.,.F.,.F.,(4,1,1,
1,1,1,1,1,1,1,4),(0.,0.001386428832318,0.00277285766463601,0.00415928649695401,
0.00485250091311301,0.00554571532927202,0.00623892974543102,0.00693214416159002,
0.00831857299390803,0.00970500182622603,0.011091430658544),
 .UNSPECIFIED.);
#20=CYLINDRICAL_SURFACE('',#1122,0.00246978885885765);
#21=CYLINDRICAL_SURFACE('',#1123,0.00508);
#22=CYLINDRICAL_SURFACE('',#1126,0.00508);
#23=CYLINDRICAL_SURFACE('',#1128,0.00508);
#24=CYLINDRICAL_SURFACE('',#1130,0.00508);
#25=CYLINDRICAL_SURFACE('',#1131,0.00508);
#26=CYLINDRICAL_SURFACE('',#1134,0.00508);
#27=CYLINDRICAL_SURFACE('',#1136,0.00508);
#28=CYLINDRICAL_SURFACE('',#1138,0.00508);
#29=CYLINDRICAL_SURFACE('',#1139,0.00238034787838025);
#30=CIRCLE('',#1099,0.00246978885885765);
#31=CIRCLE('',#1102,0.00246978885885765);
#32=CIRCLE('',#1105,0.00238034787838025);
#33=CIRCLE('',#1140,0.00238034787838025);
#34=CONTEXT_DEPENDENT_SHAPE_REPRESENTATION(#38,#1757);
#35=CONTEXT_DEPENDENT_SHAPE_REPRESENTATION(#39,#1759);
#36=NEXT_ASSEMBLY_USAGE_OCCURRENCE('NAUO1','Part 1','Part 1',#1760,#1761,
'');
#37=NEXT_ASSEMBLY_USAGE_OCCURRENCE('NAUO2','Part 1','Part 1',#1760,#1762,
'');
#38=(
REPRESENTATION_RELATIONSHIP(' ',' ',#1079,#1078)
REPRESENTATION_RELATIONSHIP_WITH_TRANSFORMATION(#40)
SHAPE_REPRESENTATION_RELATIONSHIP()
);
#39=(
REPRESENTATION_RELATIONSHIP(' ',' ',#1080,#1078)
REPRESENTATION_RELATIONSHIP_WITH_TRANSFORMATION(#41)
SHAPE_REPRESENTATION_RELATIONSHIP()
);
#40=ITEM_DEFINED_TRANSFORMATION(' ',' ',#1081,#1092);
#41=ITEM_DEFINED_TRANSFORMATION(' ',' ',#1081,#1154);
#42=SHAPE_REPRESENTATION_RELATIONSHIP('','',#1079,#44);
#43=SHAPE_REPRESENTATION_RELATIONSHIP('','',#1080,#45);
#44=ADVANCED_BREP_SHAPE_REPRESENTATION('',(#1073),#1747);
#45=ADVANCED_BREP_SHAPE_REPRESENTATION('',(#1074),#1748);
#46=ORIENTED_EDGE('',*,*,#326,.F.);
#47=ORIENTED_EDGE('',*,*,#327,.T.);
#48=ORIENTED_EDGE('',*,*,#328,.T.);
#49=ORIENTED_EDGE('',*,*,#329,.F.);
#50=ORIENTED_EDGE('',*,*,#330,.F.);
#51=ORIENTED_EDGE('',*,*,#331,.T.);
#52=ORIENTED_EDGE('',*,*,#326,.T.);
#53=ORIENTED_EDGE('',*,*,#332,.T.);
#54=ORIENTED_EDGE('',*,*,#333,.F.);
#55=ORIENTED_EDGE('',*,*,#334,.T.);
#56=ORIENTED_EDGE('',*,*,#330,.T.);
#57=ORIENTED_EDGE('',*,*,#335,.T.);
#58=ORIENTED_EDGE('',*,*,#328,.F.);
#59=ORIENTED_EDGE('',*,*,#336,.T.);
#60=ORIENTED_EDGE('',*,*,#333,.T.);
#61=ORIENTED_EDGE('',*,*,#337,.F.);
#62=ORIENTED_EDGE('',*,*,#338,.T.);
#63=ORIENTED_EDGE('',*,*,#339,.T.);
#64=ORIENTED_EDGE('',*,*,#340,.T.);
#65=ORIENTED_EDGE('',*,*,#341,.T.);
#66=ORIENTED_EDGE('',*,*,#329,.T.);
#67=ORIENTED_EDGE('',*,*,#337,.T.);
#68=ORIENTED_EDGE('',*,*,#335,.F.);
#69=ORIENTED_EDGE('',*,*,#332,.F.);
#70=ORIENTED_EDGE('',*,*,#342,.F.);
#71=ORIENTED_EDGE('',*,*,#341,.F.);
#72=ORIENTED_EDGE('',*,*,#343,.F.);
#73=ORIENTED_EDGE('',*,*,#331,.F.);
#74=ORIENTED_EDGE('',*,*,#343,.T.);
#75=ORIENTED_EDGE('',*,*,#340,.F.);
#76=ORIENTED_EDGE('',*,*,#344,.F.);
#77=ORIENTED_EDGE('',*,*,#327,.F.);
#78=ORIENTED_EDGE('',*,*,#342,.T.);
#79=ORIENTED_EDGE('',*,*,#334,.F.);
#80=ORIENTED_EDGE('',*,*,#345,.F.);
#81=ORIENTED_EDGE('',*,*,#338,.F.);
#82=ORIENTED_EDGE('',*,*,#344,.T.);
#83=ORIENTED_EDGE('',*,*,#339,.F.);
#84=ORIENTED_EDGE('',*,*,#345,.T.);
#85=ORIENTED_EDGE('',*,*,#336,.F.);
#86=ORIENTED_EDGE('',*,*,#346,.F.);
#87=ORIENTED_EDGE('',*,*,#347,.F.);
#88=ORIENTED_EDGE('',*,*,#348,.T.);
#89=ORIENTED_EDGE('',*,*,#349,.T.);
#90=ORIENTED_EDGE('',*,*,#350,.F.);
#91=ORIENTED_EDGE('',*,*,#351,.F.);
#92=ORIENTED_EDGE('',*,*,#352,.F.);
#93=ORIENTED_EDGE('',*,*,#353,.F.);
#94=ORIENTED_EDGE('',*,*,#354,.F.);
#95=ORIENTED_EDGE('',*,*,#355,.F.);
#96=ORIENTED_EDGE('',*,*,#356,.F.);
#97=ORIENTED_EDGE('',*,*,#357,.F.);
#98=ORIENTED_EDGE('',*,*,#358,.T.);
#99=ORIENTED_EDGE('',*,*,#359,.T.);
#100=ORIENTED_EDGE('',*,*,#360,.T.);
#101=ORIENTED_EDGE('',*,*,#361,.T.);
#102=ORIENTED_EDGE('',*,*,#362,.T.);
#103=ORIENTED_EDGE('',*,*,#363,.T.);
#104=ORIENTED_EDGE('',*,*,#364,.T.);
#105=ORIENTED_EDGE('',*,*,#365,.T.);
#106=ORIENTED_EDGE('',*,*,#366,.F.);
#107=ORIENTED_EDGE('',*,*,#367,.F.);
#108=ORIENTED_EDGE('',*,*,#368,.T.);
#109=ORIENTED_EDGE('',*,*,#369,.T.);
#110=ORIENTED_EDGE('',*,*,#370,.T.);
#111=ORIENTED_EDGE('',*,*,#371,.T.);
#112=ORIENTED_EDGE('',*,*,#372,.T.);
#113=ORIENTED_EDGE('',*,*,#373,.T.);
#114=ORIENTED_EDGE('',*,*,#374,.T.);
#115=ORIENTED_EDGE('',*,*,#375,.T.);
#116=ORIENTED_EDGE('',*,*,#376,.T.);
#117=ORIENTED_EDGE('',*,*,#377,.F.);
#118=ORIENTED_EDGE('',*,*,#378,.F.);
#119=ORIENTED_EDGE('',*,*,#379,.T.);
#120=ORIENTED_EDGE('',*,*,#380,.F.);
#121=ORIENTED_EDGE('',*,*,#381,.F.);
#122=ORIENTED_EDGE('',*,*,#382,.F.);
#123=ORIENTED_EDGE('',*,*,#383,.F.);
#124=ORIENTED_EDGE('',*,*,#384,.F.);
#125=ORIENTED_EDGE('',*,*,#385,.F.);
#126=ORIENTED_EDGE('',*,*,#376,.F.);
#127=ORIENTED_EDGE('',*,*,#386,.T.);
#128=ORIENTED_EDGE('',*,*,#387,.T.);
#129=ORIENTED_EDGE('',*,*,#388,.F.);
#130=ORIENTED_EDGE('',*,*,#389,.F.);
#131=ORIENTED_EDGE('',*,*,#390,.T.);
#132=ORIENTED_EDGE('',*,*,#391,.T.);
#133=ORIENTED_EDGE('',*,*,#392,.T.);
#134=ORIENTED_EDGE('',*,*,#393,.F.);
#135=ORIENTED_EDGE('',*,*,#366,.T.);
#136=ORIENTED_EDGE('',*,*,#394,.T.);
#137=ORIENTED_EDGE('',*,*,#395,.F.);
#138=ORIENTED_EDGE('',*,*,#396,.F.);
#139=ORIENTED_EDGE('',*,*,#397,.T.);
#140=ORIENTED_EDGE('',*,*,#398,.T.);
#141=ORIENTED_EDGE('',*,*,#399,.T.);
#142=ORIENTED_EDGE('',*,*,#389,.T.);
#143=ORIENTED_EDGE('',*,*,#400,.T.);
#144=ORIENTED_EDGE('',*,*,#401,.F.);
#145=ORIENTED_EDGE('',*,*,#356,.T.);
#146=ORIENTED_EDGE('',*,*,#402,.T.);
#147=ORIENTED_EDGE('',*,*,#403,.F.);
#148=ORIENTED_EDGE('',*,*,#404,.F.);
#149=ORIENTED_EDGE('',*,*,#405,.T.);
#150=ORIENTED_EDGE('',*,*,#346,.T.);
#151=ORIENTED_EDGE('',*,*,#406,.F.);
#152=ORIENTED_EDGE('',*,*,#407,.F.);
#153=ORIENTED_EDGE('',*,*,#408,.T.);
#154=ORIENTED_EDGE('',*,*,#396,.T.);
#155=ORIENTED_EDGE('',*,*,#409,.T.);
#156=ORIENTED_EDGE('',*,*,#391,.F.);
#157=ORIENTED_EDGE('',*,*,#410,.T.);
#158=ORIENTED_EDGE('',*,*,#411,.F.);
#159=ORIENTED_EDGE('',*,*,#412,.T.);
#160=ORIENTED_EDGE('',*,*,#407,.T.);
#161=ORIENTED_EDGE('',*,*,#413,.T.);
#162=ORIENTED_EDGE('',*,*,#414,.T.);
#163=ORIENTED_EDGE('',*,*,#415,.T.);
#164=ORIENTED_EDGE('',*,*,#416,.T.);
#165=ORIENTED_EDGE('',*,*,#417,.T.);
#166=ORIENTED_EDGE('',*,*,#418,.T.);
#167=ORIENTED_EDGE('',*,*,#419,.T.);
#168=ORIENTED_EDGE('',*,*,#420,.T.);
#169=ORIENTED_EDGE('',*,*,#421,.T.);
#170=ORIENTED_EDGE('',*,*,#422,.T.);
#171=ORIENTED_EDGE('',*,*,#367,.T.);
#172=ORIENTED_EDGE('',*,*,#393,.T.);
#173=ORIENTED_EDGE('',*,*,#423,.F.);
#174=ORIENTED_EDGE('',*,*,#424,.F.);
#175=ORIENTED_EDGE('',*,*,#394,.F.);
#176=ORIENTED_EDGE('',*,*,#369,.F.);
#177=ORIENTED_EDGE('',*,*,#425,.T.);
#178=ORIENTED_EDGE('',*,*,#426,.T.);
#179=ORIENTED_EDGE('',*,*,#423,.T.);
#180=ORIENTED_EDGE('',*,*,#395,.T.);
#181=ORIENTED_EDGE('',*,*,#426,.F.);
#182=ORIENTED_EDGE('',*,*,#427,.F.);
#183=ORIENTED_EDGE('',*,*,#424,.T.);
#184=ORIENTED_EDGE('',*,*,#427,.T.);
#185=ORIENTED_EDGE('',*,*,#425,.F.);
#186=ORIENTED_EDGE('',*,*,#368,.F.);
#187=ORIENTED_EDGE('',*,*,#405,.F.);
#188=ORIENTED_EDGE('',*,*,#428,.F.);
#189=ORIENTED_EDGE('',*,*,#429,.T.);
#190=ORIENTED_EDGE('',*,*,#347,.T.);
#191=ORIENTED_EDGE('',*,*,#428,.T.);
#192=ORIENTED_EDGE('',*,*,#404,.T.);
#193=ORIENTED_EDGE('',*,*,#430,.F.);
#194=ORIENTED_EDGE('',*,*,#431,.F.);
#195=ORIENTED_EDGE('',*,*,#430,.T.);
#196=ORIENTED_EDGE('',*,*,#406,.T.);
#197=ORIENTED_EDGE('',*,*,#349,.F.);
#198=ORIENTED_EDGE('',*,*,#432,.F.);
#199=ORIENTED_EDGE('',*,*,#429,.F.);
#200=ORIENTED_EDGE('',*,*,#431,.T.);
#201=ORIENTED_EDGE('',*,*,#432,.T.);
#202=ORIENTED_EDGE('',*,*,#348,.F.);
#203=ORIENTED_EDGE('',*,*,#386,.F.);
#204=ORIENTED_EDGE('',*,*,#379,.F.);
#205=ORIENTED_EDGE('',*,*,#433,.T.);
#206=ORIENTED_EDGE('',*,*,#434,.T.);
#207=ORIENTED_EDGE('',*,*,#388,.T.);
#208=ORIENTED_EDGE('',*,*,#435,.F.);
#209=ORIENTED_EDGE('',*,*,#436,.F.);
#210=ORIENTED_EDGE('',*,*,#377,.T.);
#211=ORIENTED_EDGE('',*,*,#387,.F.);
#212=ORIENTED_EDGE('',*,*,#434,.F.);
#213=ORIENTED_EDGE('',*,*,#437,.T.);
#214=ORIENTED_EDGE('',*,*,#435,.T.);
#215=ORIENTED_EDGE('',*,*,#433,.F.);
#216=ORIENTED_EDGE('',*,*,#378,.T.);
#217=ORIENTED_EDGE('',*,*,#436,.T.);
#218=ORIENTED_EDGE('',*,*,#437,.F.);
#219=ORIENTED_EDGE('',*,*,#401,.T.);
#220=ORIENTED_EDGE('',*,*,#438,.F.);
#221=ORIENTED_EDGE('',*,*,#439,.F.);
#222=ORIENTED_EDGE('',*,*,#357,.T.);
#223=ORIENTED_EDGE('',*,*,#403,.T.);
#224=ORIENTED_EDGE('',*,*,#440,.F.);
#225=ORIENTED_EDGE('',*,*,#441,.F.);
#226=ORIENTED_EDGE('',*,*,#438,.T.);
#227=ORIENTED_EDGE('',*,*,#402,.F.);
#228=ORIENTED_EDGE('',*,*,#359,.F.);
#229=ORIENTED_EDGE('',*,*,#442,.T.);
#230=ORIENTED_EDGE('',*,*,#440,.T.);
#231=ORIENTED_EDGE('',*,*,#358,.F.);
#232=ORIENTED_EDGE('',*,*,#439,.T.);
#233=ORIENTED_EDGE('',*,*,#441,.T.);
#234=ORIENTED_EDGE('',*,*,#442,.F.);
#235=ORIENTED_EDGE('',*,*,#411,.T.);
#236=ORIENTED_EDGE('',*,*,#443,.T.);
#237=ORIENTED_EDGE('',*,*,#398,.F.);
#238=ORIENTED_EDGE('',*,*,#444,.T.);
#239=ORIENTED_EDGE('',*,*,#445,.F.);
#240=ORIENTED_EDGE('',*,*,#417,.F.);
#241=ORIENTED_EDGE('',*,*,#446,.F.);
#242=ORIENTED_EDGE('',*,*,#399,.F.);
#243=ORIENTED_EDGE('',*,*,#444,.F.);
#244=ORIENTED_EDGE('',*,*,#397,.F.);
#245=ORIENTED_EDGE('',*,*,#446,.T.);
#246=ORIENTED_EDGE('',*,*,#416,.F.);
#247=ORIENTED_EDGE('',*,*,#447,.F.);
#248=ORIENTED_EDGE('',*,*,#390,.F.);
#249=ORIENTED_EDGE('',*,*,#445,.T.);
#250=ORIENTED_EDGE('',*,*,#408,.F.);
#251=ORIENTED_EDGE('',*,*,#448,.F.);
#252=ORIENTED_EDGE('',*,*,#414,.F.);
#253=ORIENTED_EDGE('',*,*,#447,.T.);
#254=ORIENTED_EDGE('',*,*,#415,.F.);
#255=ORIENTED_EDGE('',*,*,#448,.T.);
#256=ORIENTED_EDGE('',*,*,#412,.F.);
#257=ORIENTED_EDGE('',*,*,#443,.F.);
#258=ORIENTED_EDGE('',*,*,#410,.F.);
#259=ORIENTED_EDGE('',*,*,#449,.F.);
#260=ORIENTED_EDGE('',*,*,#400,.F.);
#261=ORIENTED_EDGE('',*,*,#450,.F.);
#262=ORIENTED_EDGE('',*,*,#422,.F.);
#263=ORIENTED_EDGE('',*,*,#450,.T.);
#264=ORIENTED_EDGE('',*,*,#392,.F.);
#265=ORIENTED_EDGE('',*,*,#451,.F.);
#266=ORIENTED_EDGE('',*,*,#419,.F.);
#267=ORIENTED_EDGE('',*,*,#449,.T.);
#268=ORIENTED_EDGE('',*,*,#421,.F.);
#269=ORIENTED_EDGE('',*,*,#452,.F.);
#270=ORIENTED_EDGE('',*,*,#409,.F.);
#271=ORIENTED_EDGE('',*,*,#451,.T.);
#272=ORIENTED_EDGE('',*,*,#413,.F.);
#273=ORIENTED_EDGE('',*,*,#452,.T.);
#274=ORIENTED_EDGE('',*,*,#420,.F.);
#275=ORIENTED_EDGE('',*,*,#453,.T.);
#276=ORIENTED_EDGE('',*,*,#418,.F.);
#277=ORIENTED_EDGE('',*,*,#453,.F.);
#278=ORIENTED_EDGE('',*,*,#371,.F.);
#279=ORIENTED_EDGE('',*,*,#454,.T.);
#280=ORIENTED_EDGE('',*,*,#380,.T.);
#281=ORIENTED_EDGE('',*,*,#455,.F.);
#282=ORIENTED_EDGE('',*,*,#372,.F.);
#283=ORIENTED_EDGE('',*,*,#455,.T.);
#284=ORIENTED_EDGE('',*,*,#385,.T.);
#285=ORIENTED_EDGE('',*,*,#456,.F.);
#286=ORIENTED_EDGE('',*,*,#373,.F.);
#287=ORIENTED_EDGE('',*,*,#456,.T.);
#288=ORIENTED_EDGE('',*,*,#384,.T.);
#289=ORIENTED_EDGE('',*,*,#457,.F.);
#290=ORIENTED_EDGE('',*,*,#374,.F.);
#291=ORIENTED_EDGE('',*,*,#457,.T.);
#292=ORIENTED_EDGE('',*,*,#383,.T.);
#293=ORIENTED_EDGE('',*,*,#458,.F.);
#294=ORIENTED_EDGE('',*,*,#375,.F.);
#295=ORIENTED_EDGE('',*,*,#458,.T.);
#296=ORIENTED_EDGE('',*,*,#382,.T.);
#297=ORIENTED_EDGE('',*,*,#459,.F.);
#298=ORIENTED_EDGE('',*,*,#370,.F.);
#299=ORIENTED_EDGE('',*,*,#459,.T.);
#300=ORIENTED_EDGE('',*,*,#381,.T.);
#301=ORIENTED_EDGE('',*,*,#454,.F.);
#302=ORIENTED_EDGE('',*,*,#361,.F.);
#303=ORIENTED_EDGE('',*,*,#460,.T.);
#304=ORIENTED_EDGE('',*,*,#351,.T.);
#305=ORIENTED_EDGE('',*,*,#461,.F.);
#306=ORIENTED_EDGE('',*,*,#362,.F.);
#307=ORIENTED_EDGE('',*,*,#461,.T.);
#308=ORIENTED_EDGE('',*,*,#350,.T.);
#309=ORIENTED_EDGE('',*,*,#462,.F.);
#310=ORIENTED_EDGE('',*,*,#363,.F.);
#311=ORIENTED_EDGE('',*,*,#462,.T.);
#312=ORIENTED_EDGE('',*,*,#355,.T.);
#313=ORIENTED_EDGE('',*,*,#463,.F.);
#314=ORIENTED_EDGE('',*,*,#364,.F.);
#315=ORIENTED_EDGE('',*,*,#463,.T.);
#316=ORIENTED_EDGE('',*,*,#354,.T.);
#317=ORIENTED_EDGE('',*,*,#464,.F.);
#318=ORIENTED_EDGE('',*,*,#365,.F.);
#319=ORIENTED_EDGE('',*,*,#464,.T.);
#320=ORIENTED_EDGE('',*,*,#353,.T.);
#321=ORIENTED_EDGE('',*,*,#465,.F.);
#322=ORIENTED_EDGE('',*,*,#360,.F.);
#323=ORIENTED_EDGE('',*,*,#465,.T.);
#324=ORIENTED_EDGE('',*,*,#352,.T.);
#325=ORIENTED_EDGE('',*,*,#460,.F.);
#326=EDGE_CURVE('',#466,#467,#556,.T.);
#327=EDGE_CURVE('',#466,#468,#557,.T.);
#328=EDGE_CURVE('',#468,#469,#558,.T.);
#329=EDGE_CURVE('',#467,#469,#559,.T.);
#330=EDGE_CURVE('',#470,#471,#560,.T.);
#331=EDGE_CURVE('',#470,#466,#561,.T.);
#332=EDGE_CURVE('',#467,#471,#562,.T.);
#333=EDGE_CURVE('',#472,#473,#563,.T.);
#334=EDGE_CURVE('',#472,#470,#564,.T.);
#335=EDGE_CURVE('',#471,#473,#565,.T.);
#336=EDGE_CURVE('',#468,#472,#566,.T.);
#337=EDGE_CURVE('',#469,#473,#567,.T.);
#338=EDGE_CURVE('',#474,#475,#568,.T.);
#339=EDGE_CURVE('',#475,#476,#569,.T.);
#340=EDGE_CURVE('',#476,#477,#570,.T.);
#341=EDGE_CURVE('',#477,#474,#571,.T.);
#342=EDGE_CURVE('',#474,#470,#572,.T.);
#343=EDGE_CURVE('',#466,#477,#573,.T.);
#344=EDGE_CURVE('',#468,#476,#574,.F.);
#345=EDGE_CURVE('',#475,#472,#575,.T.);
#346=EDGE_CURVE('',#478,#479,#576,.T.);
#347=EDGE_CURVE('',#480,#478,#577,.T.);
#348=EDGE_CURVE('',#480,#481,#578,.T.);
#349=EDGE_CURVE('',#481,#479,#579,.T.);
#350=EDGE_CURVE('',#482,#483,#580,.T.);
#351=EDGE_CURVE('',#484,#482,#581,.T.);
#352=EDGE_CURVE('',#485,#484,#582,.T.);
#353=EDGE_CURVE('',#486,#485,#583,.T.);
#354=EDGE_CURVE('',#487,#486,#584,.T.);
#355=EDGE_CURVE('',#483,#487,#585,.T.);
#356=EDGE_CURVE('',#488,#489,#586,.T.);
#357=EDGE_CURVE('',#490,#488,#587,.T.);
#358=EDGE_CURVE('',#490,#491,#588,.T.);
#359=EDGE_CURVE('',#491,#489,#589,.T.);
#360=EDGE_CURVE('',#492,#493,#590,.T.);
#361=EDGE_CURVE('',#493,#494,#591,.T.);
#362=EDGE_CURVE('',#494,#495,#592,.T.);
#363=EDGE_CURVE('',#495,#496,#593,.T.);
#364=EDGE_CURVE('',#496,#497,#594,.T.);
#365=EDGE_CURVE('',#497,#492,#595,.T.);
#366=EDGE_CURVE('',#498,#499,#596,.T.);
#367=EDGE_CURVE('',#500,#498,#597,.T.);
#368=EDGE_CURVE('',#500,#501,#598,.T.);
#369=EDGE_CURVE('',#501,#499,#599,.T.);
#370=EDGE_CURVE('',#502,#503,#600,.T.);
#371=EDGE_CURVE('',#503,#504,#601,.T.);
#372=EDGE_CURVE('',#504,#505,#602,.T.);
#373=EDGE_CURVE('',#505,#506,#603,.T.);
#374=EDGE_CURVE('',#506,#507,#604,.T.);
#375=EDGE_CURVE('',#507,#502,#605,.T.);
#376=EDGE_CURVE('',#508,#509,#606,.T.);
#377=EDGE_CURVE('',#510,#509,#607,.T.);
#378=EDGE_CURVE('',#511,#510,#608,.T.);
#379=EDGE_CURVE('',#511,#508,#609,.T.);
#380=EDGE_CURVE('',#512,#513,#610,.T.);
#381=EDGE_CURVE('',#514,#512,#611,.T.);
#382=EDGE_CURVE('',#515,#514,#612,.T.);
#383=EDGE_CURVE('',#516,#515,#613,.T.);
#384=EDGE_CURVE('',#517,#516,#614,.T.);
#385=EDGE_CURVE('',#513,#517,#615,.T.);
#386=EDGE_CURVE('',#508,#518,#616,.T.);
#387=EDGE_CURVE('',#518,#519,#617,.T.);
#388=EDGE_CURVE('',#509,#519,#618,.T.);
#389=EDGE_CURVE('',#520,#521,#619,.T.);
#390=EDGE_CURVE('',#520,#522,#620,.F.);
#391=EDGE_CURVE('',#522,#523,#621,.T.);
#392=EDGE_CURVE('',#523,#521,#622,.T.);
#393=EDGE_CURVE('',#498,#524,#623,.T.);
#394=EDGE_CURVE('',#499,#525,#624,.T.);
#395=EDGE_CURVE('',#524,#525,#625,.T.);
#396=EDGE_CURVE('',#526,#527,#626,.T.);
#397=EDGE_CURVE('',#526,#528,#627,.F.);
#398=EDGE_CURVE('',#528,#529,#30,.T.);
#399=EDGE_CURVE('',#529,#520,#628,.F.);
#400=EDGE_CURVE('',#521,#527,#629,.T.);
#401=EDGE_CURVE('',#488,#530,#630,.T.);
#402=EDGE_CURVE('',#489,#531,#631,.T.);
#403=EDGE_CURVE('',#530,#531,#632,.T.);
#404=EDGE_CURVE('',#532,#533,#633,.T.);
#405=EDGE_CURVE('',#532,#478,#634,.T.);
#406=EDGE_CURVE('',#533,#479,#635,.T.);
#407=EDGE_CURVE('',#534,#535,#636,.T.);
#408=EDGE_CURVE('',#534,#526,#637,.F.);
#409=EDGE_CURVE('',#527,#535,#638,.T.);
#410=EDGE_CURVE('',#522,#536,#639,.T.);
#411=EDGE_CURVE('',#537,#536,#31,.T.);
#412=EDGE_CURVE('',#537,#534,#640,.T.);
#413=EDGE_CURVE('',#535,#523,#641,.F.);
#414=EDGE_CURVE('',#538,#539,#642,.T.);
#415=EDGE_CURVE('',#539,#540,#643,.F.);
#416=EDGE_CURVE('',#540,#541,#644,.T.);
#417=EDGE_CURVE('',#541,#538,#645,.T.);
#418=EDGE_CURVE('',#542,#542,#32,.T.);
#419=EDGE_CURVE('',#543,#544,#646,.F.);
#420=EDGE_CURVE('',#544,#545,#647,.T.);
#421=EDGE_CURVE('',#545,#546,#648,.F.);
#422=EDGE_CURVE('',#546,#543,#649,.F.);
#423=EDGE_CURVE('',#547,#524,#650,.T.);
#424=EDGE_CURVE('',#500,#547,#651,.T.);
#425=EDGE_CURVE('',#501,#548,#652,.T.);
#426=EDGE_CURVE('',#548,#525,#653,.T.);
#427=EDGE_CURVE('',#547,#548,#654,.T.);
#428=EDGE_CURVE('',#549,#532,#655,.T.);
#429=EDGE_CURVE('',#549,#480,#656,.T.);
#430=EDGE_CURVE('',#550,#533,#657,.T.);
#431=EDGE_CURVE('',#549,#550,#658,.T.);
#432=EDGE_CURVE('',#550,#481,#659,.T.);
#433=EDGE_CURVE('',#511,#551,#660,.T.);
#434=EDGE_CURVE('',#551,#518,#661,.T.);
#435=EDGE_CURVE('',#552,#519,#662,.T.);
#436=EDGE_CURVE('',#510,#552,#663,.T.);
#437=EDGE_CURVE('',#551,#552,#664,.T.);
#438=EDGE_CURVE('',#553,#530,#665,.T.);
#439=EDGE_CURVE('',#490,#553,#666,.T.);
#440=EDGE_CURVE('',#554,#531,#667,.T.);
#441=EDGE_CURVE('',#553,#554,#668,.T.);
#442=EDGE_CURVE('',#491,#554,#669,.T.);
#443=EDGE_CURVE('',#536,#537,#18,.T.);
#444=EDGE_CURVE('',#528,#529,#19,.T.);
#445=EDGE_CURVE('',#538,#526,#10,.F.);
#446=EDGE_CURVE('',#520,#541,#11,.T.);
#447=EDGE_CURVE('',#522,#540,#12,.T.);
#448=EDGE_CURVE('',#539,#534,#13,.F.);
#449=EDGE_CURVE('',#527,#546,#14,.T.);
#450=EDGE_CURVE('',#543,#521,#15,.F.);
#451=EDGE_CURVE('',#544,#523,#16,.F.);
#452=EDGE_CURVE('',#535,#545,#17,.T.);
#453=EDGE_CURVE('',#555,#555,#33,.T.);
#454=EDGE_CURVE('',#503,#512,#670,.T.);
#455=EDGE_CURVE('',#504,#513,#671,.T.);
#456=EDGE_CURVE('',#505,#517,#672,.T.);
#457=EDGE_CURVE('',#506,#516,#673,.T.);
#458=EDGE_CURVE('',#507,#515,#674,.T.);
#459=EDGE_CURVE('',#502,#514,#675,.T.);
#460=EDGE_CURVE('',#493,#484,#676,.T.);
#461=EDGE_CURVE('',#494,#482,#677,.T.);
#462=EDGE_CURVE('',#495,#483,#678,.T.);
#463=EDGE_CURVE('',#496,#487,#679,.T.);
#464=EDGE_CURVE('',#497,#486,#680,.T.);
#465=EDGE_CURVE('',#492,#485,#681,.T.);
#466=VERTEX_POINT('',#1432);
#467=VERTEX_POINT('',#1433);
#468=VERTEX_POINT('',#1435);
#469=VERTEX_POINT('',#1437);
#470=VERTEX_POINT('',#1441);
#471=VERTEX_POINT('',#1442);
#472=VERTEX_POINT('',#1447);
#473=VERTEX_POINT('',#1448);
#474=VERTEX_POINT('',#1456);
#475=VERTEX_POINT('',#1457);
#476=VERTEX_POINT('',#1459);
#477=VERTEX_POINT('',#1461);
#478=VERTEX_POINT('',#1475);
#479=VERTEX_POINT('',#1476);
#480=VERTEX_POINT('',#1478);
#481=VERTEX_POINT('',#1480);
#482=VERTEX_POINT('',#1483);
#483=VERTEX_POINT('',#1484);
#484=VERTEX_POINT('',#1486);
#485=VERTEX_POINT('',#1488);
#486=VERTEX_POINT('',#1490);
#487=VERTEX_POINT('',#1492);
#488=VERTEX_POINT('',#1496);
#489=VERTEX_POINT('',#1497);
#490=VERTEX_POINT('',#1499);
#491=VERTEX_POINT('',#1501);
#492=VERTEX_POINT('',#1504);
#493=VERTEX_POINT('',#1505);
#494=VERTEX_POINT('',#1507);
#495=VERTEX_POINT('',#1509);
#496=VERTEX_POINT('',#1511);
#497=VERTEX_POINT('',#1513);
#498=VERTEX_POINT('',#1517);
#499=VERTEX_POINT('',#1518);
#500=VERTEX_POINT('',#1520);
#501=VERTEX_POINT('',#1522);
#502=VERTEX_POINT('',#1525);
#503=VERTEX_POINT('',#1526);
#504=VERTEX_POINT('',#1528);
#505=VERTEX_POINT('',#1530);
#506=VERTEX_POINT('',#1532);
#507=VERTEX_POINT('',#1534);
#508=VERTEX_POINT('',#1538);
#509=VERTEX_POINT('',#1539);
#510=VERTEX_POINT('',#1541);
#511=VERTEX_POINT('',#1543);
#512=VERTEX_POINT('',#1546);
#513=VERTEX_POINT('',#1547);
#514=VERTEX_POINT('',#1549);
#515=VERTEX_POINT('',#1551);
#516=VERTEX_POINT('',#1553);
#517=VERTEX_POINT('',#1555);
#518=VERTEX_POINT('',#1559);
#519=VERTEX_POINT('',#1561);
#520=VERTEX_POINT('',#1564);
#521=VERTEX_POINT('',#1565);
#522=VERTEX_POINT('',#1567);
#523=VERTEX_POINT('',#1569);
#524=VERTEX_POINT('',#1572);
#525=VERTEX_POINT('',#1574);
#526=VERTEX_POINT('',#1578);
#527=VERTEX_POINT('',#1579);
#528=VERTEX_POINT('',#1581);
#529=VERTEX_POINT('',#1583);
#530=VERTEX_POINT('',#1588);
#531=VERTEX_POINT('',#1590);
#532=VERTEX_POINT('',#1593);
#533=VERTEX_POINT('',#1594);
#534=VERTEX_POINT('',#1598);
#535=VERTEX_POINT('',#1599);
#536=VERTEX_POINT('',#1604);
#537=VERTEX_POINT('',#1606);
#538=VERTEX_POINT('',#1611);
#539=VERTEX_POINT('',#1612);
#540=VERTEX_POINT('',#1614);
#541=VERTEX_POINT('',#1616);
#542=VERTEX_POINT('',#1620);
#543=VERTEX_POINT('',#1622);
#544=VERTEX_POINT('',#1623);
#545=VERTEX_POINT('',#1625);
#546=VERTEX_POINT('',#1627);
#547=VERTEX_POINT('',#1631);
#548=VERTEX_POINT('',#1635);
#549=VERTEX_POINT('',#1642);
#550=VERTEX_POINT('',#1646);
#551=VERTEX_POINT('',#1653);
#552=VERTEX_POINT('',#1657);
#553=VERTEX_POINT('',#1664);
#554=VERTEX_POINT('',#1668);
#555=VERTEX_POINT('',#1718);
#556=LINE('',#1431,#682);
#557=LINE('',#1434,#683);
#558=LINE('',#1436,#684);
#559=LINE('',#1438,#685);
#560=LINE('',#1440,#686);
#561=LINE('',#1443,#687);
#562=LINE('',#1444,#688);
#563=LINE('',#1446,#689);
#564=LINE('',#1449,#690);
#565=LINE('',#1450,#691);
#566=LINE('',#1452,#692);
#567=LINE('',#1453,#693);
#568=LINE('',#1455,#694);
#569=LINE('',#1458,#695);
#570=LINE('',#1460,#696);
#571=LINE('',#1462,#697);
#572=LINE('',#1465,#698);
#573=LINE('',#1466,#699);
#574=LINE('',#1468,#700);
#575=LINE('',#1470,#701);
#576=LINE('',#1474,#702);
#577=LINE('',#1477,#703);
#578=LINE('',#1479,#704);
#579=LINE('',#1481,#705);
#580=LINE('',#1482,#706);
#581=LINE('',#1485,#707);
#582=LINE('',#1487,#708);
#583=LINE('',#1489,#709);
#584=LINE('',#1491,#710);
#585=LINE('',#1493,#711);
#586=LINE('',#1495,#712);
#587=LINE('',#1498,#713);
#588=LINE('',#1500,#714);
#589=LINE('',#1502,#715);
#590=LINE('',#1503,#716);
#591=LINE('',#1506,#717);
#592=LINE('',#1508,#718);
#593=LINE('',#1510,#719);
#594=LINE('',#1512,#720);
#595=LINE('',#1514,#721);
#596=LINE('',#1516,#722);
#597=LINE('',#1519,#723);
#598=LINE('',#1521,#724);
#599=LINE('',#1523,#725);
#600=LINE('',#1524,#726);
#601=LINE('',#1527,#727);
#602=LINE('',#1529,#728);
#603=LINE('',#1531,#729);
#604=LINE('',#1533,#730);
#605=LINE('',#1535,#731);
#606=LINE('',#1537,#732);
#607=LINE('',#1540,#733);
#608=LINE('',#1542,#734);
#609=LINE('',#1544,#735);
#610=LINE('',#1545,#736);
#611=LINE('',#1548,#737);
#612=LINE('',#1550,#738);
#613=LINE('',#1552,#739);
#614=LINE('',#1554,#740);
#615=LINE('',#1556,#741);
#616=LINE('',#1558,#742);
#617=LINE('',#1560,#743);
#618=LINE('',#1562,#744);
#619=LINE('',#1563,#745);
#620=LINE('',#1566,#746);
#621=LINE('',#1568,#747);
#622=LINE('',#1570,#748);
#623=LINE('',#1571,#749);
#624=LINE('',#1573,#750);
#625=LINE('',#1575,#751);
#626=LINE('',#1577,#752);
#627=LINE('',#1580,#753);
#628=LINE('',#1584,#754);
#629=LINE('',#1585,#755);
#630=LINE('',#1587,#756);
#631=LINE('',#1589,#757);
#632=LINE('',#1591,#758);
#633=LINE('',#1592,#759);
#634=LINE('',#1595,#760);
#635=LINE('',#1596,#761);
#636=LINE('',#1597,#762);
#637=LINE('',#1600,#763);
#638=LINE('',#1601,#764);
#639=LINE('',#1603,#765);
#640=LINE('',#1607,#766);
#641=LINE('',#1608,#767);
#642=LINE('',#1610,#768);
#643=LINE('',#1613,#769);
#644=LINE('',#1615,#770);
#645=LINE('',#1617,#771);
#646=LINE('',#1621,#772);
#647=LINE('',#1624,#773);
#648=LINE('',#1626,#774);
#649=LINE('',#1628,#775);
#650=LINE('',#1630,#776);
#651=LINE('',#1632,#777);
#652=LINE('',#1634,#778);
#653=LINE('',#1636,#779);
#654=LINE('',#1638,#780);
#655=LINE('',#1641,#781);
#656=LINE('',#1643,#782);
#657=LINE('',#1645,#783);
#658=LINE('',#1647,#784);
#659=LINE('',#1649,#785);
#660=LINE('',#1652,#786);
#661=LINE('',#1654,#787);
#662=LINE('',#1656,#788);
#663=LINE('',#1658,#789);
#664=LINE('',#1660,#790);
#665=LINE('',#1663,#791);
#666=LINE('',#1665,#792);
#667=LINE('',#1667,#793);
#668=LINE('',#1669,#794);
#669=LINE('',#1671,#795);
#670=LINE('',#1721,#796);
#671=LINE('',#1722,#797);
#672=LINE('',#1724,#798);
#673=LINE('',#1726,#799);
#674=LINE('',#1728,#800);
#675=LINE('',#1730,#801);
#676=LINE('',#1733,#802);
#677=LINE('',#1734,#803);
#678=LINE('',#1736,#804);
#679=LINE('',#1738,#805);
#680=LINE('',#1740,#806);
#681=LINE('',#1742,#807);
#682=VECTOR('',#1159,1.);
#683=VECTOR('',#1160,1.);
#684=VECTOR('',#1161,1.);
#685=VECTOR('',#1162,1.);
#686=VECTOR('',#1165,1.);
#687=VECTOR('',#1166,1.);
#688=VECTOR('',#1167,1.);
#689=VECTOR('',#1170,1.);
#690=VECTOR('',#1171,1.);
#691=VECTOR('',#1172,1.);
#692=VECTOR('',#1175,1.);
#693=VECTOR('',#1176,1.);
#694=VECTOR('',#1179,1.);
#695=VECTOR('',#1180,1.);
#696=VECTOR('',#1181,1.);
#697=VECTOR('',#1182,1.);
#698=VECTOR('',#1187,1.);
#699=VECTOR('',#1188,1.);
#700=VECTOR('',#1191,1.);
#701=VECTOR('',#1194,1.);
#702=VECTOR('',#1201,1.);
#703=VECTOR('',#1202,1.);
#704=VECTOR('',#1203,1.);
#705=VECTOR('',#1204,1.);
#706=VECTOR('',#1205,1.);
#707=VECTOR('',#1206,1.);
#708=VECTOR('',#1207,1.);
#709=VECTOR('',#1208,1.);
#710=VECTOR('',#1209,1.);
#711=VECTOR('',#1210,1.);
#712=VECTOR('',#1213,1.);
#713=VECTOR('',#1214,1.);
#714=VECTOR('',#1215,1.);
#715=VECTOR('',#1216,1.);
#716=VECTOR('',#1217,1.);
#717=VECTOR('',#1218,1.);
#718=VECTOR('',#1219,1.);
#719=VECTOR('',#1220,1.);
#720=VECTOR('',#1221,1.);
#721=VECTOR('',#1222,1.);
#722=VECTOR('',#1225,1.);
#723=VECTOR('',#1226,1.);
#724=VECTOR('',#1227,1.);
#725=VECTOR('',#1228,1.);
#726=VECTOR('',#1229,1.);
#727=VECTOR('',#1230,1.);
#728=VECTOR('',#1231,1.);
#729=VECTOR('',#1232,1.);
#730=VECTOR('',#1233,1.);
#731=VECTOR('',#1234,1.);
#732=VECTOR('',#1237,1.);
#733=VECTOR('',#1238,1.);
#734=VECTOR('',#1239,1.);
#735=VECTOR('',#1240,1.);
#736=VECTOR('',#1241,1.);
#737=VECTOR('',#1242,1.);
#738=VECTOR('',#1243,1.);
#739=VECTOR('',#1244,1.);
#740=VECTOR('',#1245,1.);
#741=VECTOR('',#1246,1.);
#742=VECTOR('',#1249,1.);
#743=VECTOR('',#1250,1.);
#744=VECTOR('',#1251,1.);
#745=VECTOR('',#1252,1.);
#746=VECTOR('',#1253,1.);
#747=VECTOR('',#1254,1.);
#748=VECTOR('',#1255,1.);
#749=VECTOR('',#1256,1.);
#750=VECTOR('',#1257,1.);
#751=VECTOR('',#1258,1.);
#752=VECTOR('',#1261,1.);
#753=VECTOR('',#1262,1.);
#754=VECTOR('',#1265,1.);
#755=VECTOR('',#1266,1.);
#756=VECTOR('',#1269,1.);
#757=VECTOR('',#1270,1.);
#758=VECTOR('',#1271,1.);
#759=VECTOR('',#1272,1.);
#760=VECTOR('',#1273,1.);
#761=VECTOR('',#1274,1.);
#762=VECTOR('',#1275,1.);
#763=VECTOR('',#1276,1.);
#764=VECTOR('',#1277,1.);
#765=VECTOR('',#1280,1.);
#766=VECTOR('',#1283,1.);
#767=VECTOR('',#1284,1.);
#768=VECTOR('',#1287,1.);
#769=VECTOR('',#1288,1.);
#770=VECTOR('',#1289,1.);
#771=VECTOR('',#1290,1.);
#772=VECTOR('',#1295,1.);
#773=VECTOR('',#1296,1.);
#774=VECTOR('',#1297,1.);
#775=VECTOR('',#1298,1.);
#776=VECTOR('',#1301,1.);
#777=VECTOR('',#1302,1.);
#778=VECTOR('',#1305,1.);
#779=VECTOR('',#1306,1.);
#780=VECTOR('',#1309,1.);
#781=VECTOR('',#1314,1.);
#782=VECTOR('',#1315,1.);
#783=VECTOR('',#1318,1.);
#784=VECTOR('',#1319,1.);
#785=VECTOR('',#1322,1.);
#786=VECTOR('',#1327,1.);
#787=VECTOR('',#1328,1.);
#788=VECTOR('',#1331,1.);
#789=VECTOR('',#1332,1.);
#790=VECTOR('',#1335,1.);
#791=VECTOR('',#1340,1.);
#792=VECTOR('',#1341,1.);
#793=VECTOR('',#1344,1.);
#794=VECTOR('',#1345,1.);
#795=VECTOR('',#1348,1.);
#796=VECTOR('',#1393,1.);
#797=VECTOR('',#1394,1.);
#798=VECTOR('',#1397,1.);
#799=VECTOR('',#1400,1.);
#800=VECTOR('',#1403,1.);
#801=VECTOR('',#1406,1.);
#802=VECTOR('',#1411,1.);
#803=VECTOR('',#1412,1.);
#804=VECTOR('',#1415,1.);
#805=VECTOR('',#1418,1.);
#806=VECTOR('',#1421,1.);
#807=VECTOR('',#1424,1.);
#808=EDGE_LOOP('',(#46,#47,#48,#49));
#809=EDGE_LOOP('',(#50,#51,#52,#53));
#810=EDGE_LOOP('',(#54,#55,#56,#57));
#811=EDGE_LOOP('',(#58,#59,#60,#61));
#812=EDGE_LOOP('',(#62,#63,#64,#65));
#813=EDGE_LOOP('',(#66,#67,#68,#69));
#814=EDGE_LOOP('',(#70,#71,#72,#73));
#815=EDGE_LOOP('',(#74,#75,#76,#77));
#816=EDGE_LOOP('',(#78,#79,#80,#81));
#817=EDGE_LOOP('',(#82,#83,#84,#85));
#818=EDGE_LOOP('',(#86,#87,#88,#89));
#819=EDGE_LOOP('',(#90,#91,#92,#93,#94,#95));
#820=EDGE_LOOP('',(#96,#97,#98,#99));
#821=EDGE_LOOP('',(#100,#101,#102,#103,#104,#105));
#822=EDGE_LOOP('',(#106,#107,#108,#109));
#823=EDGE_LOOP('',(#110,#111,#112,#113,#114,#115));
#824=EDGE_LOOP('',(#116,#117,#118,#119));
#825=EDGE_LOOP('',(#120,#121,#122,#123,#124,#125));
#826=EDGE_LOOP('',(#126,#127,#128,#129));
#827=EDGE_LOOP('',(#130,#131,#132,#133));
#828=EDGE_LOOP('',(#134,#135,#136,#137));
#829=EDGE_LOOP('',(#138,#139,#140,#141,#142,#143));
#830=EDGE_LOOP('',(#144,#145,#146,#147));
#831=EDGE_LOOP('',(#148,#149,#150,#151));
#832=EDGE_LOOP('',(#152,#153,#154,#155));
#833=EDGE_LOOP('',(#156,#157,#158,#159,#160,#161));
#834=EDGE_LOOP('',(#162,#163,#164,#165));
#835=EDGE_LOOP('',(#166));
#836=EDGE_LOOP('',(#167,#168,#169,#170));
#837=EDGE_LOOP('',(#171,#172,#173,#174));
#838=EDGE_LOOP('',(#175,#176,#177,#178));
#839=EDGE_LOOP('',(#179,#180,#181,#182));
#840=EDGE_LOOP('',(#183,#184,#185,#186));
#841=EDGE_LOOP('',(#187,#188,#189,#190));
#842=EDGE_LOOP('',(#191,#192,#193,#194));
#843=EDGE_LOOP('',(#195,#196,#197,#198));
#844=EDGE_LOOP('',(#199,#200,#201,#202));
#845=EDGE_LOOP('',(#203,#204,#205,#206));
#846=EDGE_LOOP('',(#207,#208,#209,#210));
#847=EDGE_LOOP('',(#211,#212,#213,#214));
#848=EDGE_LOOP('',(#215,#216,#217,#218));
#849=EDGE_LOOP('',(#219,#220,#221,#222));
#850=EDGE_LOOP('',(#223,#224,#225,#226));
#851=EDGE_LOOP('',(#227,#228,#229,#230));
#852=EDGE_LOOP('',(#231,#232,#233,#234));
#853=EDGE_LOOP('',(#235,#236));
#854=EDGE_LOOP('',(#237,#238));
#855=EDGE_LOOP('',(#239,#240,#241,#242,#243,#244));
#856=EDGE_LOOP('',(#245,#246,#247,#248));
#857=EDGE_LOOP('',(#249,#250,#251,#252));
#858=EDGE_LOOP('',(#253,#254,#255,#256,#257,#258));
#859=EDGE_LOOP('',(#259,#260,#261,#262));
#860=EDGE_LOOP('',(#263,#264,#265,#266));
#861=EDGE_LOOP('',(#267,#268,#269,#270));
#862=EDGE_LOOP('',(#271,#272,#273,#274));
#863=EDGE_LOOP('',(#275));
#864=EDGE_LOOP('',(#276));
#865=EDGE_LOOP('',(#277));
#866=EDGE_LOOP('',(#278,#279,#280,#281));
#867=EDGE_LOOP('',(#282,#283,#284,#285));
#868=EDGE_LOOP('',(#286,#287,#288,#289));
#869=EDGE_LOOP('',(#290,#291,#292,#293));
#870=EDGE_LOOP('',(#294,#295,#296,#297));
#871=EDGE_LOOP('',(#298,#299,#300,#301));
#872=EDGE_LOOP('',(#302,#303,#304,#305));
#873=EDGE_LOOP('',(#306,#307,#308,#309));
#874=EDGE_LOOP('',(#310,#311,#312,#313));
#875=EDGE_LOOP('',(#314,#315,#316,#317));
#876=EDGE_LOOP('',(#318,#319,#320,#321));
#877=EDGE_LOOP('',(#322,#323,#324,#325));
#878=FACE_BOUND('',#808,.T.);
#879=FACE_BOUND('',#809,.T.);
#880=FACE_BOUND('',#810,.T.);
#881=FACE_BOUND('',#811,.T.);
#882=FACE_BOUND('',#812,.T.);
#883=FACE_BOUND('',#813,.T.);
#884=FACE_BOUND('',#814,.T.);
#885=FACE_BOUND('',#815,.T.);
#886=FACE_BOUND('',#816,.T.);
#887=FACE_BOUND('',#817,.T.);
#888=FACE_BOUND('',#818,.T.);
#889=FACE_BOUND('',#819,.T.);
#890=FACE_BOUND('',#820,.T.);
#891=FACE_BOUND('',#821,.T.);
#892=FACE_BOUND('',#822,.T.);
#893=FACE_BOUND('',#823,.T.);
#894=FACE_BOUND('',#824,.T.);
#895=FACE_BOUND('',#825,.T.);
#896=FACE_BOUND('',#826,.T.);
#897=FACE_BOUND('',#827,.T.);
#898=FACE_BOUND('',#828,.T.);
#899=FACE_BOUND('',#829,.T.);
#900=FACE_BOUND('',#830,.T.);
#901=FACE_BOUND('',#831,.T.);
#902=FACE_BOUND('',#832,.T.);
#903=FACE_BOUND('',#833,.T.);
#904=FACE_BOUND('',#834,.T.);
#905=FACE_BOUND('',#835,.T.);
#906=FACE_BOUND('',#836,.T.);
#907=FACE_BOUND('',#837,.T.);
#908=FACE_BOUND('',#838,.T.);
#909=FACE_BOUND('',#839,.T.);
#910=FACE_BOUND('',#840,.T.);
#911=FACE_BOUND('',#841,.T.);
#912=FACE_BOUND('',#842,.T.);
#913=FACE_BOUND('',#843,.T.);
#914=FACE_BOUND('',#844,.T.);
#915=FACE_BOUND('',#845,.T.);
#916=FACE_BOUND('',#846,.T.);
#917=FACE_BOUND('',#847,.T.);
#918=FACE_BOUND('',#848,.T.);
#919=FACE_BOUND('',#849,.T.);
#920=FACE_BOUND('',#850,.T.);
#921=FACE_BOUND('',#851,.T.);
#922=FACE_BOUND('',#852,.T.);
#923=FACE_BOUND('',#853,.T.);
#924=FACE_BOUND('',#854,.T.);
#925=FACE_BOUND('',#855,.T.);
#926=FACE_BOUND('',#856,.T.);
#927=FACE_BOUND('',#857,.T.);
#928=FACE_BOUND('',#858,.T.);
#929=FACE_BOUND('',#859,.T.);
#930=FACE_BOUND('',#860,.T.);
#931=FACE_BOUND('',#861,.T.);
#932=FACE_BOUND('',#862,.T.);
#933=FACE_BOUND('',#863,.T.);
#934=FACE_BOUND('',#864,.T.);
#935=FACE_BOUND('',#865,.T.);
#936=FACE_BOUND('',#866,.T.);
#937=FACE_BOUND('',#867,.T.);
#938=FACE_BOUND('',#868,.T.);
#939=FACE_BOUND('',#869,.T.);
#940=FACE_BOUND('',#870,.T.);
#941=FACE_BOUND('',#871,.T.);
#942=FACE_BOUND('',#872,.T.);
#943=FACE_BOUND('',#873,.T.);
#944=FACE_BOUND('',#874,.T.);
#945=FACE_BOUND('',#875,.T.);
#946=FACE_BOUND('',#876,.T.);
#947=FACE_BOUND('',#877,.T.);
#948=PLANE('',#1082);
#949=PLANE('',#1083);
#950=PLANE('',#1084);
#951=PLANE('',#1085);
#952=PLANE('',#1086);
#953=PLANE('',#1087);
#954=PLANE('',#1088);
#955=PLANE('',#1089);
#956=PLANE('',#1090);
#957=PLANE('',#1091);
#958=PLANE('',#1093);
#959=PLANE('',#1094);
#960=PLANE('',#1095);
#961=PLANE('',#1096);
#962=PLANE('',#1097);
#963=PLANE('',#1098);
#964=PLANE('',#1100);
#965=PLANE('',#1101);
#966=PLANE('',#1103);
#967=PLANE('',#1104);
#968=PLANE('',#1106);
#969=PLANE('',#1107);
#970=PLANE('',#1108);
#971=PLANE('',#1109);
#972=PLANE('',#1110);
#973=PLANE('',#1111);
#974=PLANE('',#1112);
#975=PLANE('',#1113);
#976=PLANE('',#1114);
#977=PLANE('',#1115);
#978=PLANE('',#1116);
#979=PLANE('',#1117);
#980=PLANE('',#1118);
#981=PLANE('',#1119);
#982=PLANE('',#1120);
#983=PLANE('',#1121);
#984=PLANE('',#1141);
#985=PLANE('',#1142);
#986=PLANE('',#1143);
#987=PLANE('',#1144);
#988=PLANE('',#1145);
#989=PLANE('',#1146);
#990=PLANE('',#1147);
#991=PLANE('',#1148);
#992=PLANE('',#1149);
#993=PLANE('',#1150);
#994=PLANE('',#1151);
#995=PLANE('',#1152);
#996=PLANE('',#1153);
#997=ADVANCED_FACE('',(#878),#948,.T.);
#998=ADVANCED_FACE('',(#879),#949,.F.);
#999=ADVANCED_FACE('',(#880),#950,.F.);
#1000=ADVANCED_FACE('',(#881),#951,.T.);
#1001=ADVANCED_FACE('',(#882),#952,.T.);
#1002=ADVANCED_FACE('',(#883),#953,.F.);
#1003=ADVANCED_FACE('',(#884),#954,.T.);
#1004=ADVANCED_FACE('',(#885),#955,.F.);
#1005=ADVANCED_FACE('',(#886),#956,.T.);
#1006=ADVANCED_FACE('',(#887),#957,.F.);
#1007=ADVANCED_FACE('',(#888,#889),#958,.T.);
#1008=ADVANCED_FACE('',(#890,#891),#959,.T.);
#1009=ADVANCED_FACE('',(#892,#893),#960,.T.);
#1010=ADVANCED_FACE('',(#894,#895),#961,.F.);
#1011=ADVANCED_FACE('',(#896,#897,#898),#962,.F.);
#1012=ADVANCED_FACE('',(#899),#963,.F.);
#1013=ADVANCED_FACE('',(#900,#901,#902),#964,.F.);
#1014=ADVANCED_FACE('',(#903),#965,.T.);
#1015=ADVANCED_FACE('',(#904),#966,.T.);
#1016=ADVANCED_FACE('',(#905,#906),#967,.F.);
#1017=ADVANCED_FACE('',(#907),#968,.F.);
#1018=ADVANCED_FACE('',(#908),#969,.T.);
#1019=ADVANCED_FACE('',(#909),#970,.F.);
#1020=ADVANCED_FACE('',(#910),#971,.F.);
#1021=ADVANCED_FACE('',(#911),#972,.T.);
#1022=ADVANCED_FACE('',(#912),#973,.F.);
#1023=ADVANCED_FACE('',(#913),#974,.F.);
#1024=ADVANCED_FACE('',(#914),#975,.T.);
#1025=ADVANCED_FACE('',(#915),#976,.T.);
#1026=ADVANCED_FACE('',(#916),#977,.F.);
#1027=ADVANCED_FACE('',(#917),#978,.T.);
#1028=ADVANCED_FACE('',(#918),#979,.T.);
#1029=ADVANCED_FACE('',(#919),#980,.F.);
#1030=ADVANCED_FACE('',(#920),#981,.F.);
#1031=ADVANCED_FACE('',(#921),#982,.T.);
#1032=ADVANCED_FACE('',(#922),#983,.T.);
#1033=ADVANCED_FACE('',(#923,#924),#20,.F.);
#1034=ADVANCED_FACE('',(#925),#21,.T.);
#1035=ADVANCED_FACE('',(#926),#22,.T.);
#1036=ADVANCED_FACE('',(#927),#23,.T.);
#1037=ADVANCED_FACE('',(#928),#24,.T.);
#1038=ADVANCED_FACE('',(#929),#25,.T.);
#1039=ADVANCED_FACE('',(#930),#26,.T.);
#1040=ADVANCED_FACE('',(#931),#27,.T.);
#1041=ADVANCED_FACE('',(#932),#28,.T.);
#1042=ADVANCED_FACE('',(#933,#934),#29,.F.);
#1043=ADVANCED_FACE('',(#935),#984,.F.);
#1044=ADVANCED_FACE('',(#936),#985,.F.);
#1045=ADVANCED_FACE('',(#937),#986,.F.);
#1046=ADVANCED_FACE('',(#938),#987,.F.);
#1047=ADVANCED_FACE('',(#939),#988,.F.);
#1048=ADVANCED_FACE('',(#940),#989,.F.);
#1049=ADVANCED_FACE('',(#941),#990,.F.);
#1050=ADVANCED_FACE('',(#942),#991,.F.);
#1051=ADVANCED_FACE('',(#943),#992,.F.);
#1052=ADVANCED_FACE('',(#944),#993,.F.);
#1053=ADVANCED_FACE('',(#945),#994,.F.);
#1054=ADVANCED_FACE('',(#946),#995,.F.);
#1055=ADVANCED_FACE('',(#947),#996,.F.);
#1056=CLOSED_SHELL('',(#997,#998,#999,#1000,#1001,#1002,#1003,#1004,#1005,
#1006));
#1057=CLOSED_SHELL('',(#1007,#1008,#1009,#1010,#1011,#1012,#1013,#1014,
#1015,#1016,#1017,#1018,#1019,#1020,#1021,#1022,#1023,#1024,#1025,#1026,
#1027,#1028,#1029,#1030,#1031,#1032,#1033,#1034,#1035,#1036,#1037,#1038,
#1039,#1040,#1041,#1042,#1043,#1044,#1045,#1046,#1047,#1048,#1049,#1050,
#1051,#1052,#1053,#1054,#1055));
#1058=STYLED_ITEM('',(#1060),#1073);
#1059=STYLED_ITEM('',(#1061),#1074);
#1060=PRESENTATION_STYLE_ASSIGNMENT((#1062));
#1061=PRESENTATION_STYLE_ASSIGNMENT((#1063));
#1062=SURFACE_STYLE_USAGE(.BOTH.,#1064);
#1063=SURFACE_STYLE_USAGE(.BOTH.,#1065);
#1064=SURFACE_SIDE_STYLE('',(#1066));
#1065=SURFACE_SIDE_STYLE('',(#1067));
#1066=SURFACE_STYLE_FILL_AREA(#1068);
#1067=SURFACE_STYLE_FILL_AREA(#1069);
#1068=FILL_AREA_STYLE('',(#1070));
#1069=FILL_AREA_STYLE('',(#1071));
#1070=FILL_AREA_STYLE_COLOUR('',#1072);
#1071=FILL_AREA_STYLE_COLOUR('',#1072);
#1072=COLOUR_RGB('',0.615686274509804,0.811764705882353,0.929411764705882);
#1073=MANIFOLD_SOLID_BREP('Part 1',#1056);
#1074=MANIFOLD_SOLID_BREP('Part 1',#1057);
#1075=SHAPE_DEFINITION_REPRESENTATION(#1755,#1078);
#1076=SHAPE_DEFINITION_REPRESENTATION(#1756,#1079);
#1077=SHAPE_DEFINITION_REPRESENTATION(#1758,#1080);
#1078=SHAPE_REPRESENTATION('Assembly Inmoov Hand',(#1081,#1092,#1154),#1746);
#1079=SHAPE_REPRESENTATION('Part 1',(#1081),#1747);
#1080=SHAPE_REPRESENTATION('Part 1',(#1081),#1748);
#1081=AXIS2_PLACEMENT_3D('',#1429,#1155,#1156);
#1082=AXIS2_PLACEMENT_3D('',#1430,#1157,#1158);
#1083=AXIS2_PLACEMENT_3D('',#1439,#1163,#1164);
#1084=AXIS2_PLACEMENT_3D('',#1445,#1168,#1169);
#1085=AXIS2_PLACEMENT_3D('',#1451,#1173,#1174);
#1086=AXIS2_PLACEMENT_3D('',#1454,#1177,#1178);
#1087=AXIS2_PLACEMENT_3D('',#1463,#1183,#1184);
#1088=AXIS2_PLACEMENT_3D('',#1464,#1185,#1186);
#1089=AXIS2_PLACEMENT_3D('',#1467,#1189,#1190);
#1090=AXIS2_PLACEMENT_3D('',#1469,#1192,#1193);
#1091=AXIS2_PLACEMENT_3D('',#1471,#1195,#1196);
#1092=AXIS2_PLACEMENT_3D('',#1472,#1197,#1198);
#1093=AXIS2_PLACEMENT_3D('',#1473,#1199,#1200);
#1094=AXIS2_PLACEMENT_3D('',#1494,#1211,#1212);
#1095=AXIS2_PLACEMENT_3D('',#1515,#1223,#1224);
#1096=AXIS2_PLACEMENT_3D('',#1536,#1235,#1236);
#1097=AXIS2_PLACEMENT_3D('',#1557,#1247,#1248);
#1098=AXIS2_PLACEMENT_3D('',#1576,#1259,#1260);
#1099=AXIS2_PLACEMENT_3D('',#1582,#1263,#1264);
#1100=AXIS2_PLACEMENT_3D('',#1586,#1267,#1268);
#1101=AXIS2_PLACEMENT_3D('',#1602,#1278,#1279);
#1102=AXIS2_PLACEMENT_3D('',#1605,#1281,#1282);
#1103=AXIS2_PLACEMENT_3D('',#1609,#1285,#1286);
#1104=AXIS2_PLACEMENT_3D('',#1618,#1291,#1292);
#1105=AXIS2_PLACEMENT_3D('',#1619,#1293,#1294);
#1106=AXIS2_PLACEMENT_3D('',#1629,#1299,#1300);
#1107=AXIS2_PLACEMENT_3D('',#1633,#1303,#1304);
#1108=AXIS2_PLACEMENT_3D('',#1637,#1307,#1308);
#1109=AXIS2_PLACEMENT_3D('',#1639,#1310,#1311);
#1110=AXIS2_PLACEMENT_3D('',#1640,#1312,#1313);
#1111=AXIS2_PLACEMENT_3D('',#1644,#1316,#1317);
#1112=AXIS2_PLACEMENT_3D('',#1648,#1320,#1321);
#1113=AXIS2_PLACEMENT_3D('',#1650,#1323,#1324);
#1114=AXIS2_PLACEMENT_3D('',#1651,#1325,#1326);
#1115=AXIS2_PLACEMENT_3D('',#1655,#1329,#1330);
#1116=AXIS2_PLACEMENT_3D('',#1659,#1333,#1334);
#1117=AXIS2_PLACEMENT_3D('',#1661,#1336,#1337);
#1118=AXIS2_PLACEMENT_3D('',#1662,#1338,#1339);
#1119=AXIS2_PLACEMENT_3D('',#1666,#1342,#1343);
#1120=AXIS2_PLACEMENT_3D('',#1670,#1346,#1347);
#1121=AXIS2_PLACEMENT_3D('',#1672,#1349,#1350);
#1122=AXIS2_PLACEMENT_3D('',#1673,#1351,#1352);
#1123=AXIS2_PLACEMENT_3D('',#1700,#1353,#1354);
#1124=AXIS2_PLACEMENT_3D('',#1701,#1355,#1356);
#1125=AXIS2_PLACEMENT_3D('',#1702,#1357,#1358);
#1126=AXIS2_PLACEMENT_3D('',#1703,#1359,#1360);
#1127=AXIS2_PLACEMENT_3D('',#1704,#1361,#1362);
#1128=AXIS2_PLACEMENT_3D('',#1705,#1363,#1364);
#1129=AXIS2_PLACEMENT_3D('',#1706,#1365,#1366);
#1130=AXIS2_PLACEMENT_3D('',#1707,#1367,#1368);
#1131=AXIS2_PLACEMENT_3D('',#1708,#1369,#1370);
#1132=AXIS2_PLACEMENT_3D('',#1709,#1371,#1372);
#1133=AXIS2_PLACEMENT_3D('',#1710,#1373,#1374);
#1134=AXIS2_PLACEMENT_3D('',#1711,#1375,#1376);
#1135=AXIS2_PLACEMENT_3D('',#1712,#1377,#1378);
#1136=AXIS2_PLACEMENT_3D('',#1713,#1379,#1380);
#1137=AXIS2_PLACEMENT_3D('',#1714,#1381,#1382);
#1138=AXIS2_PLACEMENT_3D('',#1715,#1383,#1384);
#1139=AXIS2_PLACEMENT_3D('',#1716,#1385,#1386);
#1140=AXIS2_PLACEMENT_3D('',#1717,#1387,#1388);
#1141=AXIS2_PLACEMENT_3D('',#1719,#1389,#1390);
#1142=AXIS2_PLACEMENT_3D('',#1720,#1391,#1392);
#1143=AXIS2_PLACEMENT_3D('',#1723,#1395,#1396);
#1144=AXIS2_PLACEMENT_3D('',#1725,#1398,#1399);
#1145=AXIS2_PLACEMENT_3D('',#1727,#1401,#1402);
#1146=AXIS2_PLACEMENT_3D('',#1729,#1404,#1405);
#1147=AXIS2_PLACEMENT_3D('',#1731,#1407,#1408);
#1148=AXIS2_PLACEMENT_3D('',#1732,#1409,#1410);
#1149=AXIS2_PLACEMENT_3D('',#1735,#1413,#1414);
#1150=AXIS2_PLACEMENT_3D('',#1737,#1416,#1417);
#1151=AXIS2_PLACEMENT_3D('',#1739,#1419,#1420);
#1152=AXIS2_PLACEMENT_3D('',#1741,#1422,#1423);
#1153=AXIS2_PLACEMENT_3D('',#1743,#1425,#1426);
#1154=AXIS2_PLACEMENT_3D('',#1744,#1427,#1428);
#1155=DIRECTION('',(0.,0.,1.));
#1156=DIRECTION('',(1.,0.,0.));
#1157=DIRECTION('',(0.,0.,1.));
#1158=DIRECTION('',(1.,0.,0.));
#1159=DIRECTION('',(-1.,0.,0.));
#1160=DIRECTION('',(0.,1.,0.));
#1161=DIRECTION('',(-1.,0.,0.));
#1162=DIRECTION('',(0.,1.,0.));
#1163=DIRECTION('',(0.,1.,0.));
#1164=DIRECTION('',(0.,0.,1.));
#1165=DIRECTION('',(-1.,0.,0.));
#1166=DIRECTION('',(0.,0.,1.));
#1167=DIRECTION('',(0.,0.,-1.));
#1168=DIRECTION('',(0.,0.,1.));
#1169=DIRECTION('',(1.,0.,0.));
#1170=DIRECTION('',(-1.,0.,0.));
#1171=DIRECTION('',(0.,-1.,0.));
#1172=DIRECTION('',(0.,1.,0.));
#1173=DIRECTION('',(0.,1.,0.));
#1174=DIRECTION('',(0.,0.,1.));
#1175=DIRECTION('',(0.,0.,-1.));
#1176=DIRECTION('',(0.,0.,-1.));
#1177=DIRECTION('',(1.,0.,0.));
#1178=DIRECTION('',(0.,1.,0.));
#1179=DIRECTION('',(0.,1.,0.));
#1180=DIRECTION('',(0.,0.,1.));
#1181=DIRECTION('',(0.,-1.,0.));
#1182=DIRECTION('',(0.,0.,-1.));
#1183=DIRECTION('',(1.,0.,0.));
#1184=DIRECTION('',(0.,1.,0.));
#1185=DIRECTION('',(0.707106781186548,-0.707106781186548,0.));
#1186=DIRECTION('',(0.,0.,1.));
#1187=DIRECTION('',(-0.577350269189626,-0.577350269189626,-0.577350269189626));
#1188=DIRECTION('',(0.577350269189626,0.577350269189626,-0.577350269189626));
#1189=DIRECTION('',(-0.707106781186548,0.,-0.707106781186548));
#1190=DIRECTION('',(0.,1.,0.));
#1191=DIRECTION('',(-0.577350269189626,0.577350269189626,0.577350269189626));
#1192=DIRECTION('',(0.707106781186548,0.,-0.707106781186548));
#1193=DIRECTION('',(0.,-1.,0.));
#1194=DIRECTION('',(-0.577350269189626,0.577350269189626,-0.577350269189626));
#1195=DIRECTION('',(-0.707106781186548,-0.707106781186548,0.));
#1196=DIRECTION('',(0.,0.,-1.));
#1197=DIRECTION('',(-0.0360181527247459,0.998265795792504,-0.0465627922815669));
#1198=DIRECTION('',(-0.466504801786022,-0.0580002444629154,-0.882615001885208));
#1199=DIRECTION('',(0.,0.,1.));
#1200=DIRECTION('',(1.,0.,0.));
#1201=DIRECTION('',(0.,1.,0.));
#1202=DIRECTION('',(-1.,0.,0.));
#1203=DIRECTION('',(0.,1.,0.));
#1204=DIRECTION('',(-1.,0.,0.));
#1205=DIRECTION('',(0.620774401200027,0.783989249170388,0.));
#1206=DIRECTION('',(0.989341806675457,-0.145611776873102,0.));
#1207=DIRECTION('',(0.368567405475431,-0.92960102604349,0.));
#1208=DIRECTION('',(-0.620774401200026,-0.783989249170389,0.));
#1209=DIRECTION('',(-0.989341806675457,0.145611776873102,0.));
#1210=DIRECTION('',(-0.368567405475432,0.92960102604349,0.));
#1211=DIRECTION('',(0.,0.,-1.));
#1212=DIRECTION('',(-1.,0.,0.));
#1213=DIRECTION('',(0.,-1.,0.));
#1214=DIRECTION('',(-1.,0.,0.));
#1215=DIRECTION('',(0.,-1.,0.));
#1216=DIRECTION('',(-1.,0.,0.));
#1217=DIRECTION('',(0.368567405475431,-0.92960102604349,0.));
#1218=DIRECTION('',(0.989341806675457,-0.145611776873102,0.));
#1219=DIRECTION('',(0.620774401200027,0.783989249170388,0.));
#1220=DIRECTION('',(-0.368567405475432,0.92960102604349,0.));
#1221=DIRECTION('',(-0.989341806675458,0.145611776873102,0.));
#1222=DIRECTION('',(-0.620774401200026,-0.783989249170389,0.));
#1223=DIRECTION('',(0.,0.,-1.));
#1224=DIRECTION('',(-1.,0.,0.));
#1225=DIRECTION('',(0.,1.,0.));
#1226=DIRECTION('',(1.,0.,0.));
#1227=DIRECTION('',(0.,1.,0.));
#1228=DIRECTION('',(1.,0.,0.));
#1229=DIRECTION('',(-0.866025403784439,0.5,0.));
#1230=DIRECTION('',(-0.866025403784439,-0.5,0.));
#1231=DIRECTION('',(0.,-1.,0.));
#1232=DIRECTION('',(0.866025403784439,-0.5,0.));
#1233=DIRECTION('',(0.866025403784439,0.5,0.));
#1234=DIRECTION('',(0.,1.,0.));
#1235=DIRECTION('',(9.62705722182328E-17,0.,-1.));
#1236=DIRECTION('',(-1.,0.,-9.62705722182328E-17));
#1237=DIRECTION('',(0.,1.,0.));
#1238=DIRECTION('',(1.,0.,9.62705722182328E-17));
#1239=DIRECTION('',(0.,1.,0.));
#1240=DIRECTION('',(1.,0.,9.62705722182328E-17));
#1241=DIRECTION('',(-0.866025403784439,-0.5,-8.3372761177854E-17));
#1242=DIRECTION('',(-0.866025403784439,0.5,-8.3372761177854E-17));
#1243=DIRECTION('',(0.,1.,0.));
#1244=DIRECTION('',(0.866025403784439,0.5,8.3372761177854E-17));
#1245=DIRECTION('',(0.866025403784439,-0.5,8.3372761177854E-17));
#1246=DIRECTION('',(0.,-1.,0.));
#1247=DIRECTION('',(1.,0.,9.62705722182328E-17));
#1248=DIRECTION('',(9.62705722182328E-17,0.,-1.));
#1249=DIRECTION('',(9.62705722182328E-17,0.,-1.));
#1250=DIRECTION('',(0.,1.,0.));
#1251=DIRECTION('',(9.62705722182328E-17,0.,-1.));
#1252=DIRECTION('',(0.,1.,0.));
#1253=DIRECTION('',(9.62705722182328E-17,0.,-1.));
#1254=DIRECTION('',(0.,1.,0.));
#1255=DIRECTION('',(9.62705722182328E-17,0.,-1.));
#1256=DIRECTION('',(-9.62705722182328E-17,0.,1.));
#1257=DIRECTION('',(-9.62705722182328E-17,0.,1.));
#1258=DIRECTION('',(0.,1.,0.));
#1259=DIRECTION('',(0.,0.,1.));
#1260=DIRECTION('',(1.,0.,0.));
#1261=DIRECTION('',(0.,1.,0.));
#1262=DIRECTION('',(1.,0.,0.));
#1263=DIRECTION('',(0.,0.,1.));
#1264=DIRECTION('',(1.,0.,0.));
#1265=DIRECTION('',(1.,0.,0.));
#1266=DIRECTION('',(1.,0.,0.));
#1267=DIRECTION('',(-1.,0.,0.));
#1268=DIRECTION('',(0.,0.,1.));
#1269=DIRECTION('',(0.,0.,1.));
#1270=DIRECTION('',(0.,0.,1.));
#1271=DIRECTION('',(0.,-1.,0.));
#1272=DIRECTION('',(0.,1.,0.));
#1273=DIRECTION('',(0.,0.,1.));
#1274=DIRECTION('',(0.,0.,1.));
#1275=DIRECTION('',(0.,1.,0.));
#1276=DIRECTION('',(0.,0.,1.));
#1277=DIRECTION('',(0.,0.,1.));
#1278=DIRECTION('',(0.,0.,1.));
#1279=DIRECTION('',(1.,0.,0.));
#1280=DIRECTION('',(1.,0.,0.));
#1281=DIRECTION('',(0.,0.,1.));
#1282=DIRECTION('',(1.,0.,0.));
#1283=DIRECTION('',(1.,0.,0.));
#1284=DIRECTION('',(1.,0.,0.));
#1285=DIRECTION('',(0.,-1.,0.));
#1286=DIRECTION('',(1.,0.,0.));
#1287=DIRECTION('',(0.,0.,1.));
#1288=DIRECTION('',(1.,0.,0.));
#1289=DIRECTION('',(9.62705722182328E-17,0.,-1.));
#1290=DIRECTION('',(1.,0.,0.));
#1291=DIRECTION('',(0.,-1.,0.));
#1292=DIRECTION('',(1.,0.,0.));
#1293=DIRECTION('',(0.,-1.,0.));
#1294=DIRECTION('',(0.,0.,-1.));
#1295=DIRECTION('',(9.62705722182328E-17,0.,-1.));
#1296=DIRECTION('',(1.,0.,0.));
#1297=DIRECTION('',(0.,0.,1.));
#1298=DIRECTION('',(1.,0.,0.));
#1299=DIRECTION('',(0.,1.,0.));
#1300=DIRECTION('',(0.,0.,1.));
#1301=DIRECTION('',(1.,0.,0.));
#1302=DIRECTION('',(0.,0.,1.));
#1303=DIRECTION('',(0.,1.,0.));
#1304=DIRECTION('',(0.,0.,1.));
#1305=DIRECTION('',(0.,0.,1.));
#1306=DIRECTION('',(1.,0.,0.));
#1307=DIRECTION('',(0.,0.,-1.));
#1308=DIRECTION('',(-1.,0.,0.));
#1309=DIRECTION('',(0.,1.,0.));
#1310=DIRECTION('',(1.,0.,0.));
#1311=DIRECTION('',(0.,1.,0.));
#1312=DIRECTION('',(0.,-1.,0.));
#1313=DIRECTION('',(0.,0.,-1.));
#1314=DIRECTION('',(-1.,0.,0.));
#1315=DIRECTION('',(0.,0.,1.));
#1316=DIRECTION('',(0.,0.,1.));
#1317=DIRECTION('',(1.,0.,0.));
#1318=DIRECTION('',(-1.,0.,0.));
#1319=DIRECTION('',(0.,1.,0.));
#1320=DIRECTION('',(0.,-1.,0.));
#1321=DIRECTION('',(0.,0.,-1.));
#1322=DIRECTION('',(0.,0.,1.));
#1323=DIRECTION('',(1.,0.,0.));
#1324=DIRECTION('',(0.,1.,0.));
#1325=DIRECTION('',(0.,-1.,0.));
#1326=DIRECTION('',(0.,0.,-1.));
#1327=DIRECTION('',(9.62705722182328E-17,0.,-1.));
#1328=DIRECTION('',(1.,0.,9.62705722182328E-17));
#1329=DIRECTION('',(0.,-1.,0.));
#1330=DIRECTION('',(0.,0.,-1.));
#1331=DIRECTION('',(1.,0.,9.62705722182328E-17));
#1332=DIRECTION('',(9.62705722182328E-17,0.,-1.));
#1333=DIRECTION('',(9.62705722182328E-17,0.,-1.));
#1334=DIRECTION('',(-1.,0.,-9.62705722182328E-17));
#1335=DIRECTION('',(0.,1.,0.));
#1336=DIRECTION('',(-1.,0.,-9.62705722182328E-17));
#1337=DIRECTION('',(0.,-1.,0.));
#1338=DIRECTION('',(0.,-1.,0.));
#1339=DIRECTION('',(0.,0.,-1.));
#1340=DIRECTION('',(-1.,0.,0.));
#1341=DIRECTION('',(0.,0.,1.));
#1342=DIRECTION('',(0.,0.,-1.));
#1343=DIRECTION('',(-1.,0.,0.));
#1344=DIRECTION('',(-1.,0.,0.));
#1345=DIRECTION('',(0.,-1.,0.));
#1346=DIRECTION('',(0.,-1.,0.));
#1347=DIRECTION('',(0.,0.,-1.));
#1348=DIRECTION('',(0.,0.,1.));
#1349=DIRECTION('',(1.,0.,0.));
#1350=DIRECTION('',(0.,1.,0.));
#1351=DIRECTION('',(0.,0.,1.));
#1352=DIRECTION('',(1.,0.,0.));
#1353=DIRECTION('',(-1.,0.,0.));
#1354=DIRECTION('',(0.,0.,1.));
#1355=DIRECTION('',(-0.707106781186548,0.,-0.707106781186548));
#1356=DIRECTION('',(-0.707106781186548,0.,0.707106781186548));
#1357=DIRECTION('',(-0.707106781186548,0.,0.707106781186548));
#1358=DIRECTION('',(0.707106781186548,0.,0.707106781186548));
#1359=DIRECTION('',(-9.62705722182328E-17,0.,1.));
#1360=DIRECTION('',(1.,0.,9.62705722182328E-17));
#1361=DIRECTION('',(0.707106781186548,0.,0.707106781186548));
#1362=DIRECTION('',(-0.707106781186548,0.,0.707106781186548));
#1363=DIRECTION('',(0.,0.,-1.));
#1364=DIRECTION('',(-1.,0.,0.));
#1365=DIRECTION('',(0.707106781186548,0.,-0.707106781186548));
#1366=DIRECTION('',(-0.707106781186548,0.,-0.707106781186548));
#1367=DIRECTION('',(1.,0.,0.));
#1368=DIRECTION('',(0.,0.,-1.));
#1369=DIRECTION('',(1.,0.,0.));
#1370=DIRECTION('',(0.,0.,-1.));
#1371=DIRECTION('',(0.707106781186548,0.,0.707106781186548));
#1372=DIRECTION('',(0.707106781186548,0.,-0.707106781186548));
#1373=DIRECTION('',(0.707106781186548,0.,-0.707106781186548));
#1374=DIRECTION('',(-0.707106781186548,0.,-0.707106781186548));
#1375=DIRECTION('',(9.62705722182328E-17,0.,-1.));
#1376=DIRECTION('',(-1.,0.,-9.62705722182328E-17));
#1377=DIRECTION('',(-0.707106781186548,0.,-0.707106781186548));
#1378=DIRECTION('',(0.707106781186548,0.,-0.707106781186548));
#1379=DIRECTION('',(0.,0.,1.));
#1380=DIRECTION('',(1.,0.,0.));
#1381=DIRECTION('',(-0.707106781186548,0.,0.707106781186548));
#1382=DIRECTION('',(0.707106781186548,0.,0.707106781186548));
#1383=DIRECTION('',(-1.,0.,0.));
#1384=DIRECTION('',(0.,0.,1.));
#1385=DIRECTION('',(0.,1.,0.));
#1386=DIRECTION('',(0.,0.,1.));
#1387=DIRECTION('',(0.,-1.,0.));
#1388=DIRECTION('',(0.,0.,-1.));
#1389=DIRECTION('',(0.,-1.,0.));
#1390=DIRECTION('',(1.,0.,0.));
#1391=DIRECTION('',(0.5,-0.866025403784439,4.81352861091164E-17));
#1392=DIRECTION('',(0.866025403784439,0.5,0.));
#1393=DIRECTION('',(9.62705722182328E-17,0.,-1.));
#1394=DIRECTION('',(9.62705722182328E-17,0.,-1.));
#1395=DIRECTION('',(1.,0.,9.62705722182328E-17));
#1396=DIRECTION('',(9.62705722182328E-17,0.,-1.));
#1397=DIRECTION('',(9.62705722182328E-17,0.,-1.));
#1398=DIRECTION('',(0.5,0.866025403784439,4.81352861091164E-17));
#1399=DIRECTION('',(-0.866025403784439,0.5,0.));
#1400=DIRECTION('',(9.62705722182328E-17,0.,-1.));
#1401=DIRECTION('',(-0.5,0.866025403784439,-4.81352861091164E-17));
#1402=DIRECTION('',(-0.866025403784439,-0.5,0.));
#1403=DIRECTION('',(9.62705722182328E-17,0.,-1.));
#1404=DIRECTION('',(-1.,0.,-9.62705722182328E-17));
#1405=DIRECTION('',(-9.62705722182328E-17,0.,1.));
#1406=DIRECTION('',(9.62705722182328E-17,0.,-1.));
#1407=DIRECTION('',(-0.5,-0.866025403784439,-4.81352861091164E-17));
#1408=DIRECTION('',(0.866025403784439,-0.5,0.));
#1409=DIRECTION('',(0.145611776873102,0.989341806675457,0.));
#1410=DIRECTION('',(-0.989341806675457,0.145611776873102,0.));
#1411=DIRECTION('',(0.,0.,-1.));
#1412=DIRECTION('',(0.,0.,-1.));
#1413=DIRECTION('',(-0.783989249170388,0.620774401200027,0.));
#1414=DIRECTION('',(-0.620774401200027,-0.783989249170388,0.));
#1415=DIRECTION('',(0.,0.,-1.));
#1416=DIRECTION('',(-0.92960102604349,-0.368567405475432,0.));
#1417=DIRECTION('',(0.368567405475432,-0.92960102604349,0.));
#1418=DIRECTION('',(0.,0.,-1.));
#1419=DIRECTION('',(-0.145611776873102,-0.989341806675457,0.));
#1420=DIRECTION('',(0.989341806675457,-0.145611776873102,0.));
#1421=DIRECTION('',(0.,0.,-1.));
#1422=DIRECTION('',(0.783989249170389,-0.620774401200026,0.));
#1423=DIRECTION('',(0.620774401200026,0.783989249170389,0.));
#1424=DIRECTION('',(0.,0.,-1.));
#1425=DIRECTION('',(0.92960102604349,0.368567405475431,0.));
#1426=DIRECTION('',(-0.368567405475431,0.92960102604349,0.));
#1427=DIRECTION('',(0.171021372495919,-0.973722970327972,0.150383733180435));
#1428=DIRECTION('',(0.520569076809647,-0.0402877583744304,-0.852868531952443));
#1429=CARTESIAN_POINT('',(0.,0.,0.));
#1430=CARTESIAN_POINT('',(0.009398,-0.00243656546808779,0.0345085635781288));
#1431=CARTESIAN_POINT('',(0.009398,-0.0105962259694934,0.0345085635781288));
#1432=CARTESIAN_POINT('',(0.004318,-0.0105962259694934,0.0345085635781288));
#1433=CARTESIAN_POINT('',(0.,-0.0105962259694934,0.0345085635781288));
#1434=CARTESIAN_POINT('',(0.004318,-0.00243656546808779,0.0345085635781288));
#1435=CARTESIAN_POINT('',(0.004318,0.0057230950333178,0.0345085635781288));
#1436=CARTESIAN_POINT('',(0.009398,0.0057230950333178,0.0345085635781288));
#1437=CARTESIAN_POINT('',(0.,0.0057230950333178,0.0345085635781288));
#1438=CARTESIAN_POINT('',(0.,-0.00243656546808779,0.0345085635781288));
#1439=CARTESIAN_POINT('',(0.009398,-0.0105962259694934,0.00583642441779375));
#1440=CARTESIAN_POINT('',(0.009398,-0.0105962259694934,-0.0228357147425413));
#1441=CARTESIAN_POINT('',(0.004318,-0.0105962259694934,-0.0228357147425413));
#1442=CARTESIAN_POINT('',(0.,-0.0105962259694934,-0.0228357147425413));
#1443=CARTESIAN_POINT('',(0.004318,-0.0105962259694934,0.0345085635781288));
#1444=CARTESIAN_POINT('',(0.,-0.0105962259694934,0.00583642441779375));
#1445=CARTESIAN_POINT('',(0.009398,-0.00243656546808779,-0.0228357147425413));
#1446=CARTESIAN_POINT('',(0.009398,0.0057230950333178,-0.0228357147425413));
#1447=CARTESIAN_POINT('',(0.004318,0.0057230950333178,-0.0228357147425413));
#1448=CARTESIAN_POINT('',(0.,0.0057230950333178,-0.0228357147425413));
#1449=CARTESIAN_POINT('',(0.004318,-0.0105962259694934,-0.0228357147425413));
#1450=CARTESIAN_POINT('',(0.,-0.00243656546808779,-0.0228357147425413));
#1451=CARTESIAN_POINT('',(0.009398,0.0057230950333178,0.00583642441779375));
#1452=CARTESIAN_POINT('',(0.004318,0.0057230950333178,0.00583642441779375));
#1453=CARTESIAN_POINT('',(0.,0.0057230950333178,0.00583642441779375));
#1454=CARTESIAN_POINT('',(0.009398,-0.00243656546808779,0.00583642441779375));
#1455=CARTESIAN_POINT('',(0.009398,0.0057230950333178,-0.0177557147425413));
#1456=CARTESIAN_POINT('',(0.009398,-0.00551622596949339,-0.0177557147425413));
#1457=CARTESIAN_POINT('',(0.009398,0.000643095033317803,-0.0177557147425413));
#1458=CARTESIAN_POINT('',(0.009398,0.000643095033317803,0.00583642441779375));
#1459=CARTESIAN_POINT('',(0.009398,0.000643095033317803,0.0294285635781288));
#1460=CARTESIAN_POINT('',(0.009398,-0.00243656546808779,0.0294285635781288));
#1461=CARTESIAN_POINT('',(0.009398,-0.00551622596949339,0.0294285635781288));
#1462=CARTESIAN_POINT('',(0.009398,-0.00551622596949339,-0.0228357147425413));
#1463=CARTESIAN_POINT('',(0.,-0.00243656546808779,0.00583642441779375));
#1464=CARTESIAN_POINT('',(0.009398,-0.00551622596949339,0.00583642441779375));
#1465=CARTESIAN_POINT('',(0.0104245535004685,-0.00448967246902485,-0.0167291612420728));
#1466=CARTESIAN_POINT('',(0.0172620463867783,0.00234782041728497,0.0215645171913505));
#1467=CARTESIAN_POINT('',(0.004318,-0.00243656546808779,0.0345085635781288));
#1468=CARTESIAN_POINT('',(0.00703788683380187,0.00300320819951594,0.0317886767443269));
#1469=CARTESIAN_POINT('',(0.009398,-0.00243656546808779,-0.0177557147425413));
#1470=CARTESIAN_POINT('',(0.0104245535004685,-0.000383458467150729,-0.0167291612420728));
#1471=CARTESIAN_POINT('',(0.004318,0.0057230950333178,0.00583642441779375));
#1472=CARTESIAN_POINT('',(-0.002525999457639,0.446722916576862,0.0428386217817793));
#1473=CARTESIAN_POINT('',(0.024638,-0.0127240978181362,-0.0100256726145744));
#1474=CARTESIAN_POINT('',(0.0184158999472857,-0.0254,-0.0100256726145744));
#1475=CARTESIAN_POINT('',(0.0184158999472857,-0.0161683429032564,-0.0100256726145744));
#1476=CARTESIAN_POINT('',(0.0184158999472857,-0.00927985273301602,-0.0100256726145744));
#1477=CARTESIAN_POINT('',(0.024638,-0.0161683429032564,-0.0100256726145744));
#1478=CARTESIAN_POINT('',(0.024638,-0.0161683429032564,-0.0100256726145744));
#1479=CARTESIAN_POINT('',(0.024638,-0.0127240978181362,-0.0100256726145744));
#1480=CARTESIAN_POINT('',(0.024638,-0.00927985273301601,-0.0100256726145744));
#1481=CARTESIAN_POINT('',(0.024638,-0.00927985273301601,-0.0100256726145744));
#1482=CARTESIAN_POINT('',(0.0222816053938505,-0.0134746149560361,-0.0100256726145744));
#1483=CARTESIAN_POINT('',(0.0218452081847011,-0.0140257503116174,-0.0100256726145744));
#1484=CARTESIAN_POINT('',(0.022718002603,-0.0129234796004549,-0.0100256726145744));
#1485=CARTESIAN_POINT('',(0.0211497123612693,-0.013923386920144,-0.0100256726145744));
#1486=CARTESIAN_POINT('',(0.0204542165378375,-0.0138210235286705,-0.0100256726145744));
#1487=CARTESIAN_POINT('',(0.0201951179235551,-0.0131675247816159,-0.0100256726145744));
#1488=CARTESIAN_POINT('',(0.0199360193092727,-0.0125140260345613,-0.0100256726145744));
#1489=CARTESIAN_POINT('',(0.0203724165184221,-0.0119628906789801,-0.0100256726145744));
#1490=CARTESIAN_POINT('',(0.0208088137275716,-0.0114117553233988,-0.0100256726145744));
#1491=CARTESIAN_POINT('',(0.0215043095510034,-0.0115141187148722,-0.0100256726145744));
#1492=CARTESIAN_POINT('',(0.0221998053744352,-0.0116164821063456,-0.0100256726145744));
#1493=CARTESIAN_POINT('',(0.0224589039887176,-0.0122699808534003,-0.0100256726145744));
#1494=CARTESIAN_POINT('',(0.0247658999472857,-0.012798884883523,0.00821410119533539));
#1495=CARTESIAN_POINT('',(0.0184158999472857,-0.012798884883523,0.00821410119533539));
#1496=CARTESIAN_POINT('',(0.0184158999472857,-0.00940026249736547,0.00821410119533539));
#1497=CARTESIAN_POINT('',(0.0184158999472857,-0.0161975072696805,0.00821410119533539));
#1498=CARTESIAN_POINT('',(0.0247658999472857,-0.00940026249736547,0.00821410119533539));
#1499=CARTESIAN_POINT('',(0.0247658999472857,-0.00940026249736547,0.00821410119533539));
#1500=CARTESIAN_POINT('',(0.0247658999472857,-0.012798884883523,0.00821410119533539));
#1501=CARTESIAN_POINT('',(0.0247658999472857,-0.0161975072696805,0.00821410119533539));
#1502=CARTESIAN_POINT('',(0.0247658999472857,-0.0161975072696805,0.00821410119533539));
#1503=CARTESIAN_POINT('',(0.0206897181489554,-0.014415005894115,0.00821410119533539));
#1504=CARTESIAN_POINT('',(0.0199360193092727,-0.0125140260345613,0.00821410119533539));
#1505=CARTESIAN_POINT('',(0.0204542165378375,-0.0138210235286705,0.00821410119533539));
#1506=CARTESIAN_POINT('',(0.0245272311236834,-0.0144204916670564,0.00821410119533539));
#1507=CARTESIAN_POINT('',(0.0218452081847011,-0.0140257503116174,0.00821410119533539));
#1508=CARTESIAN_POINT('',(0.0235678198927603,-0.0118502271956469,0.00821410119533539));
#1509=CARTESIAN_POINT('',(0.022718002603,-0.0129234796004549,0.00821410119533539));
#1510=CARTESIAN_POINT('',(0.0229535042141178,-0.0135174619658994,0.00821410119533539));
#1511=CARTESIAN_POINT('',(0.0221998053744352,-0.0116164821063456,0.00821410119533539));
#1512=CARTESIAN_POINT('',(0.0248818283134174,-0.0120112234617847,0.00821410119533539));
#1513=CARTESIAN_POINT('',(0.0208088137275716,-0.0114117553233988,0.00821410119533539));
#1514=CARTESIAN_POINT('',(0.0216586310173319,-0.0103385029185908,0.00821410119533539));
#1515=CARTESIAN_POINT('',(-0.02667,-0.0127240978181362,0.00753264455124736));
#1516=CARTESIAN_POINT('',(-0.0201158281415701,-0.0254,0.00753264455124736));
#1517=CARTESIAN_POINT('',(-0.0201158281415701,-0.0161511823534966,0.00753264455124736));
#1518=CARTESIAN_POINT('',(-0.0201158281415701,-0.00929701328277588,0.00753264455124736));
#1519=CARTESIAN_POINT('',(-0.02667,-0.0161511823534966,0.00753264455124736));
#1520=CARTESIAN_POINT('',(-0.02667,-0.0161511823534966,0.00753264455124736));
#1521=CARTESIAN_POINT('',(-0.02667,-0.0127240978181362,0.00753264455124736));
#1522=CARTESIAN_POINT('',(-0.02667,-0.00929701328277588,0.00753264455124736));
#1523=CARTESIAN_POINT('',(-0.02667,-0.00929701328277588,0.00753264455124736));
#1524=CARTESIAN_POINT('',(-0.0250601157282613,-0.00993569646517873,0.00753264455124736));
#1525=CARTESIAN_POINT('',(-0.0220323967919973,-0.0116837508080613,0.00753264455124736));
#1526=CARTESIAN_POINT('',(-0.0231872218833593,-0.0110170122306965,0.00753264455124736));
#1527=CARTESIAN_POINT('',(-0.0265384952134184,-0.0129518707899341,0.00753264455124736));
#1528=CARTESIAN_POINT('',(-0.0243420469747213,-0.0116837508080613,0.00753264455124736));
#1529=CARTESIAN_POINT('',(-0.0243420469747213,-0.0127240978181362,0.00753264455124736));
#1530=CARTESIAN_POINT('',(-0.0243420469747213,-0.0130172279627908,0.00753264455124736));
#1531=CARTESIAN_POINT('',(-0.0262149408196233,-0.0119359121972731,0.00753264455124736));
#1532=CARTESIAN_POINT('',(-0.0231872218833593,-0.0136839665401556,0.00753264455124736));
#1533=CARTESIAN_POINT('',(-0.0253836701220563,-0.0149520865220284,0.00753264455124736));
#1534=CARTESIAN_POINT('',(-0.0220323967919973,-0.0130172279627908,0.00753264455124736));
#1535=CARTESIAN_POINT('',(-0.0220323967919973,-0.0127240978181362,0.00753264455124736));
#1536=CARTESIAN_POINT('',(-0.0264658281415701,-0.0121989943156327,-0.00956401050227608));
#1537=CARTESIAN_POINT('',(-0.0201158281415701,-0.0121989943156327,-0.00956401050227608));
#1538=CARTESIAN_POINT('',(-0.0201158281415701,-0.0154643918759583,-0.00956401050227608));
#1539=CARTESIAN_POINT('',(-0.0201158281415701,-0.0089335967553071,-0.00956401050227608));
#1540=CARTESIAN_POINT('',(-0.0264658281415701,-0.0089335967553071,-0.00956401050227608));
#1541=CARTESIAN_POINT('',(-0.0264658281415701,-0.0089335967553071,-0.00956401050227608));
#1542=CARTESIAN_POINT('',(-0.0264658281415701,-0.0121989943156327,-0.00956401050227608));
#1543=CARTESIAN_POINT('',(-0.0264658281415701,-0.0154643918759583,-0.00956401050227608));
#1544=CARTESIAN_POINT('',(-0.0264658281415701,-0.0154643918759583,-0.00956401050227608));
#1545=CARTESIAN_POINT('',(-0.0237646344290403,-0.0113503815193789,-0.00956401050227608));
#1546=CARTESIAN_POINT('',(-0.0231872218833593,-0.0110170122306965,-0.00956401050227608));
#1547=CARTESIAN_POINT('',(-0.0243420469747213,-0.0116837508080613,-0.00956401050227608));
#1548=CARTESIAN_POINT('',(-0.0226098093376783,-0.0113503815193789,-0.00956401050227608));
#1549=CARTESIAN_POINT('',(-0.0220323967919973,-0.0116837508080613,-0.00956401050227608));
#1550=CARTESIAN_POINT('',(-0.0220323967919973,-0.012350489385426,-0.00956401050227608));
#1551=CARTESIAN_POINT('',(-0.0220323967919973,-0.0130172279627908,-0.00956401050227608));
#1552=CARTESIAN_POINT('',(-0.0226098093376783,-0.0133505972514732,-0.00956401050227608));
#1553=CARTESIAN_POINT('',(-0.0231872218833593,-0.0136839665401556,-0.00956401050227608));
#1554=CARTESIAN_POINT('',(-0.0237646344290403,-0.0133505972514732,-0.00956401050227608));
#1555=CARTESIAN_POINT('',(-0.0243420469747213,-0.0130172279627908,-0.00956401050227608));
#1556=CARTESIAN_POINT('',(-0.0243420469747213,-0.012350489385426,-0.00956401050227608));
#1557=CARTESIAN_POINT('',(-0.0201158281415701,-0.0254,-0.000736635178327557));
#1558=CARTESIAN_POINT('',(-0.0201158281415701,-0.0154643918759583,-0.0107140399564981));
#1559=CARTESIAN_POINT('',(-0.0201158281415701,-0.0154643918759583,-0.0118640694107201));
#1560=CARTESIAN_POINT('',(-0.0201158281415701,-0.0121989943156327,-0.0118640694107201));
#1561=CARTESIAN_POINT('',(-0.0201158281415701,-0.0089335967553071,-0.0118640694107201));
#1562=CARTESIAN_POINT('',(-0.0201158281415701,-0.0089335967553071,-0.0107140399564981));
#1563=CARTESIAN_POINT('',(-0.0201158281415701,-0.0254,-0.0187558848410845));
#1564=CARTESIAN_POINT('',(-0.0201158281415701,-0.02032,-0.0187558848410845));
#1565=CARTESIAN_POINT('',(-0.0201158281415701,-0.00508,-0.0187558848410845));
#1566=CARTESIAN_POINT('',(-0.0201158281415701,-0.02032,0.0172826144844293));
#1567=CARTESIAN_POINT('',(-0.0201158281415701,-0.02032,0.0172826144844293));
#1568=CARTESIAN_POINT('',(-0.0201158281415701,-0.0254,0.0172826144844293));
#1569=CARTESIAN_POINT('',(-0.0201158281415701,-0.00508,0.0172826144844293));
#1570=CARTESIAN_POINT('',(-0.0201158281415701,-0.00508,-0.000736635178327557));
#1571=CARTESIAN_POINT('',(-0.0201158281415701,-0.0161511823534966,-0.000736635178327557));
#1572=CARTESIAN_POINT('',(-0.0201158281415701,-0.0161511823534966,0.00980855198577046));
#1573=CARTESIAN_POINT('',(-0.0201158281415701,-0.00929701328277588,-0.000736635178327557));
#1574=CARTESIAN_POINT('',(-0.0201158281415701,-0.00929701328277588,0.00980855198577046));
#1575=CARTESIAN_POINT('',(-0.0201158281415701,-0.0254,0.00980855198577046));
#1576=CARTESIAN_POINT('',(-0.00084996409714222,-0.0254,-0.0187558848410845));
#1577=CARTESIAN_POINT('',(0.0184158999472857,-0.0254,-0.0187558848410845));
#1578=CARTESIAN_POINT('',(0.0184158999472857,-0.02032,-0.0187558848410845));
#1579=CARTESIAN_POINT('',(0.0184158999472857,-0.00508,-0.0187558848410845));
#1580=CARTESIAN_POINT('',(-0.0201158281415701,-0.02032,-0.0187558848410845));
#1581=CARTESIAN_POINT('',(0.0021011881850274,-0.02032,-0.0187558848410845));
#1582=CARTESIAN_POINT('',(0.,-0.0216180235816189,-0.0187558848410845));
#1583=CARTESIAN_POINT('',(-0.0021011881850274,-0.02032,-0.0187558848410845));
#1584=CARTESIAN_POINT('',(-0.0201158281415701,-0.02032,-0.0187558848410845));
#1585=CARTESIAN_POINT('',(-0.00084996409714222,-0.00508,-0.0187558848410845));
#1586=CARTESIAN_POINT('',(0.0184158999472857,-0.0254,-0.00073663517832756));
#1587=CARTESIAN_POINT('',(0.0184158999472857,-0.00940026249736547,0.00937934312969446));
#1588=CARTESIAN_POINT('',(0.0184158999472857,-0.00940026249736547,0.0105445850640535));
#1589=CARTESIAN_POINT('',(0.0184158999472857,-0.0161975072696805,0.00937934312969446));
#1590=CARTESIAN_POINT('',(0.0184158999472857,-0.0161975072696805,0.0105445850640535));
#1591=CARTESIAN_POINT('',(0.0184158999472857,-0.012798884883523,0.0105445850640535));
#1592=CARTESIAN_POINT('',(0.0184158999472857,-0.0254,-0.0124831516295671));
#1593=CARTESIAN_POINT('',(0.0184158999472857,-0.0161683429032564,-0.0124831516295671));
#1594=CARTESIAN_POINT('',(0.0184158999472857,-0.00927985273301601,-0.0124831516295671));
#1595=CARTESIAN_POINT('',(0.0184158999472857,-0.0161683429032564,-0.00073663517832756));
#1596=CARTESIAN_POINT('',(0.0184158999472857,-0.00927985273301602,-0.00073663517832756));
#1597=CARTESIAN_POINT('',(0.0184158999472857,-0.0254,0.0172826144844293));
#1598=CARTESIAN_POINT('',(0.0184158999472857,-0.02032,0.0172826144844293));
#1599=CARTESIAN_POINT('',(0.0184158999472857,-0.00508,0.0172826144844293));
#1600=CARTESIAN_POINT('',(0.0184158999472857,-0.02032,-0.0187558848410845));
#1601=CARTESIAN_POINT('',(0.0184158999472857,-0.00508,-0.00073663517832756));
#1602=CARTESIAN_POINT('',(-0.00084996409714222,-0.0254,0.0172826144844293));
#1603=CARTESIAN_POINT('',(-0.00084996409714222,-0.02032,0.0172826144844293));
#1604=CARTESIAN_POINT('',(-0.0021011881850274,-0.02032,0.0172826144844293));
#1605=CARTESIAN_POINT('',(0.,-0.0216180235816189,0.0172826144844293));
#1606=CARTESIAN_POINT('',(0.0021011881850274,-0.02032,0.0172826144844293));
#1607=CARTESIAN_POINT('',(-0.00084996409714222,-0.02032,0.0172826144844293));
#1608=CARTESIAN_POINT('',(-0.0201158281415701,-0.00508,0.0172826144844293));
#1609=CARTESIAN_POINT('',(-0.00084996409714222,-0.0254,-0.000396650284528729));
#1610=CARTESIAN_POINT('',(0.0133358999472856,-0.0254,0.0172826144844293));
#1611=CARTESIAN_POINT('',(0.0133358999472856,-0.0254,-0.0136758848410845));
#1612=CARTESIAN_POINT('',(0.0133358999472856,-0.0254,0.0122026144844294));
#1613=CARTESIAN_POINT('',(-0.00084996409714222,-0.0254,0.0122026144844294));
#1614=CARTESIAN_POINT('',(-0.0150358281415701,-0.0254,0.0122026144844294));
#1615=CARTESIAN_POINT('',(-0.0150358281415701,-0.0254,-0.0187558848410845));
#1616=CARTESIAN_POINT('',(-0.0150358281415701,-0.0254,-0.0136758848410845));
#1617=CARTESIAN_POINT('',(0.0184158999472857,-0.0254,-0.0136758848410845));
#1618=CARTESIAN_POINT('',(-0.00084996409714222,0.,-0.000396650284528729));
#1619=CARTESIAN_POINT('',(0.,0.,0.00552363926544786));
#1620=CARTESIAN_POINT('',(0.,0.,0.00314329138706761));
#1621=CARTESIAN_POINT('',(-0.0150358281415701,0.,-0.00039665028452873));
#1622=CARTESIAN_POINT('',(-0.0150358281415701,0.,-0.0136758848410845));
#1623=CARTESIAN_POINT('',(-0.0150358281415701,0.,0.0122026144844294));
#1624=CARTESIAN_POINT('',(0.0184158999472857,0.,0.0122026144844294));
#1625=CARTESIAN_POINT('',(0.0133358999472856,0.,0.0122026144844294));
#1626=CARTESIAN_POINT('',(0.0133358999472856,0.,-0.000396650284528729));
#1627=CARTESIAN_POINT('',(0.0133358999472856,0.,-0.0136758848410845));
#1628=CARTESIAN_POINT('',(-0.00084996409714222,0.,-0.0136758848410845));
#1629=CARTESIAN_POINT('',(-0.02667,-0.0161511823534966,0.00867059826850891));
#1630=CARTESIAN_POINT('',(-0.02667,-0.0161511823534966,0.00980855198577046));
#1631=CARTESIAN_POINT('',(-0.02667,-0.0161511823534966,0.00980855198577046));
#1632=CARTESIAN_POINT('',(-0.02667,-0.0161511823534966,0.00867059826850891));
#1633=CARTESIAN_POINT('',(-0.02667,-0.00929701328277588,0.00867059826850891));
#1634=CARTESIAN_POINT('',(-0.02667,-0.00929701328277588,0.00867059826850891));
#1635=CARTESIAN_POINT('',(-0.02667,-0.00929701328277588,0.00980855198577046));
#1636=CARTESIAN_POINT('',(-0.02667,-0.00929701328277588,0.00980855198577046));
#1637=CARTESIAN_POINT('',(-0.02667,-0.0127240978181362,0.00980855198577046));
#1638=CARTESIAN_POINT('',(-0.02667,-0.0127240978181362,0.00980855198577046));
#1639=CARTESIAN_POINT('',(-0.02667,-0.0127240978181362,0.00867059826850891));
#1640=CARTESIAN_POINT('',(0.024638,-0.0161683429032564,-0.0112544121220708));
#1641=CARTESIAN_POINT('',(0.024638,-0.0161683429032564,-0.0124831516295671));
#1642=CARTESIAN_POINT('',(0.024638,-0.0161683429032564,-0.0124831516295671));
#1643=CARTESIAN_POINT('',(0.024638,-0.0161683429032564,-0.0112544121220708));
#1644=CARTESIAN_POINT('',(0.024638,-0.0127240978181362,-0.0124831516295671));
#1645=CARTESIAN_POINT('',(0.024638,-0.00927985273301601,-0.0124831516295671));
#1646=CARTESIAN_POINT('',(0.024638,-0.00927985273301601,-0.0124831516295671));
#1647=CARTESIAN_POINT('',(0.024638,-0.0127240978181362,-0.0124831516295671));
#1648=CARTESIAN_POINT('',(0.024638,-0.00927985273301601,-0.0112544121220708));
#1649=CARTESIAN_POINT('',(0.024638,-0.00927985273301601,-0.0112544121220708));
#1650=CARTESIAN_POINT('',(0.024638,-0.0127240978181362,-0.0112544121220708));
#1651=CARTESIAN_POINT('',(-0.0264658281415701,-0.0154643918759583,-0.0107140399564981));
#1652=CARTESIAN_POINT('',(-0.0264658281415701,-0.0154643918759583,-0.0107140399564981));
#1653=CARTESIAN_POINT('',(-0.0264658281415701,-0.0154643918759583,-0.0118640694107201));
#1654=CARTESIAN_POINT('',(-0.0264658281415701,-0.0154643918759583,-0.0118640694107201));
#1655=CARTESIAN_POINT('',(-0.0264658281415701,-0.0089335967553071,-0.0107140399564981));
#1656=CARTESIAN_POINT('',(-0.0264658281415701,-0.0089335967553071,-0.0118640694107201));
#1657=CARTESIAN_POINT('',(-0.0264658281415701,-0.0089335967553071,-0.0118640694107201));
#1658=CARTESIAN_POINT('',(-0.0264658281415701,-0.0089335967553071,-0.0107140399564981));
#1659=CARTESIAN_POINT('',(-0.0264658281415701,-0.0121989943156327,-0.0118640694107201));
#1660=CARTESIAN_POINT('',(-0.0264658281415701,-0.0121989943156327,-0.0118640694107201));
#1661=CARTESIAN_POINT('',(-0.0264658281415701,-0.0127,-0.000736635178327556));
#1662=CARTESIAN_POINT('',(0.0247658999472857,-0.00940026249736547,0.00937934312969446));
#1663=CARTESIAN_POINT('',(0.0247658999472857,-0.00940026249736547,0.0105445850640535));
#1664=CARTESIAN_POINT('',(0.0247658999472857,-0.00940026249736547,0.0105445850640535));
#1665=CARTESIAN_POINT('',(0.0247658999472857,-0.00940026249736547,0.00937934312969446));
#1666=CARTESIAN_POINT('',(0.0247658999472857,-0.012798884883523,0.0105445850640535));
#1667=CARTESIAN_POINT('',(0.0247658999472857,-0.0161975072696805,0.0105445850640535));
#1668=CARTESIAN_POINT('',(0.0247658999472857,-0.0161975072696805,0.0105445850640535));
#1669=CARTESIAN_POINT('',(0.0247658999472857,-0.012798884883523,0.0105445850640535));
#1670=CARTESIAN_POINT('',(0.0247658999472857,-0.0161975072696805,0.00937934312969446));
#1671=CARTESIAN_POINT('',(0.0247658999472857,-0.0161975072696805,0.00937934312969446));
#1672=CARTESIAN_POINT('',(0.0247658999472857,-0.0127,-0.00073663517832756));
#1673=CARTESIAN_POINT('',(0.,-0.0216180235816189,-0.0220873855155706));
#1674=CARTESIAN_POINT('',(-0.0021011881850274,-0.02032,0.0172826144844293));
#1675=CARTESIAN_POINT('',(-0.00234752948601762,-0.0207187673555818,0.0172826144844293));
#1676=CARTESIAN_POINT('',(-0.00259503782206692,-0.0216472350958432,0.0171768183750301));
#1677=CARTESIAN_POINT('',(-0.0022146600337687,-0.0229305634180916,0.0166236139027652));
#1678=CARTESIAN_POINT('',(-0.00148718237269447,-0.023666352271246,0.0160435818945573));
#1679=CARTESIAN_POINT('',(-0.000694875672426915,-0.0240204136680058,0.0156864237767331));
#1680=CARTESIAN_POINT('',(3.32703593407716E-6,-0.0241218241009777,0.0155713800989836));
#1681=CARTESIAN_POINT('',(0.000698692096824078,-0.0240191546763404,0.0156878143991619));
#1682=CARTESIAN_POINT('',(0.00149092562714933,-0.023663684727487,0.0160459573963732));
#1683=CARTESIAN_POINT('',(0.00221459037992967,-0.0229291557707649,0.0166240641410794));
#1684=CARTESIAN_POINT('',(0.00259500616896313,-0.0216485986572002,0.0171764130732733));
#1685=CARTESIAN_POINT('',(0.0023476387212285,-0.0207189441811324,0.0172826144844293));
#1686=CARTESIAN_POINT('',(0.0021011881850274,-0.02032,0.0172826144844293));
#1687=CARTESIAN_POINT('',(0.0021011881850274,-0.02032,-0.0187558848410845));
#1688=CARTESIAN_POINT('',(0.00234752948601762,-0.0207187673555818,-0.0187558848410845));
#1689=CARTESIAN_POINT('',(0.00259503782206693,-0.0216472350958432,-0.0186500887316852));
#1690=CARTESIAN_POINT('',(0.0022146600337687,-0.0229305634180916,-0.0180968842594204));
#1691=CARTESIAN_POINT('',(0.00148718237269447,-0.0236663522712461,-0.0175168522512124));
#1692=CARTESIAN_POINT('',(0.000694875672426912,-0.0240204136680058,-0.0171596941333882));
#1693=CARTESIAN_POINT('',(-3.32703593407742E-6,-0.0241218241009777,-0.0170446504556387));
#1694=CARTESIAN_POINT('',(-0.000698692096824068,-0.0240191546763404,-0.017161084755817));
#1695=CARTESIAN_POINT('',(-0.00149092562714933,-0.023663684727487,-0.0175192277530283));
#1696=CARTESIAN_POINT('',(-0.00221459037992966,-0.0229291557707649,-0.0180973344977345));
#1697=CARTESIAN_POINT('',(-0.00259500616896313,-0.0216485986572002,-0.0186496834299284));
#1698=CARTESIAN_POINT('',(-0.0023476387212285,-0.0207189441811324,-0.0187558848410845));
#1699=CARTESIAN_POINT('',(-0.0021011881850274,-0.02032,-0.0187558848410845));
#1700=CARTESIAN_POINT('',(-0.00084996409714222,-0.02032,-0.0136758848410845));
#1701=CARTESIAN_POINT('',(0.0133358999472856,-0.02032,-0.0136758848410845));
#1702=CARTESIAN_POINT('',(-0.0150358281415701,-0.02032,-0.0136758848410845));
#1703=CARTESIAN_POINT('',(-0.0150358281415701,-0.02032,-0.00039665028452873));
#1704=CARTESIAN_POINT('',(-0.0150358281415701,-0.02032,0.0122026144844294));
#1705=CARTESIAN_POINT('',(0.0133358999472856,-0.02032,-0.000396650284528729));
#1706=CARTESIAN_POINT('',(0.0133358999472856,-0.02032,0.0122026144844294));
#1707=CARTESIAN_POINT('',(-0.00084996409714222,-0.02032,0.0122026144844294));
#1708=CARTESIAN_POINT('',(-0.00084996409714222,-0.00508,-0.0136758848410845));
#1709=CARTESIAN_POINT('',(0.0133358999472856,-0.00508,-0.0136758848410845));
#1710=CARTESIAN_POINT('',(-0.0150358281415701,-0.00508,-0.0136758848410845));
#1711=CARTESIAN_POINT('',(-0.0150358281415701,-0.00508,-0.000736635178327556));
#1712=CARTESIAN_POINT('',(-0.0150358281415701,-0.00508,0.0122026144844294));
#1713=CARTESIAN_POINT('',(0.0133358999472856,-0.00508,-0.00073663517832756));
#1714=CARTESIAN_POINT('',(0.0133358999472856,-0.00508,0.0122026144844294));
#1715=CARTESIAN_POINT('',(-0.00084996409714222,-0.00508,0.0122026144844294));
#1716=CARTESIAN_POINT('',(0.,-0.01651,0.00552363926544786));
#1717=CARTESIAN_POINT('',(0.,-0.01651,0.00552363926544786));
#1718=CARTESIAN_POINT('',(0.,-0.01651,0.00314329138706761));
#1719=CARTESIAN_POINT('',(0.,-0.01651,0.00552363926544786));
#1720=CARTESIAN_POINT('',(-0.0237646344290403,-0.0113503815193789,0.00885098949772392));
#1721=CARTESIAN_POINT('',(-0.0231872218833593,-0.0110170122306965,0.00885098949772392));
#1722=CARTESIAN_POINT('',(-0.0243420469747213,-0.0116837508080613,0.00885098949772392));
#1723=CARTESIAN_POINT('',(-0.0243420469747213,-0.012350489385426,0.00885098949772392));
#1724=CARTESIAN_POINT('',(-0.0243420469747213,-0.0130172279627908,0.00885098949772392));
#1725=CARTESIAN_POINT('',(-0.0237646344290403,-0.0133505972514732,0.00885098949772392));
#1726=CARTESIAN_POINT('',(-0.0231872218833593,-0.0136839665401556,0.00885098949772392));
#1727=CARTESIAN_POINT('',(-0.0226098093376783,-0.0133505972514732,0.00885098949772392));
#1728=CARTESIAN_POINT('',(-0.0220323967919973,-0.0130172279627908,0.00885098949772392));
#1729=CARTESIAN_POINT('',(-0.0220323967919973,-0.012350489385426,0.00885098949772392));
#1730=CARTESIAN_POINT('',(-0.0220323967919973,-0.0116837508080613,0.00885098949772392));
#1731=CARTESIAN_POINT('',(-0.0226098093376783,-0.0113503815193789,0.00885098949772392));
#1732=CARTESIAN_POINT('',(0.0211497123612693,-0.013923386920144,0.0103451273854256));
#1733=CARTESIAN_POINT('',(0.0204542165378375,-0.0138210235286705,0.0103451273854256));
#1734=CARTESIAN_POINT('',(0.0218452081847011,-0.0140257503116174,0.0103451273854256));
#1735=CARTESIAN_POINT('',(0.0222816053938505,-0.0134746149560361,0.0103451273854256));
#1736=CARTESIAN_POINT('',(0.022718002603,-0.0129234796004549,0.0103451273854256));
#1737=CARTESIAN_POINT('',(0.0224589039887176,-0.0122699808534003,0.0103451273854256));
#1738=CARTESIAN_POINT('',(0.0221998053744352,-0.0116164821063456,0.0103451273854256));
#1739=CARTESIAN_POINT('',(0.0215043095510034,-0.0115141187148722,0.0103451273854256));
#1740=CARTESIAN_POINT('',(0.0208088137275716,-0.0114117553233988,0.0103451273854256));
#1741=CARTESIAN_POINT('',(0.0203724165184221,-0.0119628906789801,0.0103451273854256));
#1742=CARTESIAN_POINT('',(0.0199360193092727,-0.0125140260345613,0.0103451273854256));
#1743=CARTESIAN_POINT('',(0.0201951179235551,-0.0131675247816159,0.0103451273854256));
#1744=CARTESIAN_POINT('',(0.0172020454676344,0.385944175441192,0.0593288297960028));
#1745=MECHANICAL_DESIGN_GEOMETRIC_PRESENTATION_REPRESENTATION('',(#1058,
#1059),#1746);
#1746=(
GEOMETRIC_REPRESENTATION_CONTEXT(3)
GLOBAL_UNCERTAINTY_ASSIGNED_CONTEXT((#1749))
GLOBAL_UNIT_ASSIGNED_CONTEXT((#1754,#1753,#1752))
REPRESENTATION_CONTEXT('Assembly Inmoov Hand','TOP_LEVEL_ASSEMBLY_PART')
);
#1747=(
GEOMETRIC_REPRESENTATION_CONTEXT(3)
GLOBAL_UNCERTAINTY_ASSIGNED_CONTEXT((#1750))
GLOBAL_UNIT_ASSIGNED_CONTEXT((#1754,#1753,#1752))
REPRESENTATION_CONTEXT('Part 1','COMPONENT_PART')
);
#1748=(
GEOMETRIC_REPRESENTATION_CONTEXT(3)
GLOBAL_UNCERTAINTY_ASSIGNED_CONTEXT((#1751))
GLOBAL_UNIT_ASSIGNED_CONTEXT((#1754,#1753,#1752))
REPRESENTATION_CONTEXT('Part 1','COMPONENT_PART')
);
#1749=UNCERTAINTY_MEASURE_WITH_UNIT(LENGTH_MEASURE(1.E-8),#1754,
'DISTANCE_ACCURACY_VALUE','Maximum Tolerance applied to model');
#1750=UNCERTAINTY_MEASURE_WITH_UNIT(LENGTH_MEASURE(1.E-8),#1754,
'DISTANCE_ACCURACY_VALUE','Maximum Tolerance applied to model');
#1751=UNCERTAINTY_MEASURE_WITH_UNIT(LENGTH_MEASURE(2.E-5),#1754,
'DISTANCE_ACCURACY_VALUE','Maximum Tolerance applied to model');
#1752=(
NAMED_UNIT(*)
SI_UNIT($,.STERADIAN.)
SOLID_ANGLE_UNIT()
);
#1753=(
NAMED_UNIT(*)
PLANE_ANGLE_UNIT()
SI_UNIT($,.RADIAN.)
);
#1754=(
LENGTH_UNIT()
NAMED_UNIT(*)
SI_UNIT($,.METRE.)
);
#1755=PRODUCT_DEFINITION_SHAPE('','',#1760);
#1756=PRODUCT_DEFINITION_SHAPE('','',#1761);
#1757=PRODUCT_DEFINITION_SHAPE(' ','NAUO PRDDFN',#36);
#1758=PRODUCT_DEFINITION_SHAPE('','',#1762);
#1759=PRODUCT_DEFINITION_SHAPE(' ','NAUO PRDDFN',#37);
#1760=PRODUCT_DEFINITION('','',#1766,#1763);
#1761=PRODUCT_DEFINITION('','',#1767,#1764);
#1762=PRODUCT_DEFINITION('','',#1768,#1765);
#1763=PRODUCT_DEFINITION_CONTEXT('',#1782,'design');
#1764=PRODUCT_DEFINITION_CONTEXT('',#1782,'design');
#1765=PRODUCT_DEFINITION_CONTEXT('',#1782,'design');
#1766=PRODUCT_DEFINITION_FORMATION_WITH_SPECIFIED_SOURCE('','',#1772,
 .NOT_KNOWN.);
#1767=PRODUCT_DEFINITION_FORMATION_WITH_SPECIFIED_SOURCE('','',#1773,
 .NOT_KNOWN.);
#1768=PRODUCT_DEFINITION_FORMATION_WITH_SPECIFIED_SOURCE('','',#1774,
 .NOT_KNOWN.);
#1769=PRODUCT_RELATED_PRODUCT_CATEGORY('','',(#1772));
#1770=PRODUCT_RELATED_PRODUCT_CATEGORY('','',(#1773));
#1771=PRODUCT_RELATED_PRODUCT_CATEGORY('','',(#1774));
#1772=PRODUCT('Assembly Inmoov Hand','Assembly Inmoov Hand',
'Assembly Inmoov Hand',(#1778));
#1773=PRODUCT('Part 1','Part 1','Part 1',(#1779));
#1774=PRODUCT('Part 1','Part 1','Part 1',(#1780));
#1775=PRODUCT_CATEGORY('','');
#1776=PRODUCT_CATEGORY('','');
#1777=PRODUCT_CATEGORY('','');
#1778=PRODUCT_CONTEXT('',#1782,'mechanical');
#1779=PRODUCT_CONTEXT('',#1782,'mechanical');
#1780=PRODUCT_CONTEXT('',#1782,'mechanical');
#1781=APPLICATION_PROTOCOL_DEFINITION('international standard',
'ap242_managed_model_based_3d_engineering',2011,#1782);
#1782=APPLICATION_CONTEXT('managed model based 3d engineering');
ENDSEC;
END-ISO-10303-21;
