**ABCDEFGHIJKLMNOPQRSTUVWXYZabcdefghijklmnopqrstuvwxyz**************************
**PARASOLID !"#$%&'()*+,-./:;<=>?@[\]^_`{|}~0123456789**************************
**PART1;
MC=unknown;
MC_MODEL=unknown;
MC_ID=unknown;
OS=unknown;
OS_RELEASE=unknown;
FRU=Parasolid 37.0.173;
APPL=Onshape;
SITE=unknown;
USER=unknown;
FORMAT=text;
GUISE=transmit;
KEY=BTGapi::writeModels_.xmt;
FILE=BTGapi::writeModels_.xmt;
DATE=2025-03-04T02:35:11 (UTC);
**PART2;
SCH=SCH_3700173_36001;
USFLD_SIZE=0;
**PART3;
**END_OF_HEADER*****************************************************************
T51 : TRANSMIT FILE created by modeller version 370017323 SCH_3700173_36001_1300
6231 0 176 6 14 PART_XMT_BLOCK9 Part list9 n_entries0 0 1 d16 index_map_offset0
 0 1 d9 index_map82 0 20 schema_embedding_map82 0 16 mesh_offset_data206 0 7 ent
ries1005 1 T4 1 4 0 0 0 0 2 3 4 5 12 36 CCCI7 lattice222 0 CCCI4 mesh1006 0 I8 p
olyline1008 0 CCCCCCCDI5 owner1040 0 CCCI16 boundary_lattice222 0 CCCI13 boundar
y_mesh1006 0 I17 boundary_polyline1008 0 CCCA16 index_map_offset0 0 1 dA9 index_
map82 0 A17 node_id_index_map82 0 A20 schema_embedding_map82 0 A5 child12 0 A14
 lowest_node_id0 0 1 dA16 mesh_offset_data206 0 Z2 28 6 7 0 0 0 0 0 0 0 1e3 1e-8
 0 8 9 1 0 3 2 10 0 11 12 0 0 0 13 14 0 0 0 0 0 0 0 0 12 3 28 15 16 0 0 0 0 0 0
 0 1e3 1e-8 0 17 18 1 0 3 2 19 0 20 21 0 0 0 22 23 0 0 0 0 0 0 0 0 12 4 28 24 25
 0 0 0 0 0 0 0 1e3 1e-8 0 26 27 1 0 3 2 28 0 29 30 0 0 0 31 32 0 0 0 0 0 0 0 0 1
2 5 28 33 34 0 0 0 0 0 0 0 1e3 1e-8 0 35 0 1 0 3 2 36 0 37 38 0 0 0 39 40 0 0 0
 0 0 0 0 0 81 255 1 33 27 41 5 42 0 0 0 43 70 11 CI9 list_type0 0 1 uI10 notrans
mit0 0 1 lCCCDCCDI12 finger_index0 0 1 dI12 finger_block1012 0 CZ34 0 4 T5 0 0 5
 20 1 44 44 13 255 36 3 0 5 0 45 0 0 39 45 51 255 37 18 0 45 0 0 0 +-.0476924394
710982 -.03497484063726075 -.0261206277725048 .003086413507097805 0 .99999523701
4489 .000897050078932641 .999995237014489 0 -.003086413507097805 31 255 38 13 0
 40 46 0 0 +-.0476334865039819 -.03497484063726075 -.00701991874933847 .00308641
3507097805 0 .999995237014489 .999995237014489 0 -.003086413507097805 .000897050
078932641 19 9 CCCCCCI5 frame230 0 CA5 owner12 0 Z39 1 0 5 0 0 36 0 V0 16 255 40
 9 47 ?48 0 49 38 0 0 5 81 1 47 22 50 40 0 0 51 52 53 17 255 48 0 0 0 0 0 54 40
 0 0 +16 49 2 51 ?55 40 0 46 0 0 5 81 1 51 21 50 49 0 0 0 47 56 17 55 0 57 55 55
 0 58 49 0 0 +31 46 4 0 49 0 38 0 +-.0476924394710982 -.03497484063726075 -.0261
206277725048 .003086413507097805 0 .999995237014489 .999995237014489 0 -.0030864
13507097805 .000897050078932641 15 255 57 14 0 55 45 59 17 58 0 0 0 0 0 55 49 0
 0 -14 255 45 15 60 ?0 0 57 36 37 +0 0 0 0 36 15 59 16 0 54 45 0 17 54 0 59 54 5
4 0 48 40 0 0 -81 1 60 28 61 45 52 0 0 0 62 80 7 CCCCCDI12 legal_owners0 17 1 lC
Z1 61 0 63 8001 0 0 0 0 3 5 0 0 0 FFFFTFTFFFFFFFFFF2 81 1 52 23 50 45 0 60 47 64
 65 83 255 3 62 .768627450980392 .886274509803922 .952941176470588 80 1 50 66 67
 9000 0 0 0 0 3 6 0 0 0 FFTFTFTTFFFFFFFFF1 81 1 64 24 50 5 0 68 52 0 69 82 255 3
 65 43 0 2 81 1 68 25 70 5 64 42 0 0 71 82 3 69 43 0 3 80 1 70 72 73 8038 0 0 0
 0 0 0 0 0 0 TTTTTTTTTTTTTFTFT10 81 1 42 26 72 5 68 33 0 0 74 98 255 9 71 83 117
 114 102 97 99 101 32 52 80 1 72 75 76 8017 0 0 0 0 0 0 0 0 0 TTTTTTTTTTTTTFTFT3
 84 255 9 74 Surface 479 255 13 76 SDL/TYSA_NAME79 14 73 SDL/TYSA_UNAME79 9 67 B
TI/DetId79 15 63 SDL/TYSA_COLOUR82 3 56 43 0 1 82 3 53 43 1 1 74 4 CI16 index_ma
p_offset0 0 1 dCCZ20 44 5 0 0 64 68 42 33 60 0 0 0 0 0 0 0 0 0 0 0 0 0 0 0 80 1
 41 61 77 8040 0 0 0 0 3 5 0 0 0 TTTFFFFFFFFFFFFFF2 83 3 43 .768627450980392 .88
6274509803922 .952941176470588 79 17 77 SDL/TYSA_COLOUR_281 1 24 27 41 4 78 0 0
 0 79 70 25 0 4 T4 0 0 5 20 1 80 80 13 28 3 0 4 0 81 0 0 31 81 51 29 18 0 81 0 0
 0 +.02158910036087035 -.03387588262557985 -.0466347225010395 150396496972472e-3
0 0 -1 .01421489985960148 -1 0 -150396496972472e-30 31 30 13 0 32 82 0 0 +.02158
910036087035 -.03387588262557985 -.0720347225010395 150396496972472e-30 0 -1 1 0
 150396496972472e-30 .01421489985960148 19 31 1 0 4 0 0 28 0 V0 16 32 9 83 ?84 0
 85 30 0 0 4 81 1 83 22 50 32 0 0 86 87 88 17 84 0 0 0 0 0 89 32 0 0 +16 85 2 86
 ?90 32 0 82 0 0 4 81 1 86 21 50 85 0 0 0 83 91 17 90 0 92 90 90 0 93 85 0 0 +31
 82 4 0 85 0 30 0 +.02158910036087035 -.03387588262557985 -.0466347225010395 150
396496972472e-30 0 -1 1 0 150396496972472e-30 .01421489985960148 15 92 14 0 90 8
1 94 17 93 0 0 0 0 0 90 85 0 0 -14 81 15 95 ?0 0 92 28 29 +0 0 0 0 28 15 94 16 0
 89 81 0 17 89 0 94 89 89 0 84 32 0 0 -81 1 95 28 61 81 87 0 0 0 96 81 1 87 23 5
0 81 0 95 83 97 98 83 3 96 .231372549019608 .380392156862745 .705882352941177 81
 1 97 24 50 4 0 99 87 0 100 82 3 98 21 0 2 81 1 99 25 70 4 97 78 0 0 101 82 3 10
0 21 0 3 81 1 78 26 72 4 99 24 0 0 102 98 9 101 83 117 114 102 97 99 101 32 50 8
4 9 102 Surface 282 3 91 21 0 1 82 3 88 21 1 1 74 20 80 5 0 0 97 99 78 24 95 0 0
 0 0 0 0 0 0 0 0 0 0 0 0 0 83 3 79 .231372549019608 .380392156862745 .7058823529
41177 81 1 15 27 41 3 103 0 0 0 104 70 16 0 4 T3 0 0 5 20 1 105 105 13 19 3 0 3
 0 106 0 0 22 106 51 20 18 0 106 0 0 0 +-.0200591627508402 -.03398505970835685 .
0268022157251835 0 0 1 .01404669863785746 1 0 0 31 21 13 0 23 107 0 0 +-.0200591
627508402 -.03398505970835685 .0582982157251835 0 0 1 1 0 0 .01404669863785746 1
9 22 1 0 3 0 0 19 0 V0 16 23 9 108 ?109 0 110 21 0 0 3 81 1 108 22 50 23 0 0 111
 112 113 17 109 0 0 0 0 0 114 23 0 0 +16 110 2 111 ?115 23 0 107 0 0 3 81 1 111
 21 50 110 0 0 0 108 116 17 115 0 117 115 115 0 118 110 0 0 +31 107 4 0 110 0 21
 0 +-.0200591627508402 -.03398505970835685 .0268022157251835 0 0 1 1 0 0 .014046
69863785746 15 117 14 0 115 106 119 17 118 0 0 0 0 0 115 110 0 0 -14 106 15 120
 ?0 0 117 19 20 +0 0 0 0 19 15 119 16 0 114 106 0 17 114 0 119 114 114 0 109 23
 0 0 -81 1 120 28 61 106 112 0 0 0 121 81 1 112 23 50 106 0 120 108 122 123 83 3
 121 .647058823529412 .647058823529412 .647058823529412 81 1 122 24 50 3 0 124 1
12 0 125 82 3 123 13 0 2 81 1 124 25 70 3 122 103 0 0 126 82 3 125 13 0 3 81 1 1
03 26 72 3 124 15 0 0 127 98 9 126 83 117 114 102 97 99 101 32 49 84 9 127 Surfa
ce 182 3 116 13 0 1 82 3 113 13 1 1 74 20 105 5 0 0 122 124 103 15 120 0 0 0 0 0
 0 0 0 0 0 0 0 0 0 0 83 3 104 .647058823529412 .647058823529412 .647058823529412
 81 1 6 27 41 2 128 0 0 0 129 70 7 0 4 T2 0 0 5 20 1 130 130 13 10 3 0 2 0 131 0
 0 13 131 51 11 18 0 131 0 0 0 +.0490734466018026 -.0344098446845572 .0043631512
67170905 944877887274101e-31 933355048569243e-31 -1 .000957454971827603 -1 0 -94
4877887274102e-31 31 12 13 0 14 132 0 0 +.0490734466018026 -.0344098446845572 -.
0146868487328291 944877887274101e-31 933355048569243e-31 -1 1 -881906546368722e-
47 944877887274101e-31 .000957454971827603 19 13 1 0 2 0 0 10 0 V0 16 14 9 133 ?
134 0 135 12 0 0 2 81 1 133 22 50 14 0 0 136 137 138 17 134 0 0 0 0 0 139 14 0 0
 +16 135 2 136 ?140 14 0 132 0 0 2 81 1 136 21 50 135 0 0 0 133 141 17 140 0 142
 140 140 0 143 135 0 0 +31 132 4 0 135 0 12 0 +.0490734466018026 -.0344098446845
572 .004363151267170905 944877887274101e-31 933355048569243e-31 -1 1 -8819065463
68722e-47 944877887274101e-31 .000957454971827603 15 142 14 0 140 131 144 17 143
 0 0 0 0 0 140 135 0 0 -14 131 15 145 ?0 0 142 10 11 +0 0 0 0 10 15 144 16 0 139
 131 0 17 139 0 144 139 139 0 134 14 0 0 -81 1 145 28 61 131 137 0 0 0 146 81 1
 137 23 50 131 0 145 133 147 148 83 3 146 .917647058823529 .917647058823529 .917
647058823529 81 1 147 24 50 2 0 149 137 0 150 82 3 148 32 0 2 81 1 149 25 70 2 1
47 128 0 0 151 82 3 150 32 0 3 81 1 128 26 72 2 149 6 0 0 152 98 9 151 83 117 11
4 102 97 99 101 32 51 84 9 152 Surface 382 3 141 32 0 1 82 3 138 32 1 1 74 20 13
0 5 0 0 147 149 128 6 145 0 0 0 0 0 0 0 0 0 0 0 0 0 0 0 83 3 129 .91764705882352
9 .917647058823529 .917647058823529 1 0 
