**ABCDEFGHIJKLMNOPQRSTUVWXYZabcdefghijklmnopqrstuvwxyz**************************
**PARASOLID !"#$%&'()*+,-./:;<=>?@[\]^_`{|}~0123456789**************************
**PART1;
MC=unknown;
MC_MODEL=unknown;
MC_ID=unknown;
OS=unknown;
OS_RELEASE=unknown;
FRU=Parasolid 37.0.173;
APPL=Onshape;
SITE=unknown;
USER=unknown;
FORMAT=text;
GUISE=transmit;
KEY=BTGapi::writeModels_.xmt;
FILE=BTGapi::writeModels_.xmt;
DATE=2025-03-04T02:34:33 (UTC);
**PART2;
SCH=SCH_3700173_36001;
USFLD_SIZE=0;
**PART3;
**END_OF_HEADER*****************************************************************
T51 : TRANSMIT FILE created by modeller version 370017323 SCH_3700173_36001_1300
6231 0 12 36 CCCI7 lattice222 0 CCCI4 mesh1006 0 I8 polyline1008 0 CCCCCCCDI5 ow
ner1040 0 CCCI16 boundary_lattice222 0 CCCI13 boundary_mesh1006 0 I17 boundary_p
olyline1008 0 CCCA16 index_map_offset0 0 1 dA9 index_map82 0 A17 node_id_index_m
ap82 0 A20 schema_embedding_map82 0 A5 child12 0 A14 lowest_node_id0 0 1 dA16 me
sh_offset_data206 0 Z1 2068 2 3 0 0 0 0 0 0 0 1e3 1e-8 0 4 5 1 0 1 2 6 0 7 8 9 0
 0 10 11 12 0 0 0 0 0 0 0 81 255 2 2 2068 13 1 14 0 0 0 15 16 70 11 CI9 list_typ
e0 0 1 uI10 notransmit0 0 1 lCCCDCCDI12 finger_index0 0 1 dI12 finger_block1012
 0 CZ3 0 4 T1 0 0 6 20 1 17 17 13 255 6 137 0 1 0 18 0 0 19 0 51 255 7 590 0 20
 21 0 0 +.000837373857696784 -.00508 .0217222157251835 -1 0 0 .00508 0 0 1 31 25
5 8 610 0 22 23 0 0 +.0418947111201285 -.00508 .0217222157251835 1 0 -1365923996
832132e-30 -1365923996832132e-30 0 -1 .00508 29 255 9 1723 0 12 24 0 -.045177826
1988846 -.0312786267399087 -.00706237620597919 19 9 CCCCCCI5 frame230 0 CA5 owne
r12 0 Z10 48 0 1 19 0 25 0 V0 16 255 11 452 26 ?27 0 28 29 0 0 1 18 255 12 1721
 30 31 0 32 9 ?1 81 1 30 1858 33 12 0 0 34 35 36 17 255 31 0 37 38 39 12 40 41 0
 42 -18 32 1717 43 39 12 44 24 ?1 81 1 43 1860 33 32 0 0 35 45 46 17 39 0 37 31
 47 32 48 49 0 40 -18 44 1710 45 47 32 50 51 ?1 29 24 1719 0 32 51 9 -.045186943
77949 -.0312786267399087 -.01001646422999204 29 51 1712 0 44 52 24 -.04518694377
949 -.03908509773433485 -.01001646422999204 29 52 1567 0 50 53 51 -.045236671517
8506 -.03869052625352465 -.0261282073239873 18 50 1565 54 55 44 56 52 ?1 29 53 1
564 0 56 57 52 -.0452457891050041 -.03869052625352465 -.029082297469574 18 56 15
62 58 59 50 60 53 ?1 29 57 1558 0 60 61 53 -.0452366715178506 -.0308840526405903
5 -.0261282073239873 18 60 1556 62 63 56 64 57 ?1 29 61 1181 0 64 65 57 .0469747
111201285 -.03031540289521215 -.01466439989778204 18 64 1179 66 67 60 68 61 ?1 2
9 65 1177 0 68 69 61 .0469747111201285 -.0303154028952122 -.01196782338050202 18
 68 1175 70 71 64 72 65 ?1 29 69 1170 0 72 73 65 .0469747111201285 -.03824840858
57868 -.01196782338050202 18 72 1168 74 75 68 76 69 ?1 29 73 925 0 76 77 69 .046
9747111201285 -.0296354331076145 .00436315126717091 18 76 923 78 79 72 80 73 ?1
 29 77 921 0 80 81 73 .0469747111201285 -.0296354331076145 .00730969524011016 18
 80 919 82 83 76 84 77 ?1 29 81 914 0 84 85 77 .0469747111201285 -.0389283783733
845 .00730969524011016 18 84 912 86 87 80 88 81 ?1 29 85 450 0 88 89 81 -.040204
26015335815 0 -.0415547225010395 18 88 448 90 91 84 92 85 ?1 29 89 446 0 92 93 8
5 .0418947111201285 0 -.0415547225010395 18 92 444 94 95 88 96 89 ?1 29 93 442 0
 96 97 89 .0418947111201285 0 .0217222157251835 18 96 440 98 99 92 100 93 ?1 29
 97 439 0 100 101 93 -.04000896042631915 0 .0217222157251835 18 100 437 102 103
 96 104 97 ?1 29 101 430 0 104 105 97 -.0452842359573917 -.063754 -.041539043520
42345 18 104 428 106 107 100 108 101 ?1 29 105 426 0 108 109 101 -.0450889362303
528 -.063754 .02173789470579955 18 108 424 110 111 104 112 105 ?1 29 109 422 0 1
12 113 105 -.0452842359573917 -.00508 -.04153904352042345 18 112 420 114 115 108
 116 109 ?1 29 113 419 0 116 117 109 -.0450889362303528 -.00508 .021737894705799
55 18 116 417 118 119 112 120 113 ?1 29 117 410 0 120 121 113 .0469747111201285
 -.063754 -.0415547225010395 18 120 408 122 123 116 124 117 ?1 29 121 406 0 124
 125 117 .0469747111201285 -.063754 .0217222157251835 18 124 404 126 127 120 128
 121 ?1 29 125 402 0 128 129 121 .0469747111201285 -.00508 .0217222157251835 18
 128 400 130 131 124 132 125 ?1 29 129 399 0 132 133 125 .0469747111201285 -.005
08 -.0415547225010395 18 132 397 134 135 128 136 129 ?1 29 133 390 0 136 137 129
 .0418947111201285 -.063754 .0268022157251835 18 136 388 138 139 132 140 133 ?1
 29 137 386 0 140 141 133 -.04000896042631915 -.063754 .0268022157251835 18 140
 384 142 143 136 144 137 ?1 29 141 382 0 144 145 137 -.04000896042631915 -.00508
 .0268022157251835 18 144 380 146 147 140 148 141 ?1 29 145 379 0 148 149 141 .0
418947111201285 -.00508 .0268022157251835 18 148 377 150 151 144 152 145 ?1 29 1
49 370 0 152 153 145 .0418947111201285 -.068834 -.0415547225010395 18 152 368 15
4 155 148 156 149 ?1 29 153 366 0 156 157 149 .0418947111201285 -.068834 .021722
2157251835 18 156 364 158 159 152 160 153 ?1 29 157 362 0 160 161 153 -.04020426
015335815 -.068834 -.0415547225010395 18 160 360 162 163 156 164 157 ?1 29 161 3
59 0 164 165 157 -.04000896042631915 -.068834 .0217222157251835 18 164 357 166 1
67 160 168 161 ?1 29 165 350 0 168 169 161 .0418947111201285 -.063754 -.04663472
25010395 18 168 348 170 171 164 172 165 ?1 29 169 346 0 172 173 165 -.0402042601
5335815 -.063754 -.0466347225010395 18 172 344 174 175 168 176 169 ?1 29 173 342
 0 176 177 169 .0418947111201285 -.00508 -.0466347225010395 18 176 340 178 179 1
72 180 173 ?1 29 177 339 0 180 181 173 -.04020426015335815 -.00508 -.04663472250
10395 18 180 337 182 183 176 184 177 ?1 29 181 1047 0 185 186 177 .0469747111201
285 -.0389283783733845 .004363151267170905 18 185 989 187 188 189 190 181 ?1 29
 186 1051 0 184 191 181 .0512927111201285 -.0389283783733845 .004363151267170905
 18 184 995 192 193 180 194 186 ?1 29 191 1052 0 194 195 186 .0512927111201285 -
.0389283783733845 .00730969524011016 18 194 1001 196 197 184 198 191 ?1 29 195 1
053 0 198 199 191 .0512927111201285 -.0296354331076145 .00730969524011016 18 198
 999 200 201 194 189 195 ?1 29 199 1054 0 189 202 195 .0512927111201285 -.029635
4331076145 .004363151267170905 18 189 987 203 204 198 185 199 ?1 29 202 1303 0 2
05 206 199 .0469747111201285 -.0382484085857868 -.01466439989778204 18 205 1245
 207 208 209 210 202 ?1 29 206 1307 0 190 211 202 .0512927111201285 -.0382484085
857868 -.01466439989778204 18 190 1251 212 213 185 214 206 ?1 29 211 1308 0 214
 215 206 .0512927111201285 -.0382484085857868 -.01196782338050202 18 214 1257 21
6 217 190 218 211 ?1 29 215 1309 0 218 219 211 .0512927111201285 -.0303154028952
1215 -.01196782338050202 18 218 1255 220 221 214 209 215 ?1 29 219 1310 0 209 22
2 215 .0512927111201285 -.03031540289521215 -.01466439989778204 18 209 1243 223
 224 218 205 219 ?1 29 222 1689 0 225 226 219 -.0452457891050041 -.0308840526405
9035 -.029082297469574 18 225 1631 227 228 229 230 222 ?1 29 226 1691 0 210 231
 222 -.0503166473218843 -.03869052625352465 -.02611252834337125 18 210 1635 232
 233 205 234 226 ?1 29 231 1692 0 234 235 226 -.0503257649090377 -.0386905262535
2465 -.02906661848895795 18 234 1641 236 237 210 238 231 ?1 29 235 1693 0 238 23
9 231 -.0503257649090377 -.03088405264059035 -.02906661848895795 18 238 1639 240
 241 234 229 235 ?1 29 239 1694 0 229 242 235 -.0503166473218843 -.0308840526405
9035 -.02611252834337125 18 229 1627 243 244 238 225 239 ?1 29 242 1845 0 245 24
6 239 -.0451778261988846 -.03908509773433485 -.00706237620597919 18 245 1787 35
 38 247 0 242 ?1 29 246 1849 0 230 248 242 -.0502578020029182 -.0390850977343348
5 -.00704669722536314 18 230 1793 249 250 225 251 246 ?1 29 248 1850 0 251 252 2
46 -.0502669195835236 -.03908509773433485 -.010000785249376 18 251 1799 253 254
 230 255 248 ?1 29 252 1851 0 255 256 248 -.0502669195835236 -.0312786267399087
 -.010000785249376 18 255 1797 257 258 251 247 252 ?1 29 256 1852 0 247 0 252 -.
0502578020029182 -.0312786267399087 -.00704669722536314 18 247 1785 259 260 255
 245 256 ?1 81 1 259 1786 33 247 0 0 261 249 262 17 260 0 263 264 265 247 42 266
 0 267 -15 255 263 1804 0 265 268 0 17 264 0 263 269 260 230 270 271 0 272 +17 2
65 0 263 260 269 12 38 273 0 0 -17 42 0 274 40 267 12 260 266 0 265 +16 266 1752
 275 ?42 276 277 278 0 0 1 17 267 0 274 42 279 247 258 280 0 270 -15 274 1808 0
 40 281 0 17 279 0 274 267 40 255 282 277 0 283 -17 258 0 284 254 270 255 267 28
0 0 279 +16 280 1769 285 ?258 286 271 287 0 0 1 17 270 0 284 258 272 247 264 271
 0 0 -15 284 1820 0 270 288 0 17 272 0 284 270 254 230 289 290 0 0 -16 271 1741
 291 ?264 280 292 293 0 0 1 81 1 291 1743 33 271 0 0 294 295 296 16 292 1780 297
 ?47 271 49 298 0 0 1 30 255 293 1844 0 271 0 287 0 +-.0502578020029182 -.035181
8622371218 -.00704669722536314 0 -1 0 30 287 1843 0 280 293 299 0 +-.05026236079
32209 -.0312786267399087 -.00852374123736956 -.003086413507097805 0 -.9999952370
14489 30 299 1842 0 286 287 300 0 +-.0502669195835236 -.0351818622371218 -.01000
0785249376 0 -1 0 16 286 1772 261 ?254 290 280 299 0 0 1 30 300 1841 0 290 299 3
01 0 +-.0502623607932209 -.03908509773433485 -.00852374123736956 -.0030864135070
97805 0 -.999995237014489 16 290 1763 302 ?289 303 286 300 0 0 1 30 301 1840 0 2
73 300 304 0 +-.0451778261988846 -.0351818622371218 -.00706237620597919 0 -1 0 1
6 273 1775 305 ?38 41 0 301 0 0 1 30 304 1839 0 41 301 306 0 +-.0451823849891873
 -.0312786267399087 -.00853942021798562 -.003086413507097805 0 -.999995237014489
 16 41 1747 307 ?40 49 273 304 0 0 1 30 306 1838 0 49 304 298 0 +-.0451869437794
9 -.0351818622371218 -.01001646422999204 0 -1 0 16 49 1755 308 ?48 292 41 306 0
 0 1 30 298 1837 0 292 306 309 0 +-.0451823849891873 -.03908509773433485 -.00853
942021798562 -.003086413507097805 0 -.999995237014489 30 309 1836 0 303 298 310
 0 +-.0502578020029182 -.03908509773433485 -.00704669722536314 .999995237014489
 0 -.003086413507097805 16 303 1744 295 ?269 311 290 309 0 0 1 30 310 1835 0 311
 309 312 0 +-.0502669195835236 -.03908509773433485 -.010000785249376 .9999952370
14489 0 -.003086413507097805 16 311 1766 313 ?314 277 303 310 0 0 1 30 312 1834
 0 277 310 278 0 +-.0502669195835236 -.0312786267399087 -.010000785249376 .99999
5237014489 0 -.003086413507097805 16 277 1760 315 ?282 266 311 312 0 0 1 30 278
 1833 0 266 312 316 0 +-.0502578020029182 -.0312786267399087 -.00704669722536314
 .999995237014489 0 -.003086413507097805 30 316 1686 0 317 278 318 0 +-.05031664
73218843 -.0347872894470575 -.02611252834337125 0 -1 0 16 317 1583 319 ?320 321
 322 316 0 0 1 30 318 1685 0 321 316 323 0 +-.050321206115461 -.0308840526405903
5 -.0275895734161646 -.003086413507097805 0 -.999995237014489 16 321 1611 324 ?2
41 325 317 318 0 0 1 30 323 1684 0 325 318 326 0 +-.0503257649090377 -.034787289
4470575 -.02906661848895795 0 -1 0 16 325 1614 327 ?237 328 321 323 0 0 1 30 326
 1683 0 328 323 329 0 +-.050321206115461 -.03869052625352465 -.0275895734161646
 -.003086413507097805 0 -.999995237014489 16 328 1605 330 ?331 332 325 326 0 0 1
 30 329 1682 0 276 326 333 0 +-.0452366715178506 -.0347872894470575 -.0261282073
239873 0 -1 0 16 276 1617 334 ?55 335 266 329 0 0 1 30 333 1681 0 335 329 336 0
 +-.0452412303114274 -.03088405264059035 -.02760525239678065 -.00308641350709780
5 0 -.999995237014489 16 335 1589 337 ?338 339 276 333 0 0 1 30 336 1680 0 339 3
33 340 0 +-.0452457891050041 -.0347872894470575 -.029082297469574 0 -1 0 16 339
 1597 341 ?342 322 335 336 0 0 1 30 340 1679 0 322 336 343 0 +-.0452412303114274
 -.03869052625352465 -.02760525239678065 -.003086413507097805 0 -.99999523701448
9 16 322 1622 294 ?59 317 339 340 0 0 1 30 343 1678 0 332 340 344 0 +-.050316647
3218843 -.03869052625352465 -.02611252834337125 .999995237014489 0 -.00308641350
7097805 16 332 1586 345 ?346 347 328 343 0 0 1 30 344 1677 0 347 343 348 0 +-.05
03257649090377 -.03869052625352465 -.02906661848895795 .999995237014489 0 -.0030
86413507097805 16 347 1608 349 ?350 351 332 344 0 0 1 30 348 1676 0 351 344 352
 0 +-.0503257649090377 -.03088405264059035 -.02906661848895795 .999995237014489
 0 -.003086413507097805 16 351 1602 353 ?354 355 347 348 0 0 1 30 352 1675 0 355
 348 356 0 +-.0503166473218843 -.03088405264059035 -.02611252834337125 .99999523
7014489 0 -.003086413507097805 16 355 1594 357 ?358 359 351 352 0 0 1 30 356 130
2 0 360 352 361 0 +.0512927111201285 -.0342819057404995 -.01466439989778204 0 -1
 0 16 360 1199 362 ?363 364 365 356 0 0 1 30 361 1301 0 364 356 366 0 +.05129271
11201285 -.03031540289521215 -.01331611163914202 -944877887274102e-31 0 1 16 364
 1227 367 ?221 368 360 361 0 0 1 30 366 1300 0 368 361 369 0 +.0512927111201285
 -.0342819057404995 -.01196782338050202 0 -1 0 16 368 1230 370 ?217 371 364 366
 0 0 1 30 369 1299 0 371 366 372 0 +.0512927111201285 -.0382484085857868 -.01331
611163914202 -944877887274102e-31 0 1 16 371 1221 373 ?374 375 368 369 0 0 1 30
 372 1298 0 359 369 376 0 +.0469747111201285 -.0342819057404995 -.01466439989778
204 0 -1 0 16 359 1233 377 ?208 378 355 372 0 0 1 30 376 1297 0 378 372 379 0 +.
0469747111201285 -.03031540289521215 -.01331611163914202 -944877887274102e-31 0
 1 16 378 1205 380 ?381 382 359 376 0 0 1 30 379 1296 0 382 376 383 0 +.04697471
11201285 -.0342819057404995 -.01196782338050202 0 -1 0 16 382 1213 384 ?385 365
 378 379 0 0 1 30 383 1295 0 365 379 386 0 +.0469747111201285 -.0382484085857868
 -.01331611163914202 -944877887274102e-31 0 1 16 365 1238 387 ?75 360 382 383 0
 0 1 30 386 1294 0 375 383 388 0 +.0512927111201285 -.0382484085857868 -.0146643
9989778204 -1 0 -944877887274102e-31 16 375 1202 389 ?390 391 371 386 0 0 1 30 3
88 1293 0 391 386 392 0 +.0512927111201285 -.0382484085857868 -.0119678233805020
2 -1 0 -944877887274102e-31 16 391 1224 393 ?394 395 375 388 0 0 1 30 392 1292 0
 395 388 396 0 +.0512927111201285 -.03031540289521215 -.01196782338050202 -1 0 -
944877887274102e-31 16 395 1218 397 ?398 399 391 392 0 0 1 30 396 1291 0 399 392
 400 0 +.0512927111201285 -.03031540289521215 -.01466439989778204 -1 0 -94487788
7274102e-31 16 399 1210 401 ?402 403 395 396 0 0 1 30 400 1046 0 404 396 405 0 +
.0512927111201285 -.0342819057404995 .004363151267170905 881906546368723e-47 -1
 -933355048569243e-31 16 404 943 406 ?407 408 409 400 0 0 1 30 405 1045 0 408 40
0 410 0 +.0512927111201285 -.0296354331076145 .00583642325364053 -94487788727410
2e-31 0 1 16 408 971 411 ?201 412 404 405 0 0 1 30 410 1044 0 412 405 413 0 +.05
12927111201285 -.0342819057404995 .00730969524011016 881906546368723e-47 -1 -933
355048569243e-31 16 412 974 414 ?197 415 408 410 0 0 1 30 413 1043 0 415 410 416
 0 +.0512927111201285 -.0389283783733845 .00583642325364053 -944877887274102e-31
 0 1 16 415 965 417 ?418 419 412 413 0 0 1 30 416 1042 0 403 413 420 0 +.0469747
111201285 -.0342819057404995 .004363151267170905 881906546368723e-47 -1 -9333550
48569243e-31 16 403 977 421 ?188 422 399 416 0 0 1 30 420 1041 0 422 416 423 0 +
.0469747111201285 -.0296354331076145 .00583642325364053 -944877887274102e-31 0 1
 16 422 949 424 ?425 426 403 420 0 0 1 30 423 1040 0 426 420 427 0 +.04697471112
01285 -.0342819057404995 .00730969524011016 881906546368723e-47 -1 -933355048569
243e-31 16 426 957 428 ?429 409 422 423 0 0 1 30 427 1039 0 409 423 430 0 +.0469
747111201285 -.0389283783733845 .00583642325364053 -944877887274102e-31 0 1 16 4
09 982 431 ?87 404 426 427 0 0 1 30 430 1038 0 419 427 432 0 +.0512927111201285
 -.0389283783733845 .004363151267170905 -1 0 -944877887274101e-31 16 419 946 433
 ?434 435 415 430 0 0 1 30 432 1037 0 435 430 436 0 +.0512927111201285 -.0389283
783733845 .00730969524011016 -1 0 -944877887274101e-31 16 435 968 437 ?438 439 4
19 432 0 0 1 30 436 1036 0 439 432 440 0 +.0512927111201285 -.0296354331076145 .
00730969524011016 -1 0 -944877887274101e-31 16 439 962 441 ?442 443 435 436 0 0
 1 30 440 1035 0 443 436 444 0 +.0512927111201285 -.0296354331076145 .0043631512
67170905 -1 0 -944877887274101e-31 16 443 954 445 ?446 447 439 440 0 0 1 31 444
 319 0 448 440 449 0 +.02158910036087035 -.03387588262557985 -.0212347225010395
 150396496972472e-30 0 -1 -1 0 -150396496972472e-30 .01411839825523912 16 448 29
2 450 ?451 452 453 444 0 0 1 31 449 318 0 453 444 454 0 +.02158910036087035 -.03
387588262557985 -.0466347225010395 150396496972472e-30 0 -1 -1 0 -15039649697247
2e-30 .01411839825523912 16 453 295 455 ?456 448 22 449 0 0 1 31 454 252 0 452 4
49 457 0 +-.0200591627508402 -.03398505970835685 .0268022157251835 0 0 1 1 0 0 .
01341879827242412 16 452 224 458 ?459 460 448 454 0 0 1 31 457 202 0 460 454 461
 0 +-.0200591627508402 -.03398505970835685 -.0466347225010395 150396496972472e-3
0 0 -1 -1 0 -150396496972472e-30 .01341879827242412 16 460 221 462 ?463 464 452
 457 0 0 1 30 461 343 0 464 457 465 0 -.0469747111201285 -.00508 -.0466347225010
395 -1 0 -150396496972472e-30 16 464 341 466 ?179 467 460 461 0 0 1 30 465 347 0
 467 461 468 0 +-.04020426015335815 -.068834 -.0466347225010395 0 1 0 16 467 345
 469 ?183 470 464 465 0 0 1 30 468 351 0 470 465 471 0 -.0418947111201285 -.0688
34 -.0466347225010395 0 1 0 16 470 349 472 ?171 473 467 468 0 0 1 30 471 354 0 4
73 468 474 0 +.000837373857696798 -.063754 -.0466347225010395 -1 0 -150396496972
472e-30 16 473 352 475 ?476 477 470 471 0 0 1 30 474 363 0 477 471 478 0 --.0401
0622025956095 -.068834 -.00978988392411946 .003086413507097805 0 .99999523701448
9 16 477 361 479 ?163 480 473 474 0 0 1 30 478 367 0 480 474 481 0 -.00083737385
7696784 -.068834 .0217222157251835 1 0 0 16 480 365 482 ?167 483 477 478 0 0 1 3
0 481 371 0 483 478 484 0 -.000837373857696789 -.068834 -.0415547225010395 -1 0
 -150396496972472e-30 16 483 369 485 ?486 487 480 481 0 0 1 30 484 374 0 487 481
 488 0 -.0418947111201285 -.068834 -.00991625338792801 944877887274102e-31 0 -1
 16 487 372 489 ?159 490 483 484 0 0 1 30 488 383 0 490 484 491 0 --.04507330556
71056 -.00508 .0268022157251835 1 0 0 16 490 381 492 ?147 493 487 488 0 0 1 30 4
91 387 0 493 488 494 0 --.04000896042631915 -.068834 .0268022157251835 0 1 0 16
 493 385 495 ?143 496 490 491 0 0 1 30 494 391 0 496 491 497 0 +.041894711120128
5 -.068834 .0268022157251835 0 1 0 16 496 389 498 ?151 499 493 494 0 0 1 30 497
 394 0 499 494 500 0 +.00095070277651145 -.063754 .0268022157251835 1 0 0 16 499
 392 501 ?502 503 496 497 0 0 1 30 500 403 0 503 497 504 0 -.0469747111201285 -.
00508 .0268022157251835 944877887274102e-31 0 -1 16 503 401 505 ?131 506 499 500
 0 0 1 30 504 407 0 506 500 507 0 -.0469747111201285 -.068834 .0217222157251835
 0 1 0 16 506 405 508 ?127 509 503 504 0 0 1 30 507 411 0 509 504 510 0 +.046974
7111201285 -.068834 -.0415547225010395 0 1 0 16 509 409 511 ?135 512 506 507 0 0
 1 30 510 414 0 512 507 513 0 +.0469747111201285 -.063754 -.00991625338792801 94
4877887274102e-31 0 -1 16 512 412 514 ?515 516 509 510 0 0 1 30 513 423 0 516 51
0 517 0 --.045299963404735 -.00508 -.0466347225010395 .003086413507097805 0 .999
995237014489 16 516 421 518 ?115 519 512 513 0 0 1 30 517 427 0 519 513 520 0 +-
.0450889362303528 -.068834 .02173789470579955 0 1 0 16 519 425 521 ?119 522 516
 517 0 0 1 30 520 431 0 522 517 523 0 --.0452842359573917 -.068834 -.04153904352
042345 0 1 0 16 522 429 524 ?107 525 519 520 0 0 1 30 523 434 0 525 520 526 0 +-
.0451866344859203 -.063754 -.00991625338792802 .003086413507097805 0 .9999952370
14489 16 525 432 527 ?528 529 522 523 0 0 1 30 526 443 0 529 523 530 0 +.0469747
111201285 0 .0217222157251835 1 0 0 16 529 441 531 ?99 532 525 526 0 0 1 30 530
 447 0 532 526 533 0 +.0418947111201285 0 -.0466347225010395 944877887274102e-31
 0 -1 16 532 445 534 ?95 28 529 530 0 0 1 30 533 451 0 28 530 29 0 +-.0452999634
04735 0 -.0415547225010395 -1 0 -150396496972472e-30 16 28 449 535 ?91 11 532 53
3 0 0 1 30 29 454 0 11 533 536 0 +-.03999332976307205 0 .0267865367445674 .00308
6413507097805 0 .999995237014489 31 536 633 0 447 29 537 0 --.04020426015335815
 -.063754 -.0415547225010395 -1 0 0 0 0 1 .00508 16 447 565 538 ?175 539 443 536
 0 0 1 31 537 632 0 539 536 540 0 -.0418947111201285 -.063754 -.0415547225010395
 1 0 -1365923996832132e-30 -1365923996832132e-30 0 -1 .00508 16 539 563 541 ?155
 542 447 537 0 0 1 31 540 631 0 542 537 543 0 +-.04020426015335815 -.063754 -.04
15547225010395 -.00308641350709817 0 -.999995237014489 -.999995237014489 0 .0030
8641350709817 .00508 16 542 561 544 ?545 546 539 540 0 0 1 31 543 630 0 546 540
 547 0 +-.04020426015335815 -.063754 -.0415547225010395 0 -1 0 0 0 -1 .00508 16
 546 560 548 ?549 550 542 543 0 0 1 31 547 629 0 550 543 551 0 +.041894711120128
5 -.063754 -.0415547225010395 0 -1 0 0 0 -1 .00508 16 550 559 552 ?123 553 546 5
47 0 0 1 31 551 628 0 553 547 554 0 +.0418947111201285 -.063754 -.04155472250103
95 0 0 -1 -1 0 0 .00508 16 553 558 555 ?556 557 550 551 0 0 1 31 554 627 0 557 5
51 558 0 --.04000896042631915 -.063754 .0217222157251835 .00308641350709749 0 .9
99995237014489 .999995237014489 0 -.00308641350709749 .00508 16 557 556 559 ?111
 560 553 554 0 0 1 31 558 626 0 560 554 561 0 --.04020426015335815 -.00508 -.041
5547225010395 0 1 0 0 0 1 .00508 16 560 553 562 ?563 564 557 558 0 0 1 31 561 62
5 0 564 558 565 0 -.0418947111201285 -.00508 -.0415547225010395 0 1 0 0 0 1 .005
08 16 564 550 566 ?567 568 560 561 0 0 1 31 565 624 0 568 561 569 0 -.0418947111
201285 -.063754 .0217222157251835 0 0 1 1 0 0 .00508 16 568 547 570 ?571 572 564
 565 0 0 1 31 569 623 0 572 565 573 0 +-.04000896042631915 -.063754 .02172221572
51835 -1 0 0 0 0 1 .00508 16 572 545 574 ?575 576 568 569 0 0 1 31 573 622 0 576
 569 577 0 +-.04000896042631915 -.063754 .0217222157251835 0 -1 0 0 0 -1 .00508
 16 576 544 578 ?579 580 572 573 0 0 1 31 577 621 0 580 573 581 0 +-.04020426015
335815 -.00508 -.0415547225010395 -.00308641350709817 0 -.999995237014489 -.9999
95237014489 0 .00308641350709817 .00508 16 580 543 582 ?583 584 576 577 0 0 1 31
 581 620 0 584 577 585 0 +-.04020426015335815 -.00508 -.0415547225010395 -1 0 0
 0 0 1 .00508 16 584 542 586 ?587 588 580 581 0 0 1 31 585 619 0 588 581 589 0 +
.0418947111201285 -.00508 -.0415547225010395 1 0 0 0 0 -1 .00508 16 588 541 590
 ?591 592 584 585 0 0 1 31 589 618 0 592 585 593 0 +.0418947111201285 -.00508 -.
0415547225010395 0 0 -1 -1 0 0 .00508 16 592 540 594 ?595 596 588 589 0 0 1 31 5
93 617 0 596 589 597 0 +.0418947111201285 -.063754 .0217222157251835 0 -1 0 0 0
 -1 .00508 16 596 539 598 ?139 599 592 593 0 0 1 31 597 616 0 599 593 600 0 +.04
18947111201285 -.063754 .0217222157251835 1 0 0 0 0 -1 .00508 16 599 538 601 ?60
2 603 596 597 0 0 1 31 600 615 0 603 597 604 0 --.04000896042631915 -.00508 .021
7222157251835 0 1 0 0 0 1 .00508 16 603 534 605 ?606 607 599 600 0 0 1 31 604 61
4 0 607 600 608 0 --.04000896042631915 -.00508 .0217222157251835 .00308641350709
749 0 .999995237014489 .999995237014489 0 -.00308641350709749 .00508 16 607 531
 609 ?103 610 603 604 0 0 1 31 608 613 0 610 604 611 0 -.0418947111201285 -.0050
8 .0217222157251835 0 0 1 1 0 0 .00508 16 610 526 612 ?613 614 607 608 0 0 1 31
 611 612 0 614 608 23 0 -.0418947111201285 -.00508 .0217222157251835 0 1 0 0 0 1
 .00508 16 614 523 615 ?616 617 610 611 0 0 1 31 23 611 0 617 611 8 0 +-.0400089
6042631915 -.00508 .0217222157251835 -1 0 0 0 0 1 .00508 16 617 521 618 ?619 22
 614 23 0 0 1 81 1 618 757 33 617 0 0 605 609 620 17 619 0 621 622 623 100 624 6
17 0 625 +16 22 520 626 ?627 453 617 8 0 0 1 81 1 626 763 33 22 0 0 615 612 628
 17 627 0 629 630 631 148 632 22 0 616 +15 629 475 0 631 633 0 17 630 0 629 631
 627 128 616 614 0 634 -17 631 0 629 627 630 96 613 610 0 635 -17 632 0 636 625
 637 96 627 22 0 631 -17 616 0 638 639 634 148 630 614 0 0 +15 638 479 0 616 640
 0 17 639 0 638 641 616 136 151 496 0 502 -17 634 0 638 616 641 128 127 506 0 0
 -17 641 0 638 634 639 124 139 596 0 642 -17 127 0 643 515 131 124 634 506 0 641
 +15 643 398 0 127 644 0 17 515 0 643 135 127 120 645 512 0 0 +17 131 0 643 127
 135 128 646 503 0 613 +17 135 0 643 131 515 132 647 509 0 646 +17 646 0 648 649
 613 132 131 503 0 595 -17 613 0 648 646 635 128 631 610 0 630 +15 648 483 0 613
 650 0 17 635 0 648 613 649 96 95 532 0 0 -17 649 0 648 635 646 92 595 592 0 591
 -17 95 0 651 91 99 92 635 532 0 652 +15 651 438 0 91 653 0 17 91 0 651 27 95 88
 652 28 0 654 +17 99 0 651 95 27 96 625 529 0 632 +17 652 0 655 656 657 92 91 28
 0 649 -15 655 485 0 657 658 0 17 656 0 655 659 652 176 591 588 0 660 -17 657 0
 655 652 659 88 587 584 0 583 -17 659 0 655 657 656 180 179 464 0 587 -17 587 0
 661 662 583 180 657 584 0 563 +17 583 0 661 587 662 88 663 580 0 0 +15 661 499
 0 583 664 0 17 662 0 661 583 587 112 563 560 0 665 -17 663 0 666 667 654 112 58
3 580 0 662 -15 666 487 0 103 668 0 17 667 0 666 103 663 116 115 516 0 0 -17 654
 0 666 663 103 88 27 11 0 657 -17 103 0 666 654 667 100 622 607 0 619 +17 27 0 6
51 99 91 100 654 11 0 0 +17 622 0 621 623 619 116 103 607 0 667 -15 621 477 0 62
3 669 0 17 623 0 621 619 622 144 606 603 0 670 -17 606 0 671 672 670 116 623 603
 0 622 +17 670 0 671 606 673 144 143 493 0 0 -15 671 489 0 606 674 0 17 673 0 67
1 670 672 140 579 576 0 575 -17 143 0 675 502 147 140 670 493 0 676 +15 675 378
 0 143 677 678 17 502 0 675 151 143 136 676 499 0 0 +17 147 0 675 143 151 144 63
7 490 0 624 +17 676 0 679 680 681 140 502 499 0 673 -15 679 493 0 681 682 0 17 6
80 0 679 683 676 164 575 572 0 684 -17 681 0 679 676 683 136 602 599 0 639 -17 6
83 0 679 681 680 156 167 480 0 602 -17 602 0 685 642 139 156 681 599 0 571 +15 6
85 495 0 139 686 0 17 642 0 685 139 602 124 571 568 0 645 -17 139 0 685 602 642
 136 641 596 0 681 +17 571 0 687 688 645 156 642 568 0 0 +15 687 503 0 571 689 0
 17 688 0 687 690 571 152 159 487 0 486 -17 645 0 687 571 690 124 515 512 0 0 -1
7 690 0 687 645 688 120 556 553 0 647 -17 556 0 691 692 123 152 690 553 0 688 +1
7 647 0 693 694 567 120 135 509 0 515 -15 693 505 0 567 695 0 17 694 0 693 696 6
47 168 123 550 0 692 -17 567 0 693 647 696 132 660 564 0 0 +17 696 0 693 567 694
 176 171 470 0 0 -17 660 0 697 591 595 176 567 564 0 696 -15 697 497 0 591 698 0
 17 591 0 697 595 660 92 656 588 0 0 +17 595 0 697 660 591 132 649 592 0 567 +14
 255 698 496 699 ?664 686 697 6 700 +0 0 664 686 25 81 1 699 2038 701 698 702 0
 703 704 705 14 664 498 704 ?706 698 661 6 707 +0 0 706 698 25 14 686 494 703 ?6
98 682 685 6 708 +0 0 698 682 25 53 255 700 600 0 698 707 708 0 +.04189471112012
85 -.00508 -.0415547225010395 .00508 0 1 0 0 0 1 13 25 49 0 0 0 0 0 0 10 18 14 1
8 126 709 ?677 0 37 6 710 +0 0 677 0 25 81 1 709 2019 701 18 711 0 0 712 713 14
 677 128 712 ?714 18 675 6 715 +0 0 714 18 25 15 37 1726 0 38 18 716 50 255 710
 131 0 18 717 715 0 +-.0451866344859203 -.068834 -.00991625338792802 -.999995237
014489 0 .003086413507097805 .003086413507097805 0 .999995237014489 50 717 130 0
 714 718 710 0 +.000837373857696798 -.068834 -.0466347225010395 150396496972472e
-30 0 -1 -1 0 -150396496972472e-30 50 715 132 0 677 710 719 0 +.0009507027765114
5 -.068834 .0268022157251835 0 0 1 1 0 0 51 719 609 0 720 715 721 0 +.0008373738
57696797 -.063754 -.0415547225010395 -1 0 -150396496972472e-30 .00508 -150396496
972472e-30 0 1 14 720 514 722 ?723 724 725 6 719 +0 0 723 724 25 53 721 608 0 72
4 719 726 0 +-.04020426015335815 -.063754 -.0415547225010395 .00508 0 -1 0 0 0 -
1 14 724 512 727 ?720 728 729 6 721 +0 0 720 728 25 53 726 607 0 728 721 730 0 +
.0418947111201285 -.063754 -.0415547225010395 .00508 1 0 0 0 0 -1 14 728 510 731
 ?724 732 691 6 726 +0 0 724 732 25 51 730 606 0 732 726 733 0 +-.04010665868188
67 -.063754 -.00993193236854407 .003086413507097805 0 .999995237014489 .00508 .9
99995237014489 0 -.003086413507097805 14 732 508 734 ?728 735 736 6 730 +0 0 728
 735 25 51 733 605 0 735 730 737 0 +-.04020426015335815 -.068834 -.0415547225010
395 0 1 0 .00508 0 0 1 14 735 506 738 ?732 695 739 6 733 +0 0 732 695 25 51 737
 604 0 695 733 740 0 +.0418947111201285 -.068834 -.0415547225010395 0 1 0 .00508
 0 0 1 14 695 504 741 ?735 689 693 6 737 +0 0 735 689 25 51 740 603 0 689 737 74
2 0 +.0418947111201285 -.063754 -.00991625338792801 944877887274102e-31 0 -1 .00
508 -1 0 -944877887274102e-31 14 689 502 743 ?695 706 687 6 740 +0 0 695 706 25
 53 742 602 0 706 740 707 0 +-.04000896042631915 -.063754 .0217222157251835 .005
08 0 -1 0 0 0 -1 14 706 500 744 ?689 664 745 6 742 +0 0 689 664 25 53 707 601 0
 664 742 700 0 +-.04020426015335815 -.00508 -.0415547225010395 .00508 0 1 0 0 0
 1 81 1 744 2040 701 706 746 0 704 743 747 15 745 501 0 575 706 0 17 575 0 745 5
79 684 140 680 572 0 0 +17 579 0 745 684 575 108 673 576 0 672 +17 684 0 745 575
 579 164 111 557 0 748 -17 111 0 736 749 748 108 684 557 0 579 +17 748 0 736 111
 750 164 163 477 0 0 -15 736 509 0 111 732 0 17 750 0 736 748 749 160 545 542 0
 751 -17 163 0 752 486 167 160 748 477 0 750 +15 752 358 0 486 753 0 17 486 0 75
2 159 163 152 751 483 0 0 +17 167 0 752 163 159 164 683 480 0 680 +17 159 0 752
 167 486 156 688 487 0 683 +17 751 0 725 175 155 160 486 483 0 754 -15 725 515 0
 155 720 0 17 175 0 725 755 751 172 754 447 0 549 +17 155 0 725 751 755 152 692
 539 0 556 +17 754 0 729 545 549 160 175 447 0 0 -15 729 513 0 545 724 0 17 545
 0 729 549 754 104 750 542 0 0 +17 549 0 729 754 545 172 756 546 0 757 +17 756 0
 739 665 757 104 549 546 0 545 -17 757 0 739 756 563 172 183 467 0 476 -15 739 5
07 0 563 735 0 17 563 0 739 757 665 180 662 560 0 0 +17 183 0 758 179 476 180 75
7 467 0 659 +17 476 0 758 183 171 172 755 473 0 0 +15 758 338 0 171 714 759 17 1
71 0 758 476 179 168 696 470 0 694 +17 755 0 725 155 175 168 476 473 0 0 -17 179
 0 758 171 183 176 659 464 0 656 +14 714 124 760 ?644 677 758 6 717 +0 0 644 677
 25 15 759 284 0 761 714 762 17 761 0 759 761 761 0 456 453 0 0 -15 762 201 0 76
3 714 0 17 763 0 762 763 763 0 463 460 0 0 -17 463 0 764 463 463 0 763 460 0 0 +
15 764 237 0 463 765 766 14 765 234 767 ?768 653 764 6 769 -0 0 768 653 25 15 76
6 238 0 459 765 0 17 459 0 766 459 459 0 770 452 0 0 +17 770 0 678 770 770 0 459
 452 0 0 -15 678 208 0 770 677 0 81 1 767 2025 701 765 771 0 772 773 774 14 768
 300 773 ?775 765 776 6 777 -0 0 775 765 25 14 653 68 772 ?765 753 651 6 778 -0
 0 765 753 25 51 769 249 0 765 777 779 0 +-.0200591627508402 -.03398505970835685
 -.0483817842748165 0 0 1 .01341879827242412 1 0 0 51 777 315 0 768 780 769 0 +.
02158910036087035 -.03387588262557985 -.0212347225010395 150396496972472e-30 0 -
1 .01411839825523912 -1 0 -150396496972472e-30 50 779 3 0 753 769 778 0 +.000837
373857696784 -.068834 -.00991625338792802 0 -1 0 1 0 0 14 753 1 781 ?653 644 752
 6 779 +0 0 653 644 25 50 778 108 0 653 779 718 0 +.000837373857696784 0 -.00991
625338792802 0 -1 0 1 0 0 50 718 129 0 644 778 717 0 +.0469747111201285 -.068834
 -.00991625338792801 1 0 944877887274102e-31 944877887274102e-31 0 -1 14 644 122
 782 ?753 714 783 6 718 +0 0 753 714 25 81 1 782 2022 701 644 784 0 760 781 785
 15 783 1184 0 208 644 786 17 208 0 783 75 67 205 787 359 0 390 +15 786 928 0 18
8 644 643 17 188 0 786 87 79 185 788 403 0 434 +17 87 0 786 83 188 84 789 409 0
 438 +17 79 0 786 188 83 76 425 422 0 446 -17 788 0 790 204 434 76 188 403 0 0 -
17 434 0 790 788 407 185 193 419 0 789 +15 790 1006 0 788 723 0 17 407 0 790 434
 204 184 791 404 0 792 +17 193 0 793 418 789 184 434 419 0 407 -17 789 0 793 193
 438 185 87 409 0 0 -15 793 1018 0 789 794 0 17 438 0 793 789 418 84 795 435 0 4
29 +17 418 0 793 438 193 194 792 415 0 0 +17 795 0 796 797 429 194 438 435 0 418
 -17 429 0 796 795 442 84 83 426 0 0 +15 796 1014 0 429 798 0 17 442 0 796 429 7
97 80 799 439 0 0 +17 83 0 786 79 87 80 429 426 0 425 -17 425 0 800 799 446 80 7
9 422 0 442 +15 800 1010 0 425 801 0 17 799 0 800 802 425 198 442 439 0 797 -17
 446 0 800 425 802 76 204 443 0 788 +17 802 0 800 446 799 189 201 408 0 791 -17
 204 0 790 407 788 189 446 443 0 802 -17 201 0 803 197 791 198 802 408 0 799 +17
 791 0 803 201 792 189 407 404 0 0 -15 803 1022 0 791 804 0 17 792 0 803 791 197
 184 418 415 0 0 -17 197 0 803 792 201 194 797 412 0 795 +17 797 0 796 442 795 1
98 197 412 0 0 -14 804 1019 805 ?806 794 803 6 807 +0 0 806 794 25 81 1 805 2052
 701 804 808 0 809 810 811 14 806 1259 810 ?812 804 813 6 814 +0 0 812 804 25 14
 794 1015 809 ?804 798 793 6 815 +0 0 804 798 25 50 807 1034 0 804 814 815 0 +.0
512927111201285 -.034417 -.009916253387928 1 0 944877887274102e-31 0 1 0 50 814
 1285 0 806 816 807 0 +.0512927111201285 -.0342819057404995 -.01466439989778204
 944877887274102e-31 0 -1 -1 0 -944877887274102e-31 50 815 1032 0 794 807 817 0
 +.0512927111201285 -.0389283783733845 .00583642325364053 0 -1 0 0 0 -1 50 817 1
031 0 798 815 818 0 +.0512927111201285 -.0342819057404995 .00730969524011016 944
877887274101e-31 933355048569243e-31 -1 -1 0 -944877887274101e-31 14 798 1011 81
9 ?794 801 796 6 817 -0 0 794 801 25 50 818 1030 0 801 817 820 0 +.0512927111201
285 -.0296354331076145 .00583642325364053 0 -1 0 0 0 -1 14 801 1007 821 ?798 723
 800 6 818 -0 0 798 723 25 50 820 1029 0 723 818 780 0 +.0512927111201285 -.0342
819057404995 .004363151267170905 944877887274101e-31 933355048569243e-31 -1 -1 0
 -944877887274101e-31 14 723 1003 822 ?801 720 790 6 820 +0 0 801 720 25 50 780
 317 0 775 820 777 0 +.000837373857696773 -.034417 -.0212347225010395 1503964969
72472e-30 0 -1 1 0 150396496972472e-30 14 775 305 823 ?20 768 824 6 780 +0 0 20
 768 25 81 1 823 2027 701 775 825 0 773 826 827 14 20 470 826 ?633 775 636 6 7 +
0 0 633 775 25 15 824 308 0 451 775 0 17 451 0 824 451 451 0 828 448 0 0 +17 828
 0 776 828 828 0 451 448 0 0 -15 776 303 0 828 768 829 15 829 304 0 456 768 0 17
 456 0 829 456 456 0 761 453 0 0 +81 1 826 2028 701 20 830 0 823 831 832 14 633
 474 831 ?669 20 629 6 21 +0 0 669 20 25 15 636 471 0 632 20 0 81 1 831 2029 701
 633 833 0 826 834 835 14 669 476 834 ?640 633 621 6 836 +0 0 640 633 25 53 21 5
91 0 633 836 7 0 +.0418947111201285 -.00508 .0217222157251835 .00508 0 0 1 1 0 0
 53 836 592 0 669 837 21 0 +-.04000896042631915 -.00508 .0217222157251835 .00508
 0 1 0 0 0 1 51 837 593 0 640 838 836 0 +.0418947111201285 -.068834 .02172221572
51835 0 1 0 .00508 0 0 1 14 640 478 839 ?650 669 638 6 837 +0 0 650 669 25 51 83
8 594 0 650 840 837 0 +.0418947111201285 -.00508 -.00991625338792801 -9448778872
74102e-31 0 1 .00508 1 0 944877887274102e-31 14 650 482 841 ?658 640 648 6 838 +
0 0 658 640 25 51 840 595 0 658 842 838 0 +.000837373857696789 -.00508 -.0415547
225010395 1 0 150396496972472e-30 .00508 150396496972472e-30 0 -1 14 658 484 843
 ?668 650 655 6 840 +0 0 668 650 25 51 842 596 0 668 844 840 0 +-.04010622025956
095 -.00508 -.00978988392411946 -.003086413507097805 0 -.999995237014489 .00508
 -.999995237014489 0 .003086413507097805 14 668 486 845 ?674 658 666 6 842 +0 0
 674 658 25 51 844 597 0 674 846 842 0 +-.04000896042631915 -.068834 .0217222157
251835 0 1 0 .00508 0 0 1 14 674 488 847 ?682 668 671 6 844 +0 0 682 668 25 51 8
46 598 0 682 708 844 0 +.00095070277651145 -.063754 .0217222157251835 1 0 0 .005
08 0 0 -1 14 682 492 848 ?686 674 679 6 846 +0 0 686 674 25 53 708 599 0 686 700
 846 0 +.0418947111201285 -.063754 .0217222157251835 .00508 0 0 1 1 0 0 81 1 848
 2036 701 682 849 0 847 703 850 80 7 CCCCCDI12 legal_owners0 17 1 lCZ1 701 0 851
 8001 0 0 0 0 3 5 0 0 0 FFFFTFTFFFFFFFFFF2 81 1 849 817 33 682 0 848 830 852 853
 81 1 847 2035 701 674 854 0 845 848 855 81 1 703 2037 701 686 856 0 848 699 857
 83 255 3 850 .615686274509804 .811764705882353 .929411764705882 81 1 856 807 33
 686 0 703 833 702 858 83 3 857 .615686274509804 .811764705882353 .9294117647058
82 80 1 33 859 860 9000 0 0 0 0 3 6 0 0 0 FFTFTFTTFFFFFFFFF1 81 1 833 806 33 633
 0 831 746 856 861 81 1 702 808 33 698 0 699 856 862 863 82 255 3 858 20 3 2 81
 1 862 809 33 728 0 731 702 864 865 82 3 863 20 4 2 81 1 731 2045 701 728 862 0
 734 727 866 81 1 864 810 33 664 0 704 862 867 868 82 3 865 20 5 2 81 1 704 2039
 701 664 864 0 699 744 869 81 1 867 811 33 724 0 727 864 854 870 82 3 868 20 6 2
 81 1 727 2046 701 724 867 0 731 722 871 81 1 854 812 33 674 0 847 867 872 873 8
2 3 870 20 7 2 81 1 872 813 33 640 0 839 854 874 875 82 3 873 20 8 2 81 1 839 20
31 701 640 872 0 834 841 876 81 1 874 814 33 695 0 741 872 877 878 82 3 875 20 9
 2 81 1 741 2042 701 695 874 0 743 738 879 81 1 877 815 33 735 0 738 874 830 880
 82 3 878 20 10 2 81 1 738 2043 701 735 877 0 741 734 881 81 1 830 816 33 20 0 8
26 877 849 882 82 3 880 20 11 2 82 3 882 20 12 2 81 1 734 2044 701 732 883 0 738
 731 884 83 3 881 .615686274509804 .811764705882353 .929411764705882 81 1 883 82
3 33 732 0 734 885 886 887 83 3 884 .615686274509804 .811764705882353 .929411764
705882 81 1 885 822 33 668 0 845 888 883 889 81 1 886 824 33 653 0 772 883 890 8
91 82 3 887 20 19 2 81 1 772 2024 701 653 886 0 781 767 892 81 1 890 825 33 753
 0 781 886 893 894 82 3 891 20 20 2 81 1 781 2023 701 753 890 0 782 772 895 81 1
 893 828 33 677 0 712 890 896 897 82 3 894 20 21 2 81 1 712 2020 701 677 893 0 7
09 760 898 81 1 896 829 33 714 0 760 893 406 899 82 3 897 20 24 2 81 1 760 2021
 701 714 896 0 712 782 900 81 1 406 945 33 404 0 0 896 433 901 82 3 899 20 25 2
 81 1 433 948 33 419 0 0 406 445 902 82 3 901 24 5 1 81 1 445 956 33 443 0 0 433
 441 903 82 3 902 24 1 1 81 1 441 964 33 439 0 0 445 417 904 82 3 903 24 0 1 81
 1 417 967 33 415 0 0 441 437 905 82 3 904 24 2 1 81 1 437 970 33 435 0 0 417 41
1 906 82 3 905 24 11 1 81 1 411 973 33 408 0 0 437 414 907 82 3 906 24 3 1 81 1
 414 976 33 412 0 0 411 203 908 82 3 907 24 9 1 81 1 203 988 33 189 0 0 414 192
 909 82 3 908 24 7 1 81 1 192 996 33 184 0 0 203 200 910 82 3 909 24 1 0 81 1 20
0 1000 33 198 0 0 192 196 911 82 3 910 24 3 0 81 1 196 1002 33 194 0 0 200 912 9
13 82 3 911 24 5 0 81 1 912 1005 33 723 0 822 196 914 915 82 3 913 24 7 0 81 1 8
22 2048 701 723 912 0 722 821 916 81 1 914 1009 33 801 0 821 912 917 918 82 3 91
5 24 0 2 81 1 821 2049 701 801 914 0 822 819 919 81 1 917 1013 33 798 0 819 914
 920 921 82 3 918 24 4 2 81 1 819 2050 701 798 917 0 821 809 922 81 1 920 1017 3
3 794 0 809 917 808 923 82 3 921 24 3 2 81 1 809 2051 701 794 920 0 819 805 924
 81 1 808 1021 33 804 0 805 920 78 925 82 3 923 24 5 2 81 1 78 1060 33 76 0 0 80
8 187 926 82 3 925 24 2 2 81 1 187 1061 33 185 0 0 78 82 927 82 3 926 25 0 0 81
 1 82 1062 33 80 0 0 187 86 928 82 3 927 25 1 0 81 1 86 1063 33 84 0 0 82 421 92
9 82 3 928 25 2 0 81 1 421 1064 33 403 0 0 86 428 930 82 3 929 25 3 0 81 1 428 1
065 33 426 0 0 421 424 931 82 3 930 25 0 1 81 1 424 1066 33 422 0 0 428 431 932
 82 3 931 25 1 1 81 1 431 1067 33 409 0 0 424 362 933 82 3 932 25 2 1 81 1 362 1
201 33 360 0 0 431 389 934 82 3 933 25 3 1 81 1 389 1204 33 375 0 0 362 401 935
 82 3 934 28 5 1 81 1 401 1212 33 399 0 0 389 397 936 82 3 935 28 1 1 81 1 397 1
220 33 395 0 0 401 373 937 82 3 936 28 0 1 81 1 373 1223 33 371 0 0 397 393 938
 82 3 937 28 2 1 81 1 393 1226 33 391 0 0 373 367 939 82 3 938 28 11 1 81 1 367
 1229 33 364 0 0 393 370 940 82 3 939 28 3 1 81 1 370 1232 33 368 0 0 367 223 94
1 82 3 940 28 9 1 81 1 223 1244 33 209 0 0 370 212 942 82 3 941 28 7 1 81 1 212
 1252 33 190 0 0 223 220 943 82 3 942 28 1 0 81 1 220 1256 33 218 0 0 212 216 94
4 82 3 943 28 3 0 81 1 216 1258 33 214 0 0 220 945 946 82 3 944 28 5 0 81 1 945
 1261 33 806 0 810 216 947 948 82 3 946 28 7 0 81 1 810 2053 701 806 945 0 805 9
49 950 81 1 947 1265 33 812 0 949 945 951 952 82 3 948 28 0 2 14 812 1263 949 ?9
53 806 954 6 816 -0 0 953 806 25 81 1 949 2054 701 812 947 0 810 955 956 81 1 95
1 1269 33 953 0 955 947 957 958 82 3 952 28 4 2 14 953 1267 955 ?959 812 960 6 9
61 -0 0 959 812 25 81 1 955 2055 701 953 951 0 949 962 963 81 1 957 1273 33 959
 0 962 951 964 965 82 3 958 28 3 2 14 959 1271 962 ?966 953 967 6 968 +0 0 966 9
53 25 81 1 962 2056 701 959 957 0 955 969 970 81 1 964 1277 33 966 0 969 957 66
 971 82 3 965 28 5 2 14 966 1275 969 ?972 959 973 6 974 +0 0 972 959 25 81 1 969
 2057 701 966 964 0 962 975 976 81 1 66 1316 33 64 0 0 964 207 977 82 3 971 28 2
 2 81 1 207 1317 33 205 0 0 66 70 978 82 3 977 29 0 0 81 1 70 1318 33 68 0 0 207
 74 979 82 3 978 29 1 0 81 1 74 1319 33 72 0 0 70 377 980 82 3 979 29 2 0 81 1 3
77 1320 33 359 0 0 74 384 981 82 3 980 29 3 0 81 1 384 1321 33 382 0 0 377 380 9
82 82 3 981 29 0 1 81 1 380 1322 33 378 0 0 384 387 983 82 3 982 29 1 1 81 1 387
 1323 33 365 0 0 380 784 984 82 3 983 29 2 1 81 1 784 1324 33 644 0 782 387 319
 985 82 3 984 29 3 1 81 1 319 1585 33 317 0 0 784 345 986 82 3 985 29 0 2 81 1 3
45 1588 33 332 0 0 319 357 987 82 3 986 37 5 1 81 1 357 1596 33 355 0 0 345 353
 988 82 3 987 37 1 1 81 1 353 1604 33 351 0 0 357 330 989 82 3 988 37 0 1 81 1 3
30 1607 33 328 0 0 353 349 990 82 3 989 37 2 1 81 1 349 1610 33 347 0 0 330 324
 991 82 3 990 37 11 1 81 1 324 1613 33 321 0 0 349 327 992 82 3 991 37 3 1 81 1
 327 1616 33 325 0 0 324 243 993 82 3 992 37 9 1 81 1 243 1628 33 229 0 0 327 23
2 994 82 3 993 37 7 1 81 1 232 1636 33 210 0 0 243 240 995 82 3 994 37 1 0 81 1
 240 1640 33 238 0 0 232 236 996 82 3 995 37 3 0 81 1 236 1642 33 234 0 0 240 99
7 998 82 3 996 37 5 0 81 1 997 1645 33 972 0 975 236 999 1000 82 3 998 37 7 0 14
 972 1643 975 ?1001 966 1002 6 1003 +0 0 1001 966 25 81 1 975 2058 701 972 997 0
 969 1004 1005 81 1 999 1649 33 1001 0 1004 997 1006 1007 82 3 1000 37 0 2 14 10
01 1647 1004 ?1008 972 1009 6 1010 -0 0 1008 972 25 81 1 1004 2059 701 1001 999
 0 975 1011 1012 81 1 1006 1653 33 1008 0 1011 999 1013 1014 82 3 1007 37 4 2 14
 1008 1651 1011 ?1015 1001 1016 6 1017 -0 0 1015 1001 25 81 1 1011 2060 701 1008
 1006 0 1004 1018 1019 81 1 1013 1657 33 1015 0 1018 1006 1020 1021 82 3 1014 37
 3 2 14 1015 1655 1018 ?1022 1008 1023 6 1024 +0 0 1022 1008 25 81 1 1018 2061 7
01 1015 1013 0 1011 1025 1026 81 1 1020 1661 33 1022 0 1025 1013 62 1027 82 3 10
21 37 5 2 14 1022 1659 1025 ?268 1015 1028 6 1029 +0 0 268 1015 25 81 1 1025 206
2 701 1022 1020 0 1018 1030 1031 81 1 62 1700 33 60 0 0 1020 54 1032 82 3 1027 3
7 2 2 81 1 54 1701 33 50 0 0 62 227 1033 82 3 1032 38 0 0 81 1 227 1702 33 225 0
 0 54 58 1034 82 3 1033 38 1 0 81 1 58 1703 33 56 0 0 227 334 1035 82 3 1034 38
 2 0 81 1 334 1704 33 276 0 0 58 341 1036 82 3 1035 38 3 0 81 1 341 1705 33 339
 0 0 334 337 1037 82 3 1036 38 0 1 81 1 337 1706 33 335 0 0 341 294 1038 82 3 10
37 38 1 1 81 1 294 1707 33 322 0 0 337 291 1039 82 3 1038 38 2 1 82 3 1039 38 3
 1 81 1 1030 2063 701 268 1040 0 1025 1041 1042 83 3 1031 .615686274509804 .8117
64705882353 .929411764705882 14 268 1801 1030 ?281 1022 263 6 1043 +0 0 281 1022
 25 81 1 1040 1803 33 268 0 1030 253 1044 1045 81 1 1041 2064 701 281 1044 0 103
0 1046 1047 83 3 1042 .615686274509804 .811764705882353 .929411764705882 14 281
 1805 1041 ?1048 268 274 6 1049 -0 0 1048 268 25 81 1 1044 1807 33 281 0 1041 10
40 1050 1051 81 1 1046 2065 701 1048 1050 0 1041 1052 1053 83 3 1047 .6156862745
09804 .811764705882353 .929411764705882 14 1048 1809 1046 ?1054 281 1055 6 1056
 -0 0 1054 281 25 81 1 1050 1811 33 1048 0 1046 1044 1057 1058 81 1 1052 2066 70
1 1054 1057 0 1046 1059 1060 83 3 1053 .615686274509804 .811764705882353 .929411
764705882 14 1054 1813 1052 ?288 1048 1061 6 1062 +0 0 288 1048 25 81 1 1057 181
5 33 1054 0 1052 1050 1063 1064 81 1 1059 2067 701 288 1063 0 1052 0 1065 83 3 1
060 .615686274509804 .811764705882353 .929411764705882 14 288 1817 1059 ?0 1054
 284 6 1066 +0 0 0 1054 25 81 1 1063 1819 33 288 0 1059 1057 34 1067 83 3 1065 .
615686274509804 .811764705882353 .929411764705882 81 1 34 1857 33 1 0 1068 1063
 30 1069 82 3 1067 39 2 2 81 1 1068 2016 1070 1 34 1071 0 0 1072 82 3 1069 6 0 3
 80 1 1070 1073 1074 8038 0 0 0 0 0 0 0 0 0 TTTTTTTTTTTTTFTFT10 81 1 1071 2017 1
073 1 1068 14 0 0 1075 98 255 6 1072 80 97 114 116 32 49 80 1 1073 1076 1077 801
7 0 0 0 0 0 0 0 0 0 TTTTTTTTTTTTTFTFT3 81 1 14 2018 1078 1 1071 2 0 0 1079 84 25
5 6 1075 Part 180 1 1078 701 1080 8040 0 0 0 0 3 5 0 0 0 TTTFFFFFFFFFFFFFF2 83 3
 1079 .615686274509804 .811764705882353 .929411764705882 79 255 17 1080 SDL/TYSA
_COLOUR_279 13 1077 SDL/TYSA_NAME79 14 1074 SDL/TYSA_UNAME50 1066 1832 0 288 0 1
062 0 +-.0502665618979058 -.034417 -.0098848954266959 -.999995237014489 0 .00308
6413507097805 0 -1 0 50 1062 1830 0 1054 1066 1056 0 +-.0502623607932209 -.03908
509773433485 -.00852374123736956 0 -1 0 0 0 -1 50 1056 1829 0 1048 1062 1049 0 +
-.0502669195835236 -.0351818622371218 -.010000785249376 .003086413507097805 0 .9
99995237014489 .999995237014489 0 -.003086413507097805 50 1049 1828 0 281 1056 1
043 0 +-.0502623607932209 -.0312786267399087 -.00852374123736956 0 -1 0 0 0 -1 5
0 1043 1827 0 268 1049 1029 0 +-.0502578020029182 -.0351818622371218 -.007046697
22536314 .003086413507097805 0 .999995237014489 .999995237014489 0 -.00308641350
7097805 50 1029 1674 0 1022 1043 1024 0 +-.0502665618979059 -.034417 -.009884895
4266959 -.999995237014489 0 .003086413507097805 0 -1 0 50 1024 1672 0 1015 1029
 1017 0 +-.050321206115461 -.03869052625352465 -.0275895734161646 0 -1 0 0 0 -1
 50 1017 1671 0 1008 1024 1010 0 +-.0503257649090377 -.0347872894470575 -.029066
61848895795 .003086413507097805 0 .999995237014489 .999995237014489 0 -.00308641
3507097805 50 1010 1670 0 1001 1017 1003 0 +-.050321206115461 -.0308840526405903
5 -.0275895734161646 0 -1 0 0 0 -1 50 1003 1669 0 972 1010 974 0 +-.050316647321
8843 -.0347872894470575 -.02611252834337125 .003086413507097805 0 .9999952370144
89 .999995237014489 0 -.003086413507097805 50 974 1290 0 966 1003 968 0 +.051292
7111201285 -.034417 -.009916253387928 1 0 944877887274102e-31 0 1 0 50 968 1288
 0 959 974 961 0 +.0512927111201285 -.0382484085857868 -.01331611163914202 0 -1
 0 0 0 -1 50 961 1287 0 953 968 816 0 +.0512927111201285 -.0342819057404995 -.01
196782338050202 944877887274102e-31 0 -1 -1 0 -944877887274102e-31 50 816 1286 0
 812 961 814 0 +.0512927111201285 -.03031540289521215 -.01331611163914202 0 -1 0
 0 0 -1 82 3 1064 39 5 2 15 1061 1816 0 1081 1054 0 17 1081 0 1061 250 314 245 4
7 292 0 0 -17 250 0 1061 289 1081 230 269 303 0 264 -17 314 0 1061 1081 289 44 1
082 311 0 48 +17 47 0 37 39 38 44 1081 292 0 314 +17 38 0 37 47 31 245 265 273 0
 269 +17 269 0 263 265 264 245 250 303 0 1081 +17 289 0 1061 314 250 251 272 290
 0 0 +17 1082 0 1055 283 48 251 314 311 0 289 -17 48 0 1055 1082 282 44 39 49 0
 0 +15 1055 1812 0 48 1048 0 17 282 0 1055 48 283 32 279 277 0 0 +17 283 0 1055
 282 1082 255 254 286 0 0 -17 254 0 284 272 258 251 283 286 0 1082 +82 3 1058 39
 3 2 82 3 1051 39 4 2 81 1 253 1800 33 251 0 0 257 1040 1083 82 3 1045 39 0 2 81
 1 257 1798 33 255 0 0 249 253 1084 82 3 1083 39 7 0 81 1 249 1794 33 230 0 0 25
9 257 1085 82 3 1084 39 5 0 82 3 1085 39 3 0 15 1028 1662 0 1086 1022 0 17 1086
 0 1028 241 1087 229 320 317 0 0 -17 241 0 1028 237 1086 238 1088 321 0 1089 +17
 1087 0 1028 1086 237 210 331 328 0 0 -17 320 0 1002 346 244 210 1086 317 0 1087
 +15 1002 1646 0 1090 972 0 17 346 0 1002 1090 320 50 233 332 0 1091 +17 244 0 1
002 320 1090 229 358 355 0 1088 -17 1090 0 1002 244 346 60 55 276 0 0 -17 358 0
 1009 338 1088 60 244 355 0 1090 +17 1088 0 1009 358 1089 229 241 321 0 1086 -15
 1009 1650 0 338 1001 0 17 1089 0 1009 1088 338 238 354 351 0 1092 -17 338 0 100
9 1089 358 225 63 335 0 354 +17 354 0 1016 342 1092 225 1089 351 0 0 +17 1092 0
 1016 354 1093 238 237 325 0 0 -15 1016 1654 0 342 1008 0 17 1093 0 1016 1092 34
2 234 350 347 0 331 -17 237 0 1028 1087 241 234 1092 325 0 1093 +17 342 0 1016 1
093 354 56 228 339 0 0 +17 350 0 1023 1091 331 56 1093 347 0 342 +17 331 0 1023
 350 233 234 1087 328 0 0 +15 1023 1658 0 1091 1015 0 17 233 0 1023 331 1091 210
 346 332 0 320 -17 1091 0 1023 233 350 50 59 322 0 0 -17 59 0 1094 228 55 56 109
1 322 0 350 +15 1094 1557 0 63 18 0 17 228 0 1094 63 59 225 342 339 0 338 -17 55
 0 1094 59 63 50 1090 276 0 346 +17 63 0 1094 55 228 60 338 335 0 358 -83 3 1026
 .615686274509804 .811764705882353 .929411764705882 83 3 1019 .615686274509804 .
811764705882353 .929411764705882 83 3 1012 .615686274509804 .811764705882353 .92
9411764705882 83 3 1005 .615686274509804 .811764705882353 .929411764705882 83 3
 976 .615686274509804 .811764705882353 .929411764705882 15 973 1278 0 1095 966 0
 17 1095 0 973 221 1096 209 363 360 0 0 -17 221 0 973 217 1095 218 1097 364 0 10
98 +17 1096 0 973 1095 217 190 374 371 0 0 -17 363 0 813 390 224 190 1095 360 0
 1096 +15 813 1262 0 787 806 0 17 390 0 813 787 363 205 213 375 0 1099 +17 224 0
 813 363 787 209 402 399 0 1097 -17 787 0 813 224 390 64 208 359 0 0 -17 402 0 9
54 381 1097 64 224 399 0 787 +17 1097 0 954 402 1098 209 221 364 0 1095 -15 954
 1266 0 381 812 0 17 1098 0 954 1097 381 218 398 395 0 1100 -17 381 0 954 1098 4
02 68 67 378 0 398 +17 398 0 960 385 1100 68 1098 395 0 0 +17 1100 0 960 398 110
1 218 217 368 0 0 -15 960 1270 0 385 953 0 17 1101 0 960 1100 385 214 394 391 0
 374 -17 217 0 973 1096 221 214 1100 368 0 1101 +17 385 0 960 1101 398 72 71 382
 0 0 +17 394 0 967 1099 374 72 1101 391 0 385 +17 374 0 967 394 213 214 1096 371
 0 0 +15 967 1274 0 1099 959 0 17 213 0 967 374 1099 190 390 375 0 363 -17 1099
 0 967 213 394 205 75 365 0 0 -17 75 0 783 71 208 72 1099 365 0 394 +17 71 0 783
 67 75 68 385 382 0 381 -17 67 0 783 208 71 64 381 378 0 402 -83 3 970 .61568627
4509804 .811764705882353 .929411764705882 83 3 963 .615686274509804 .81176470588
2353 .929411764705882 83 3 956 .615686274509804 .811764705882353 .92941176470588
2 83 3 950 .615686274509804 .811764705882353 .929411764705882 83 3 924 .61568627
4509804 .811764705882353 .929411764705882 83 3 922 .615686274509804 .81176470588
2353 .929411764705882 83 3 919 .615686274509804 .811764705882353 .92941176470588
2 81 1 722 2047 701 720 888 0 727 822 1102 83 3 916 .615686274509804 .8117647058
82353 .929411764705882 81 1 888 821 33 720 0 722 1103 885 1104 83 3 1102 .615686
274509804 .811764705882353 .929411764705882 81 1 1103 820 33 658 0 843 1105 888
 1106 82 3 1104 20 17 2 81 1 843 2033 701 658 1103 0 841 845 1107 81 1 1105 819
 33 689 0 743 852 1103 1108 82 3 1106 20 16 2 81 1 743 2041 701 689 1105 0 744 7
41 1109 81 1 852 818 33 650 0 841 849 1105 1110 82 3 1108 20 15 2 81 1 841 2032
 701 650 852 0 839 843 1111 82 3 1110 20 14 2 83 3 1111 .615686274509804 .811764
705882353 .929411764705882 83 3 1109 .615686274509804 .811764705882353 .92941176
4705882 81 1 845 2034 701 668 885 0 843 847 1112 83 3 1107 .615686274509804 .811
764705882353 .929411764705882 83 3 1112 .615686274509804 .811764705882353 .92941
1764705882 83 3 900 .615686274509804 .811764705882353 .929411764705882 83 3 898
 .615686274509804 .811764705882353 .929411764705882 83 3 895 .615686274509804 .8
11764705882353 .929411764705882 83 3 892 .615686274509804 .811764705882353 .9294
11764705882 82 3 889 20 18 2 83 3 879 .615686274509804 .811764705882353 .9294117
64705882 81 1 834 2030 701 669 1113 0 831 839 1114 83 3 876 .615686274509804 .81
1764705882353 .929411764705882 81 1 1113 804 33 669 0 834 527 746 1115 83 3 1114
 .615686274509804 .811764705882353 .929411764705882 81 1 527 803 33 525 0 0 479
 1113 1116 81 1 746 805 33 706 0 744 1113 833 1117 82 3 1115 20 0 2 82 3 1117 20
 1 2 81 1 479 802 33 477 0 0 518 527 1118 82 3 1116 20 47 1 81 1 518 801 33 516
 0 0 26 479 1119 82 3 1118 20 46 1 81 1 26 800 33 11 0 0 475 518 1120 82 3 1119
 20 45 1 81 1 475 799 33 473 0 0 485 26 1121 82 3 1120 20 44 1 81 1 485 798 33 4
83 0 0 466 475 1122 82 3 1121 20 43 1 81 1 466 797 33 464 0 0 535 485 1123 82 3
 1122 20 42 1 81 1 535 796 33 28 0 0 514 466 1124 82 3 1123 20 41 1 81 1 514 795
 33 512 0 0 489 535 1125 82 3 1124 20 40 1 81 1 489 794 33 487 0 0 505 514 1126
 82 3 1125 20 39 1 81 1 505 793 33 503 0 0 534 489 1127 82 3 1126 20 38 1 81 1 5
34 792 33 532 0 0 501 505 1128 82 3 1127 20 37 1 81 1 501 791 33 499 0 0 482 534
 1129 82 3 1128 20 36 1 81 1 482 790 33 480 0 0 492 501 1130 82 3 1129 20 35 1 8
1 1 492 789 33 490 0 0 531 482 1131 82 3 1130 20 34 1 81 1 531 788 33 529 0 0 46
9 492 1132 82 3 1131 20 33 1 81 1 469 787 33 467 0 0 524 531 1133 82 3 1132 20 3
2 1 81 1 524 786 33 522 0 0 472 469 1134 82 3 1133 20 31 1 81 1 472 785 33 470 0
 0 511 524 1135 82 3 1134 20 30 1 81 1 511 784 33 509 0 0 498 472 1136 82 3 1135
 20 29 1 81 1 498 783 33 496 0 0 508 511 1137 82 3 1136 20 28 1 81 1 508 782 33
 506 0 0 495 498 1138 82 3 1137 20 27 1 81 1 495 781 33 493 0 0 521 508 1139 82
 3 1138 20 26 1 81 1 521 780 33 519 0 0 544 495 1140 82 3 1139 20 25 1 81 1 544
 779 33 542 0 0 538 521 1141 82 3 1140 20 24 1 81 1 538 778 33 447 0 0 548 544 1
142 82 3 1141 20 23 1 81 1 548 777 33 546 0 0 582 538 1143 82 3 1142 20 22 1 81
 1 582 776 33 580 0 0 586 548 1144 82 3 1143 20 21 1 81 1 586 775 33 584 0 0 562
 582 1145 82 3 1144 20 20 1 81 1 562 774 33 560 0 0 541 586 1146 82 3 1145 20 19
 1 81 1 541 773 33 539 0 0 555 562 1147 82 3 1146 20 18 1 81 1 555 772 33 553 0
 0 552 541 1148 82 3 1147 20 17 1 81 1 552 771 33 550 0 0 590 555 1149 82 3 1148
 20 16 1 81 1 590 770 33 588 0 0 594 552 1150 82 3 1149 20 15 1 81 1 594 769 33
 592 0 0 566 590 1151 82 3 1150 20 14 1 81 1 566 768 33 564 0 0 570 594 1152 82
 3 1151 20 13 1 81 1 570 767 33 568 0 0 601 566 1153 82 3 1152 20 12 1 81 1 601
 766 33 599 0 0 598 570 1154 82 3 1153 20 11 1 81 1 598 765 33 596 0 0 612 601 1
155 82 3 1154 20 10 1 81 1 612 764 33 610 0 0 626 598 1156 82 3 1155 20 9 1 82 3
 1156 20 8 1 83 3 871 .615686274509804 .811764705882353 .929411764705882 83 3 86
9 .615686274509804 .811764705882353 .929411764705882 83 3 866 .615686274509804 .
811764705882353 .929411764705882 82 3 861 20 2 2 79 9 860 BTI/DetId83 3 855 .615
686274509804 .811764705882353 .929411764705882 82 3 853 20 13 2 79 15 851 SDL/TY
SA_COLOUR83 3 835 .615686274509804 .811764705882353 .929411764705882 83 3 832 .6
15686274509804 .811764705882353 .929411764705882 81 1 825 323 33 775 0 823 1157
 146 1158 81 1 773 2026 701 768 1157 0 767 823 1159 83 3 827 .615686274509804 .8
11764705882353 .929411764705882 81 1 1157 322 33 768 0 773 450 825 1160 83 3 115
9 .615686274509804 .811764705882353 .929411764705882 81 1 450 321 33 448 0 0 455
 1157 1161 82 3 1160 19 0 2 81 1 455 320 33 453 0 0 771 450 1162 82 3 1161 19 1
 1 81 1 771 257 33 765 0 767 462 455 1163 82 3 1162 19 0 1 81 1 462 256 33 460 0
 0 458 771 1164 82 3 1163 12 0 2 81 1 458 255 33 452 0 0 0 462 1165 82 3 1164 12
 1 1 82 3 1165 12 0 1 81 1 146 732 33 144 0 0 825 118 1166 82 3 1158 19 1 2 81 1
 118 733 33 116 0 0 146 102 1167 82 3 1166 20 0 0 81 1 102 734 33 100 0 0 118 14
2 1168 82 3 1167 20 1 0 81 1 142 735 33 140 0 0 102 110 1169 82 3 1168 20 2 0 81
 1 110 736 33 108 0 0 142 166 1170 82 3 1169 20 3 0 81 1 166 737 33 164 0 0 110
 150 1171 82 3 1170 20 4 0 81 1 150 738 33 148 0 0 166 130 1172 82 3 1171 20 5 0
 81 1 130 739 33 128 0 0 150 98 1173 82 3 1172 20 6 0 81 1 98 740 33 96 0 0 130
 138 1174 82 3 1173 20 7 0 81 1 138 741 33 136 0 0 98 126 1175 82 3 1174 20 8 0
 81 1 126 742 33 124 0 0 138 158 1176 82 3 1175 20 9 0 81 1 158 743 33 156 0 0 1
26 134 1177 82 3 1176 20 10 0 81 1 134 744 33 132 0 0 158 178 1178 82 3 1177 20
 11 0 81 1 178 745 33 176 0 0 134 94 1179 82 3 1178 20 12 0 81 1 94 746 33 92 0
 0 178 122 1180 82 3 1179 20 13 0 81 1 122 747 33 120 0 0 94 170 1181 82 3 1180
 20 14 0 81 1 170 748 33 168 0 0 122 154 1182 82 3 1181 20 15 0 81 1 154 749 33
 152 0 0 170 182 1183 82 3 1182 20 16 0 81 1 182 750 33 180 0 0 154 114 1184 82
 3 1183 20 17 0 81 1 114 751 33 112 0 0 182 90 1185 82 3 1184 20 18 0 81 1 90 75
2 33 88 0 0 114 174 1186 82 3 1185 20 19 0 81 1 174 753 33 172 0 0 90 106 1187 8
2 3 1186 20 20 0 81 1 106 754 33 104 0 0 174 162 1188 82 3 1187 20 21 0 81 1 162
 755 33 160 0 0 106 605 1189 82 3 1188 20 22 0 81 1 605 756 33 603 0 0 162 618 1
190 82 3 1189 20 23 0 82 3 1190 20 0 1 83 3 811 .615686274509804 .81176470588235
3 .929411764705882 83 3 785 .615686274509804 .811764705882353 .929411764705882 8
3 3 774 .615686274509804 .811764705882353 .929411764705882 17 665 0 739 563 756
 112 107 522 0 0 -17 107 0 716 528 115 104 665 522 0 749 +15 716 418 0 107 18 10
94 17 528 0 716 119 107 108 749 525 0 0 +17 115 0 716 107 119 112 667 516 0 663
 +17 749 0 736 750 111 104 528 525 0 756 -17 119 0 716 115 528 116 672 519 0 606
 +17 672 0 671 673 606 108 119 519 0 528 -17 692 0 691 123 556 168 155 539 0 755
 -15 691 511 0 123 728 0 17 123 0 691 556 692 120 694 550 0 690 +83 3 747 .61568
6274509804 .811764705882353 .929411764705882 81 1 711 1866 33 18 0 709 297 0 119
1 83 3 713 .615686274509804 .811764705882353 .929411764705882 81 1 297 1865 33 2
92 0 0 307 711 1192 82 3 1191 40 0 2 81 1 307 1864 33 41 0 0 308 297 1193 82 3 1
192 40 3 1 81 1 308 1863 33 49 0 0 305 307 1194 82 3 1193 40 2 1 81 1 305 1862 3
3 273 0 0 45 308 1195 82 3 1194 40 1 1 81 1 45 1861 33 44 0 0 43 305 1196 82 3 1
195 40 0 1 82 3 1196 40 3 0 83 3 705 .615686274509804 .811764705882353 .92941176
4705882 17 151 0 675 147 502 148 639 496 0 637 +17 637 0 636 632 624 148 147 490
 0 627 -17 624 0 636 637 625 144 619 617 0 623 -17 625 0 636 624 632 100 99 529
 0 27 -81 1 615 762 33 614 0 0 559 626 1197 82 3 628 20 7 1 81 1 559 761 33 557
 0 0 574 615 1198 82 3 1197 20 6 1 81 1 574 760 33 572 0 0 578 559 1199 82 3 119
8 20 5 1 81 1 578 759 33 576 0 0 609 574 1200 82 3 1199 20 4 1 81 1 609 758 33 6
07 0 0 618 578 1201 82 3 1200 20 3 1 82 3 1201 20 2 1 82 3 620 20 1 1 81 1 315 1
762 33 277 0 0 275 302 1202 81 1 275 1754 33 266 0 0 295 315 1203 81 1 302 1765
 33 290 0 0 315 313 1204 82 3 1202 39 2 1 81 1 313 1768 33 311 0 0 302 285 1205
 82 3 1204 39 11 1 81 1 285 1771 33 280 0 0 313 261 1206 82 3 1205 39 3 1 81 1 2
61 1774 33 286 0 0 285 259 1207 82 3 1206 39 9 1 82 3 1207 39 7 1 81 1 295 1746
 33 303 0 0 291 275 1208 82 3 1203 39 0 1 82 3 1208 39 1 1 17 40 0 274 279 42 32
 31 41 0 282 +82 3 296 39 5 1 82 3 262 39 1 0 81 1 35 1859 33 245 0 0 30 43 1209
 82 3 1209 40 1 0 82 3 46 40 2 0 82 3 36 40 0 0 19 19 138 0 1 0 10 6 0 S0 74 4 C
I16 index_map_offset0 0 1 dCCZ20 17 6 0 0 711 1068 1071 14 1059 2 0 0 0 0 0 0 0
 0 0 0 0 0 0 0 80 2 13 1210 1211 8004 0 0 0 0 3 5 0 0 0 FFTFFFFFFFFFFFFFF2 3 83
 1 15 7850 84 6 16 kg/m^379 16 1211 SDL/TYSA_DENSITY1 0 
